<?xml version="1.0" encoding="utf-8" standalone="no"?>
<!DOCTYPE svg PUBLIC "-//W3C//DTD SVG 1.1//EN"
  "http://www.w3.org/Graphics/SVG/1.1/DTD/svg11.dtd">
<svg xmlns:xlink="http://www.w3.org/1999/xlink" width="432pt" height="216pt" viewBox="0 0 432 216" xmlns="http://www.w3.org/2000/svg" version="1.1">
 <metadata>
  <rdf:RDF xmlns:dc="http://purl.org/dc/elements/1.1/" xmlns:cc="http://creativecommons.org/ns#" xmlns:rdf="http://www.w3.org/1999/02/22-rdf-syntax-ns#">
   <cc:Work>
    <dc:type rdf:resource="http://purl.org/dc/dcmitype/StillImage"/>
    <dc:date>2026-04-12T01:24:28.551346</dc:date>
    <dc:format>image/svg+xml</dc:format>
    <dc:creator>
     <cc:Agent>
      <dc:title>Matplotlib v3.10.7, https://matplotlib.org/</dc:title>
     </cc:Agent>
    </dc:creator>
   </cc:Work>
  </rdf:RDF>
 </metadata>
 <defs>
  <style type="text/css">*{stroke-linejoin: round; stroke-linecap: butt}</style>
 </defs>
 <g id="figure_1">
  <g id="patch_1">
   <path d="M 0 216 
L 432 216 
L 432 0 
L 0 0 
z
" style="fill: #ffffff"/>
  </g>
  <g id="axes_1">
   <g id="patch_2">
    <path d="M 56.036 172.3975 
L 325.57 172.3975 
L 325.57 26.88 
L 56.036 26.88 
z
" style="fill: #ffffff"/>
   </g>
   <g id="matplotlib.axis_1">
    <g id="xtick_1">
     <g id="line2d_1">
      <defs>
       <path id="mbe80bc9090" d="M 0 0 
L 0 3.5 
" style="stroke: #000000; stroke-width: 0.8"/>
      </defs>
      <g>
       <use xlink:href="#mbe80bc9090" x="56.036" y="172.3975" style="stroke: #000000; stroke-width: 0.8"/>
      </g>
     </g>
     <g id="text_1">
      <!-- 0 -->
      <g transform="translate(52.85475 186.995937) scale(0.1 -0.1)">
       <defs>
        <path id="DejaVuSans-30" d="M 2034 4250 
Q 1547 4250 1301 3770 
Q 1056 3291 1056 2328 
Q 1056 1369 1301 889 
Q 1547 409 2034 409 
Q 2525 409 2770 889 
Q 3016 1369 3016 2328 
Q 3016 3291 2770 3770 
Q 2525 4250 2034 4250 
z
M 2034 4750 
Q 2819 4750 3233 4129 
Q 3647 3509 3647 2328 
Q 3647 1150 3233 529 
Q 2819 -91 2034 -91 
Q 1250 -91 836 529 
Q 422 1150 422 2328 
Q 422 3509 836 4129 
Q 1250 4750 2034 4750 
z
" transform="scale(0.015625)"/>
       </defs>
       <use xlink:href="#DejaVuSans-30"/>
      </g>
     </g>
    </g>
    <g id="xtick_2">
     <g id="line2d_2">
      <g>
       <use xlink:href="#mbe80bc9090" x="91.688646" y="172.3975" style="stroke: #000000; stroke-width: 0.8"/>
      </g>
     </g>
     <g id="text_2">
      <!-- 10 -->
      <g transform="translate(85.326146 186.995937) scale(0.1 -0.1)">
       <defs>
        <path id="DejaVuSans-31" d="M 794 531 
L 1825 531 
L 1825 4091 
L 703 3866 
L 703 4441 
L 1819 4666 
L 2450 4666 
L 2450 531 
L 3481 531 
L 3481 0 
L 794 0 
L 794 531 
z
" transform="scale(0.015625)"/>
       </defs>
       <use xlink:href="#DejaVuSans-31"/>
       <use xlink:href="#DejaVuSans-30" transform="translate(63.623047 0)"/>
      </g>
     </g>
    </g>
    <g id="xtick_3">
     <g id="line2d_3">
      <g>
       <use xlink:href="#mbe80bc9090" x="127.341291" y="172.3975" style="stroke: #000000; stroke-width: 0.8"/>
      </g>
     </g>
     <g id="text_3">
      <!-- 20 -->
      <g transform="translate(120.978791 186.995937) scale(0.1 -0.1)">
       <defs>
        <path id="DejaVuSans-32" d="M 1228 531 
L 3431 531 
L 3431 0 
L 469 0 
L 469 531 
Q 828 903 1448 1529 
Q 2069 2156 2228 2338 
Q 2531 2678 2651 2914 
Q 2772 3150 2772 3378 
Q 2772 3750 2511 3984 
Q 2250 4219 1831 4219 
Q 1534 4219 1204 4116 
Q 875 4013 500 3803 
L 500 4441 
Q 881 4594 1212 4672 
Q 1544 4750 1819 4750 
Q 2544 4750 2975 4387 
Q 3406 4025 3406 3419 
Q 3406 3131 3298 2873 
Q 3191 2616 2906 2266 
Q 2828 2175 2409 1742 
Q 1991 1309 1228 531 
z
" transform="scale(0.015625)"/>
       </defs>
       <use xlink:href="#DejaVuSans-32"/>
       <use xlink:href="#DejaVuSans-30" transform="translate(63.623047 0)"/>
      </g>
     </g>
    </g>
    <g id="xtick_4">
     <g id="line2d_4">
      <g>
       <use xlink:href="#mbe80bc9090" x="162.993937" y="172.3975" style="stroke: #000000; stroke-width: 0.8"/>
      </g>
     </g>
     <g id="text_4">
      <!-- 30 -->
      <g transform="translate(156.631437 186.995937) scale(0.1 -0.1)">
       <defs>
        <path id="DejaVuSans-33" d="M 2597 2516 
Q 3050 2419 3304 2112 
Q 3559 1806 3559 1356 
Q 3559 666 3084 287 
Q 2609 -91 1734 -91 
Q 1441 -91 1130 -33 
Q 819 25 488 141 
L 488 750 
Q 750 597 1062 519 
Q 1375 441 1716 441 
Q 2309 441 2620 675 
Q 2931 909 2931 1356 
Q 2931 1769 2642 2001 
Q 2353 2234 1838 2234 
L 1294 2234 
L 1294 2753 
L 1863 2753 
Q 2328 2753 2575 2939 
Q 2822 3125 2822 3475 
Q 2822 3834 2567 4026 
Q 2313 4219 1838 4219 
Q 1578 4219 1281 4162 
Q 984 4106 628 3988 
L 628 4550 
Q 988 4650 1302 4700 
Q 1616 4750 1894 4750 
Q 2613 4750 3031 4423 
Q 3450 4097 3450 3541 
Q 3450 3153 3228 2886 
Q 3006 2619 2597 2516 
z
" transform="scale(0.015625)"/>
       </defs>
       <use xlink:href="#DejaVuSans-33"/>
       <use xlink:href="#DejaVuSans-30" transform="translate(63.623047 0)"/>
      </g>
     </g>
    </g>
    <g id="xtick_5">
     <g id="line2d_5">
      <g>
       <use xlink:href="#mbe80bc9090" x="198.646582" y="172.3975" style="stroke: #000000; stroke-width: 0.8"/>
      </g>
     </g>
     <g id="text_5">
      <!-- 40 -->
      <g transform="translate(192.284082 186.995937) scale(0.1 -0.1)">
       <defs>
        <path id="DejaVuSans-34" d="M 2419 4116 
L 825 1625 
L 2419 1625 
L 2419 4116 
z
M 2253 4666 
L 3047 4666 
L 3047 1625 
L 3713 1625 
L 3713 1100 
L 3047 1100 
L 3047 0 
L 2419 0 
L 2419 1100 
L 313 1100 
L 313 1709 
L 2253 4666 
z
" transform="scale(0.015625)"/>
       </defs>
       <use xlink:href="#DejaVuSans-34"/>
       <use xlink:href="#DejaVuSans-30" transform="translate(63.623047 0)"/>
      </g>
     </g>
    </g>
    <g id="xtick_6">
     <g id="line2d_6">
      <g>
       <use xlink:href="#mbe80bc9090" x="234.299228" y="172.3975" style="stroke: #000000; stroke-width: 0.8"/>
      </g>
     </g>
     <g id="text_6">
      <!-- 50 -->
      <g transform="translate(227.936728 186.995937) scale(0.1 -0.1)">
       <defs>
        <path id="DejaVuSans-35" d="M 691 4666 
L 3169 4666 
L 3169 4134 
L 1269 4134 
L 1269 2991 
Q 1406 3038 1543 3061 
Q 1681 3084 1819 3084 
Q 2600 3084 3056 2656 
Q 3513 2228 3513 1497 
Q 3513 744 3044 326 
Q 2575 -91 1722 -91 
Q 1428 -91 1123 -41 
Q 819 9 494 109 
L 494 744 
Q 775 591 1075 516 
Q 1375 441 1709 441 
Q 2250 441 2565 725 
Q 2881 1009 2881 1497 
Q 2881 1984 2565 2268 
Q 2250 2553 1709 2553 
Q 1456 2553 1204 2497 
Q 953 2441 691 2322 
L 691 4666 
z
" transform="scale(0.015625)"/>
       </defs>
       <use xlink:href="#DejaVuSans-35"/>
       <use xlink:href="#DejaVuSans-30" transform="translate(63.623047 0)"/>
      </g>
     </g>
    </g>
    <g id="xtick_7">
     <g id="line2d_7">
      <g>
       <use xlink:href="#mbe80bc9090" x="269.951873" y="172.3975" style="stroke: #000000; stroke-width: 0.8"/>
      </g>
     </g>
     <g id="text_7">
      <!-- 60 -->
      <g transform="translate(263.589373 186.995937) scale(0.1 -0.1)">
       <defs>
        <path id="DejaVuSans-36" d="M 2113 2584 
Q 1688 2584 1439 2293 
Q 1191 2003 1191 1497 
Q 1191 994 1439 701 
Q 1688 409 2113 409 
Q 2538 409 2786 701 
Q 3034 994 3034 1497 
Q 3034 2003 2786 2293 
Q 2538 2584 2113 2584 
z
M 3366 4563 
L 3366 3988 
Q 3128 4100 2886 4159 
Q 2644 4219 2406 4219 
Q 1781 4219 1451 3797 
Q 1122 3375 1075 2522 
Q 1259 2794 1537 2939 
Q 1816 3084 2150 3084 
Q 2853 3084 3261 2657 
Q 3669 2231 3669 1497 
Q 3669 778 3244 343 
Q 2819 -91 2113 -91 
Q 1303 -91 875 529 
Q 447 1150 447 2328 
Q 447 3434 972 4092 
Q 1497 4750 2381 4750 
Q 2619 4750 2861 4703 
Q 3103 4656 3366 4563 
z
" transform="scale(0.015625)"/>
       </defs>
       <use xlink:href="#DejaVuSans-36"/>
       <use xlink:href="#DejaVuSans-30" transform="translate(63.623047 0)"/>
      </g>
     </g>
    </g>
    <g id="xtick_8">
     <g id="line2d_8">
      <g>
       <use xlink:href="#mbe80bc9090" x="305.604519" y="172.3975" style="stroke: #000000; stroke-width: 0.8"/>
      </g>
     </g>
     <g id="text_8">
      <!-- 70 -->
      <g transform="translate(299.242019 186.995937) scale(0.1 -0.1)">
       <defs>
        <path id="DejaVuSans-37" d="M 525 4666 
L 3525 4666 
L 3525 4397 
L 1831 0 
L 1172 0 
L 2766 4134 
L 525 4134 
L 525 4666 
z
" transform="scale(0.015625)"/>
       </defs>
       <use xlink:href="#DejaVuSans-37"/>
       <use xlink:href="#DejaVuSans-30" transform="translate(63.623047 0)"/>
      </g>
     </g>
    </g>
    <g id="text_9">
     <!-- time $t$ [h] -->
     <g transform="translate(167.253 200.674062) scale(0.1 -0.1)">
      <defs>
       <path id="DejaVuSans-74" d="M 1172 4494 
L 1172 3500 
L 2356 3500 
L 2356 3053 
L 1172 3053 
L 1172 1153 
Q 1172 725 1289 603 
Q 1406 481 1766 481 
L 2356 481 
L 2356 0 
L 1766 0 
Q 1100 0 847 248 
Q 594 497 594 1153 
L 594 3053 
L 172 3053 
L 172 3500 
L 594 3500 
L 594 4494 
L 1172 4494 
z
" transform="scale(0.015625)"/>
       <path id="DejaVuSans-69" d="M 603 3500 
L 1178 3500 
L 1178 0 
L 603 0 
L 603 3500 
z
M 603 4863 
L 1178 4863 
L 1178 4134 
L 603 4134 
L 603 4863 
z
" transform="scale(0.015625)"/>
       <path id="DejaVuSans-6d" d="M 3328 2828 
Q 3544 3216 3844 3400 
Q 4144 3584 4550 3584 
Q 5097 3584 5394 3201 
Q 5691 2819 5691 2113 
L 5691 0 
L 5113 0 
L 5113 2094 
Q 5113 2597 4934 2840 
Q 4756 3084 4391 3084 
Q 3944 3084 3684 2787 
Q 3425 2491 3425 1978 
L 3425 0 
L 2847 0 
L 2847 2094 
Q 2847 2600 2669 2842 
Q 2491 3084 2119 3084 
Q 1678 3084 1418 2786 
Q 1159 2488 1159 1978 
L 1159 0 
L 581 0 
L 581 3500 
L 1159 3500 
L 1159 2956 
Q 1356 3278 1631 3431 
Q 1906 3584 2284 3584 
Q 2666 3584 2933 3390 
Q 3200 3197 3328 2828 
z
" transform="scale(0.015625)"/>
       <path id="DejaVuSans-65" d="M 3597 1894 
L 3597 1613 
L 953 1613 
Q 991 1019 1311 708 
Q 1631 397 2203 397 
Q 2534 397 2845 478 
Q 3156 559 3463 722 
L 3463 178 
Q 3153 47 2828 -22 
Q 2503 -91 2169 -91 
Q 1331 -91 842 396 
Q 353 884 353 1716 
Q 353 2575 817 3079 
Q 1281 3584 2069 3584 
Q 2775 3584 3186 3129 
Q 3597 2675 3597 1894 
z
M 3022 2063 
Q 3016 2534 2758 2815 
Q 2500 3097 2075 3097 
Q 1594 3097 1305 2825 
Q 1016 2553 972 2059 
L 3022 2063 
z
" transform="scale(0.015625)"/>
       <path id="DejaVuSans-20" transform="scale(0.015625)"/>
       <path id="DejaVuSans-Oblique-74" d="M 2706 3500 
L 2619 3053 
L 1472 3053 
L 1100 1153 
Q 1081 1047 1072 975 
Q 1063 903 1063 863 
Q 1063 663 1183 572 
Q 1303 481 1569 481 
L 2150 481 
L 2053 0 
L 1503 0 
Q 991 0 739 200 
Q 488 400 488 806 
Q 488 878 497 964 
Q 506 1050 525 1153 
L 897 3053 
L 409 3053 
L 500 3500 
L 978 3500 
L 1172 4494 
L 1747 4494 
L 1556 3500 
L 2706 3500 
z
" transform="scale(0.015625)"/>
       <path id="DejaVuSans-5b" d="M 550 4863 
L 1875 4863 
L 1875 4416 
L 1125 4416 
L 1125 -397 
L 1875 -397 
L 1875 -844 
L 550 -844 
L 550 4863 
z
" transform="scale(0.015625)"/>
       <path id="DejaVuSans-68" d="M 3513 2113 
L 3513 0 
L 2938 0 
L 2938 2094 
Q 2938 2591 2744 2837 
Q 2550 3084 2163 3084 
Q 1697 3084 1428 2787 
Q 1159 2491 1159 1978 
L 1159 0 
L 581 0 
L 581 4863 
L 1159 4863 
L 1159 2956 
Q 1366 3272 1645 3428 
Q 1925 3584 2291 3584 
Q 2894 3584 3203 3211 
Q 3513 2838 3513 2113 
z
" transform="scale(0.015625)"/>
       <path id="DejaVuSans-5d" d="M 1947 4863 
L 1947 -844 
L 622 -844 
L 622 -397 
L 1369 -397 
L 1369 4416 
L 622 4416 
L 622 4863 
L 1947 4863 
z
" transform="scale(0.015625)"/>
      </defs>
      <use xlink:href="#DejaVuSans-74" transform="translate(0 0.015625)"/>
      <use xlink:href="#DejaVuSans-69" transform="translate(39.208984 0.015625)"/>
      <use xlink:href="#DejaVuSans-6d" transform="translate(66.992188 0.015625)"/>
      <use xlink:href="#DejaVuSans-65" transform="translate(164.404297 0.015625)"/>
      <use xlink:href="#DejaVuSans-20" transform="translate(225.927734 0.015625)"/>
      <use xlink:href="#DejaVuSans-Oblique-74" transform="translate(257.714844 0.015625)"/>
      <use xlink:href="#DejaVuSans-20" transform="translate(296.923828 0.015625)"/>
      <use xlink:href="#DejaVuSans-5b" transform="translate(328.710938 0.015625)"/>
      <use xlink:href="#DejaVuSans-68" transform="translate(367.724609 0.015625)"/>
      <use xlink:href="#DejaVuSans-5d" transform="translate(431.103516 0.015625)"/>
     </g>
    </g>
   </g>
   <g id="matplotlib.axis_2">
    <g id="ytick_1">
     <g id="line2d_9">
      <defs>
       <path id="m051ee11ba8" d="M 0 0 
L -3.5 0 
" style="stroke: #000000; stroke-width: 0.8"/>
      </defs>
      <g>
       <use xlink:href="#m051ee11ba8" x="56.036" y="165.822266" style="stroke: #000000; stroke-width: 0.8"/>
      </g>
     </g>
     <g id="text_10">
      <!-- 0.0 -->
      <g transform="translate(33.132875 169.621485) scale(0.1 -0.1)">
       <defs>
        <path id="DejaVuSans-2e" d="M 684 794 
L 1344 794 
L 1344 0 
L 684 0 
L 684 794 
z
" transform="scale(0.015625)"/>
       </defs>
       <use xlink:href="#DejaVuSans-30"/>
       <use xlink:href="#DejaVuSans-2e" transform="translate(63.623047 0)"/>
       <use xlink:href="#DejaVuSans-30" transform="translate(95.410156 0)"/>
      </g>
     </g>
    </g>
    <g id="ytick_2">
     <g id="line2d_10">
      <g>
       <use xlink:href="#m051ee11ba8" x="56.036" y="124.504077" style="stroke: #000000; stroke-width: 0.8"/>
      </g>
     </g>
     <g id="text_11">
      <!-- 0.5 -->
      <g transform="translate(33.132875 128.303296) scale(0.1 -0.1)">
       <use xlink:href="#DejaVuSans-30"/>
       <use xlink:href="#DejaVuSans-2e" transform="translate(63.623047 0)"/>
       <use xlink:href="#DejaVuSans-35" transform="translate(95.410156 0)"/>
      </g>
     </g>
    </g>
    <g id="ytick_3">
     <g id="line2d_11">
      <g>
       <use xlink:href="#m051ee11ba8" x="56.036" y="83.185888" style="stroke: #000000; stroke-width: 0.8"/>
      </g>
     </g>
     <g id="text_12">
      <!-- 1.0 -->
      <g transform="translate(33.132875 86.985107) scale(0.1 -0.1)">
       <use xlink:href="#DejaVuSans-31"/>
       <use xlink:href="#DejaVuSans-2e" transform="translate(63.623047 0)"/>
       <use xlink:href="#DejaVuSans-30" transform="translate(95.410156 0)"/>
      </g>
     </g>
    </g>
    <g id="ytick_4">
     <g id="line2d_12">
      <g>
       <use xlink:href="#m051ee11ba8" x="56.036" y="41.8677" style="stroke: #000000; stroke-width: 0.8"/>
      </g>
     </g>
     <g id="text_13">
      <!-- 1.5 -->
      <g transform="translate(33.132875 45.666918) scale(0.1 -0.1)">
       <use xlink:href="#DejaVuSans-31"/>
       <use xlink:href="#DejaVuSans-2e" transform="translate(63.623047 0)"/>
       <use xlink:href="#DejaVuSans-35" transform="translate(95.410156 0)"/>
      </g>
     </g>
    </g>
    <g id="text_14">
     <!-- concentration $S_i$ [mM/l] -->
     <g transform="translate(27.053187 157.93875) rotate(-90) scale(0.1 -0.1)">
      <defs>
       <path id="DejaVuSans-63" d="M 3122 3366 
L 3122 2828 
Q 2878 2963 2633 3030 
Q 2388 3097 2138 3097 
Q 1578 3097 1268 2742 
Q 959 2388 959 1747 
Q 959 1106 1268 751 
Q 1578 397 2138 397 
Q 2388 397 2633 464 
Q 2878 531 3122 666 
L 3122 134 
Q 2881 22 2623 -34 
Q 2366 -91 2075 -91 
Q 1284 -91 818 406 
Q 353 903 353 1747 
Q 353 2603 823 3093 
Q 1294 3584 2113 3584 
Q 2378 3584 2631 3529 
Q 2884 3475 3122 3366 
z
" transform="scale(0.015625)"/>
       <path id="DejaVuSans-6f" d="M 1959 3097 
Q 1497 3097 1228 2736 
Q 959 2375 959 1747 
Q 959 1119 1226 758 
Q 1494 397 1959 397 
Q 2419 397 2687 759 
Q 2956 1122 2956 1747 
Q 2956 2369 2687 2733 
Q 2419 3097 1959 3097 
z
M 1959 3584 
Q 2709 3584 3137 3096 
Q 3566 2609 3566 1747 
Q 3566 888 3137 398 
Q 2709 -91 1959 -91 
Q 1206 -91 779 398 
Q 353 888 353 1747 
Q 353 2609 779 3096 
Q 1206 3584 1959 3584 
z
" transform="scale(0.015625)"/>
       <path id="DejaVuSans-6e" d="M 3513 2113 
L 3513 0 
L 2938 0 
L 2938 2094 
Q 2938 2591 2744 2837 
Q 2550 3084 2163 3084 
Q 1697 3084 1428 2787 
Q 1159 2491 1159 1978 
L 1159 0 
L 581 0 
L 581 3500 
L 1159 3500 
L 1159 2956 
Q 1366 3272 1645 3428 
Q 1925 3584 2291 3584 
Q 2894 3584 3203 3211 
Q 3513 2838 3513 2113 
z
" transform="scale(0.015625)"/>
       <path id="DejaVuSans-72" d="M 2631 2963 
Q 2534 3019 2420 3045 
Q 2306 3072 2169 3072 
Q 1681 3072 1420 2755 
Q 1159 2438 1159 1844 
L 1159 0 
L 581 0 
L 581 3500 
L 1159 3500 
L 1159 2956 
Q 1341 3275 1631 3429 
Q 1922 3584 2338 3584 
Q 2397 3584 2469 3576 
Q 2541 3569 2628 3553 
L 2631 2963 
z
" transform="scale(0.015625)"/>
       <path id="DejaVuSans-61" d="M 2194 1759 
Q 1497 1759 1228 1600 
Q 959 1441 959 1056 
Q 959 750 1161 570 
Q 1363 391 1709 391 
Q 2188 391 2477 730 
Q 2766 1069 2766 1631 
L 2766 1759 
L 2194 1759 
z
M 3341 1997 
L 3341 0 
L 2766 0 
L 2766 531 
Q 2569 213 2275 61 
Q 1981 -91 1556 -91 
Q 1019 -91 701 211 
Q 384 513 384 1019 
Q 384 1609 779 1909 
Q 1175 2209 1959 2209 
L 2766 2209 
L 2766 2266 
Q 2766 2663 2505 2880 
Q 2244 3097 1772 3097 
Q 1472 3097 1187 3025 
Q 903 2953 641 2809 
L 641 3341 
Q 956 3463 1253 3523 
Q 1550 3584 1831 3584 
Q 2591 3584 2966 3190 
Q 3341 2797 3341 1997 
z
" transform="scale(0.015625)"/>
       <path id="DejaVuSans-Oblique-53" d="M 3859 4513 
L 3738 3897 
Q 3422 4066 3111 4152 
Q 2800 4238 2509 4238 
Q 1944 4238 1609 3991 
Q 1275 3744 1275 3334 
Q 1275 3109 1398 2989 
Q 1522 2869 2034 2731 
L 2413 2638 
Q 3053 2472 3303 2217 
Q 3553 1963 3553 1503 
Q 3553 797 2998 353 
Q 2444 -91 1538 -91 
Q 1166 -91 791 -17 
Q 416 56 38 206 
L 166 856 
Q 513 641 861 531 
Q 1209 422 1556 422 
Q 2147 422 2503 684 
Q 2859 947 2859 1369 
Q 2859 1650 2717 1795 
Q 2575 1941 2106 2059 
L 1728 2156 
Q 1081 2325 845 2545 
Q 609 2766 609 3163 
Q 609 3859 1145 4304 
Q 1681 4750 2541 4750 
Q 2875 4750 3203 4690 
Q 3531 4631 3859 4513 
z
" transform="scale(0.015625)"/>
       <path id="DejaVuSans-Oblique-69" d="M 1172 4863 
L 1747 4863 
L 1606 4134 
L 1031 4134 
L 1172 4863 
z
M 909 3500 
L 1484 3500 
L 800 0 
L 225 0 
L 909 3500 
z
" transform="scale(0.015625)"/>
       <path id="DejaVuSans-4d" d="M 628 4666 
L 1569 4666 
L 2759 1491 
L 3956 4666 
L 4897 4666 
L 4897 0 
L 4281 0 
L 4281 4097 
L 3078 897 
L 2444 897 
L 1241 4097 
L 1241 0 
L 628 0 
L 628 4666 
z
" transform="scale(0.015625)"/>
       <path id="DejaVuSans-2f" d="M 1625 4666 
L 2156 4666 
L 531 -594 
L 0 -594 
L 1625 4666 
z
" transform="scale(0.015625)"/>
       <path id="DejaVuSans-6c" d="M 603 4863 
L 1178 4863 
L 1178 0 
L 603 0 
L 603 4863 
z
" transform="scale(0.015625)"/>
      </defs>
      <use xlink:href="#DejaVuSans-63" transform="translate(0 0.015625)"/>
      <use xlink:href="#DejaVuSans-6f" transform="translate(54.980469 0.015625)"/>
      <use xlink:href="#DejaVuSans-6e" transform="translate(116.162109 0.015625)"/>
      <use xlink:href="#DejaVuSans-63" transform="translate(179.541016 0.015625)"/>
      <use xlink:href="#DejaVuSans-65" transform="translate(234.521484 0.015625)"/>
      <use xlink:href="#DejaVuSans-6e" transform="translate(296.044922 0.015625)"/>
      <use xlink:href="#DejaVuSans-74" transform="translate(359.423828 0.015625)"/>
      <use xlink:href="#DejaVuSans-72" transform="translate(398.632812 0.015625)"/>
      <use xlink:href="#DejaVuSans-61" transform="translate(439.746094 0.015625)"/>
      <use xlink:href="#DejaVuSans-74" transform="translate(501.025391 0.015625)"/>
      <use xlink:href="#DejaVuSans-69" transform="translate(540.234375 0.015625)"/>
      <use xlink:href="#DejaVuSans-6f" transform="translate(568.017578 0.015625)"/>
      <use xlink:href="#DejaVuSans-6e" transform="translate(629.199219 0.015625)"/>
      <use xlink:href="#DejaVuSans-20" transform="translate(692.578125 0.015625)"/>
      <use xlink:href="#DejaVuSans-Oblique-53" transform="translate(724.365234 0.015625)"/>
      <use xlink:href="#DejaVuSans-Oblique-69" transform="translate(787.841797 -16.390625) scale(0.7)"/>
      <use xlink:href="#DejaVuSans-20" transform="translate(810.024414 0.015625)"/>
      <use xlink:href="#DejaVuSans-5b" transform="translate(841.811523 0.015625)"/>
      <use xlink:href="#DejaVuSans-6d" transform="translate(880.825195 0.015625)"/>
      <use xlink:href="#DejaVuSans-4d" transform="translate(978.237305 0.015625)"/>
      <use xlink:href="#DejaVuSans-2f" transform="translate(1064.516602 0.015625)"/>
      <use xlink:href="#DejaVuSans-6c" transform="translate(1098.208008 0.015625)"/>
      <use xlink:href="#DejaVuSans-5d" transform="translate(1125.991211 0.015625)"/>
     </g>
    </g>
   </g>
   <g id="line2d_13">
    <path d="M 56.036 56.974662 
L 64.949161 56.594535 
L 73.862323 56.917767 
L 82.775484 58.489428 
L 91.688646 58.706266 
L 100.601807 59.513211 
L 109.514968 60.679788 
L 118.42813 63.750763 
L 127.341291 75.55037 
L 136.254452 70.393901 
L 145.167614 77.017496 
L 154.080775 85.880247 
L 159.428672 91.520387 
L 164.776569 91.697063 
L 170.124466 99.328409 
L 175.472362 105.736158 
L 180.820259 114.67543 
L 186.168156 122.04391 
L 191.516053 129.399828 
L 196.86395 138.911069 
L 202.211847 145.655147 
L 207.559743 153.470855 
L 212.90764 159.815965 
L 218.255537 163.542989 
L 223.603434 165.822266 
L 232.516595 165.822266 
L 239.647124 165.822266 
L 312.735048 165.822266 
" clip-path="url(#p0e2c65fdf6)" style="fill: none; stroke: #eb8032; stroke-width: 1.5; stroke-linecap: square"/>
    <defs>
     <path id="mea98b65e04" d="M -3 3 
L 3 -3 
M -3 -3 
L 3 3 
" style="stroke: #eb8032"/>
    </defs>
    <g clip-path="url(#p0e2c65fdf6)">
     <use xlink:href="#mea98b65e04" x="56.036" y="56.974662" style="fill: #eb8032; stroke: #eb8032"/>
     <use xlink:href="#mea98b65e04" x="64.949161" y="56.594535" style="fill: #eb8032; stroke: #eb8032"/>
     <use xlink:href="#mea98b65e04" x="73.862323" y="56.917767" style="fill: #eb8032; stroke: #eb8032"/>
     <use xlink:href="#mea98b65e04" x="82.775484" y="58.489428" style="fill: #eb8032; stroke: #eb8032"/>
     <use xlink:href="#mea98b65e04" x="91.688646" y="58.706266" style="fill: #eb8032; stroke: #eb8032"/>
     <use xlink:href="#mea98b65e04" x="100.601807" y="59.513211" style="fill: #eb8032; stroke: #eb8032"/>
     <use xlink:href="#mea98b65e04" x="109.514968" y="60.679788" style="fill: #eb8032; stroke: #eb8032"/>
     <use xlink:href="#mea98b65e04" x="118.42813" y="63.750763" style="fill: #eb8032; stroke: #eb8032"/>
     <use xlink:href="#mea98b65e04" x="127.341291" y="75.55037" style="fill: #eb8032; stroke: #eb8032"/>
     <use xlink:href="#mea98b65e04" x="136.254452" y="70.393901" style="fill: #eb8032; stroke: #eb8032"/>
     <use xlink:href="#mea98b65e04" x="145.167614" y="77.017496" style="fill: #eb8032; stroke: #eb8032"/>
     <use xlink:href="#mea98b65e04" x="154.080775" y="85.880247" style="fill: #eb8032; stroke: #eb8032"/>
     <use xlink:href="#mea98b65e04" x="159.428672" y="91.520387" style="fill: #eb8032; stroke: #eb8032"/>
     <use xlink:href="#mea98b65e04" x="164.776569" y="91.697063" style="fill: #eb8032; stroke: #eb8032"/>
     <use xlink:href="#mea98b65e04" x="170.124466" y="99.328409" style="fill: #eb8032; stroke: #eb8032"/>
     <use xlink:href="#mea98b65e04" x="175.472362" y="105.736158" style="fill: #eb8032; stroke: #eb8032"/>
     <use xlink:href="#mea98b65e04" x="180.820259" y="114.67543" style="fill: #eb8032; stroke: #eb8032"/>
     <use xlink:href="#mea98b65e04" x="186.168156" y="122.04391" style="fill: #eb8032; stroke: #eb8032"/>
     <use xlink:href="#mea98b65e04" x="191.516053" y="129.399828" style="fill: #eb8032; stroke: #eb8032"/>
     <use xlink:href="#mea98b65e04" x="196.86395" y="138.911069" style="fill: #eb8032; stroke: #eb8032"/>
     <use xlink:href="#mea98b65e04" x="202.211847" y="145.655147" style="fill: #eb8032; stroke: #eb8032"/>
     <use xlink:href="#mea98b65e04" x="207.559743" y="153.470855" style="fill: #eb8032; stroke: #eb8032"/>
     <use xlink:href="#mea98b65e04" x="212.90764" y="159.815965" style="fill: #eb8032; stroke: #eb8032"/>
     <use xlink:href="#mea98b65e04" x="218.255537" y="163.542989" style="fill: #eb8032; stroke: #eb8032"/>
     <use xlink:href="#mea98b65e04" x="223.603434" y="165.822266" style="fill: #eb8032; stroke: #eb8032"/>
     <use xlink:href="#mea98b65e04" x="232.516595" y="165.822266" style="fill: #eb8032; stroke: #eb8032"/>
     <use xlink:href="#mea98b65e04" x="239.647124" y="165.822266" style="fill: #eb8032; stroke: #eb8032"/>
     <use xlink:href="#mea98b65e04" x="312.735048" y="165.822266" style="fill: #eb8032; stroke: #eb8032"/>
    </g>
   </g>
   <g id="line2d_14">
    <path d="M 56.036 91.824778 
L 64.949161 91.263181 
L 73.862323 91.490555 
L 82.775484 92.45802 
L 91.688646 92.390011 
L 100.601807 93.008585 
L 109.514968 94.900132 
L 118.42813 97.180979 
L 127.341291 99.237344 
L 136.254452 102.566474 
L 145.167614 107.753518 
L 154.080775 113.876832 
L 159.428672 117.767188 
L 164.776569 122.026721 
L 170.124466 126.912804 
L 175.472362 131.282781 
L 180.820259 136.788388 
L 186.168156 140.95198 
L 191.516053 144.891835 
L 196.86395 149.586366 
L 202.211847 153.621914 
L 207.559743 157.681922 
L 212.90764 161.400311 
L 218.255537 165.822266 
L 223.603434 165.822266 
L 232.516595 165.822266 
L 239.647124 165.822266 
L 312.735048 165.822266 
" clip-path="url(#p0e2c65fdf6)" style="fill: none; stroke: #eb8032; stroke-width: 1.5; stroke-linecap: square"/>
    <g clip-path="url(#p0e2c65fdf6)">
     <use xlink:href="#mea98b65e04" x="56.036" y="91.824778" style="fill: #eb8032; stroke: #eb8032"/>
     <use xlink:href="#mea98b65e04" x="64.949161" y="91.263181" style="fill: #eb8032; stroke: #eb8032"/>
     <use xlink:href="#mea98b65e04" x="73.862323" y="91.490555" style="fill: #eb8032; stroke: #eb8032"/>
     <use xlink:href="#mea98b65e04" x="82.775484" y="92.45802" style="fill: #eb8032; stroke: #eb8032"/>
     <use xlink:href="#mea98b65e04" x="91.688646" y="92.390011" style="fill: #eb8032; stroke: #eb8032"/>
     <use xlink:href="#mea98b65e04" x="100.601807" y="93.008585" style="fill: #eb8032; stroke: #eb8032"/>
     <use xlink:href="#mea98b65e04" x="109.514968" y="94.900132" style="fill: #eb8032; stroke: #eb8032"/>
     <use xlink:href="#mea98b65e04" x="118.42813" y="97.180979" style="fill: #eb8032; stroke: #eb8032"/>
     <use xlink:href="#mea98b65e04" x="127.341291" y="99.237344" style="fill: #eb8032; stroke: #eb8032"/>
     <use xlink:href="#mea98b65e04" x="136.254452" y="102.566474" style="fill: #eb8032; stroke: #eb8032"/>
     <use xlink:href="#mea98b65e04" x="145.167614" y="107.753518" style="fill: #eb8032; stroke: #eb8032"/>
     <use xlink:href="#mea98b65e04" x="154.080775" y="113.876832" style="fill: #eb8032; stroke: #eb8032"/>
     <use xlink:href="#mea98b65e04" x="159.428672" y="117.767188" style="fill: #eb8032; stroke: #eb8032"/>
     <use xlink:href="#mea98b65e04" x="164.776569" y="122.026721" style="fill: #eb8032; stroke: #eb8032"/>
     <use xlink:href="#mea98b65e04" x="170.124466" y="126.912804" style="fill: #eb8032; stroke: #eb8032"/>
     <use xlink:href="#mea98b65e04" x="175.472362" y="131.282781" style="fill: #eb8032; stroke: #eb8032"/>
     <use xlink:href="#mea98b65e04" x="180.820259" y="136.788388" style="fill: #eb8032; stroke: #eb8032"/>
     <use xlink:href="#mea98b65e04" x="186.168156" y="140.95198" style="fill: #eb8032; stroke: #eb8032"/>
     <use xlink:href="#mea98b65e04" x="191.516053" y="144.891835" style="fill: #eb8032; stroke: #eb8032"/>
     <use xlink:href="#mea98b65e04" x="196.86395" y="149.586366" style="fill: #eb8032; stroke: #eb8032"/>
     <use xlink:href="#mea98b65e04" x="202.211847" y="153.621914" style="fill: #eb8032; stroke: #eb8032"/>
     <use xlink:href="#mea98b65e04" x="207.559743" y="157.681922" style="fill: #eb8032; stroke: #eb8032"/>
     <use xlink:href="#mea98b65e04" x="212.90764" y="161.400311" style="fill: #eb8032; stroke: #eb8032"/>
     <use xlink:href="#mea98b65e04" x="218.255537" y="165.822266" style="fill: #eb8032; stroke: #eb8032"/>
     <use xlink:href="#mea98b65e04" x="223.603434" y="165.822266" style="fill: #eb8032; stroke: #eb8032"/>
     <use xlink:href="#mea98b65e04" x="232.516595" y="165.822266" style="fill: #eb8032; stroke: #eb8032"/>
     <use xlink:href="#mea98b65e04" x="239.647124" y="165.822266" style="fill: #eb8032; stroke: #eb8032"/>
     <use xlink:href="#mea98b65e04" x="312.735048" y="165.822266" style="fill: #eb8032; stroke: #eb8032"/>
    </g>
   </g>
   <g id="line2d_15">
    <path d="M 56.036 49.909748 
L 64.949161 49.098176 
L 73.862323 48.571824 
L 82.775484 49.775298 
L 91.688646 49.467767 
L 100.601807 50.247772 
L 109.514968 53.279618 
L 118.42813 55.743711 
L 127.341291 55.650208 
L 136.254452 62.261407 
L 145.167614 69.256122 
L 154.080775 77.925339 
L 159.428672 83.644809 
L 164.776569 89.160168 
L 170.124466 96.140876 
L 175.472362 101.391798 
L 180.820259 110.000567 
L 186.168156 115.750447 
L 191.516053 121.656221 
L 196.86395 127.463286 
L 202.211847 134.819411 
L 207.559743 141.272362 
L 212.90764 149.297263 
L 218.255537 156.365772 
L 223.603434 163.377303 
L 232.516595 165.822266 
L 239.647124 165.822266 
L 312.735048 165.822266 
" clip-path="url(#p0e2c65fdf6)" style="fill: none; stroke: #eb8032; stroke-width: 1.5; stroke-linecap: square"/>
    <g clip-path="url(#p0e2c65fdf6)">
     <use xlink:href="#mea98b65e04" x="56.036" y="49.909748" style="fill: #eb8032; stroke: #eb8032"/>
     <use xlink:href="#mea98b65e04" x="64.949161" y="49.098176" style="fill: #eb8032; stroke: #eb8032"/>
     <use xlink:href="#mea98b65e04" x="73.862323" y="48.571824" style="fill: #eb8032; stroke: #eb8032"/>
     <use xlink:href="#mea98b65e04" x="82.775484" y="49.775298" style="fill: #eb8032; stroke: #eb8032"/>
     <use xlink:href="#mea98b65e04" x="91.688646" y="49.467767" style="fill: #eb8032; stroke: #eb8032"/>
     <use xlink:href="#mea98b65e04" x="100.601807" y="50.247772" style="fill: #eb8032; stroke: #eb8032"/>
     <use xlink:href="#mea98b65e04" x="109.514968" y="53.279618" style="fill: #eb8032; stroke: #eb8032"/>
     <use xlink:href="#mea98b65e04" x="118.42813" y="55.743711" style="fill: #eb8032; stroke: #eb8032"/>
     <use xlink:href="#mea98b65e04" x="127.341291" y="55.650208" style="fill: #eb8032; stroke: #eb8032"/>
     <use xlink:href="#mea98b65e04" x="136.254452" y="62.261407" style="fill: #eb8032; stroke: #eb8032"/>
     <use xlink:href="#mea98b65e04" x="145.167614" y="69.256122" style="fill: #eb8032; stroke: #eb8032"/>
     <use xlink:href="#mea98b65e04" x="154.080775" y="77.925339" style="fill: #eb8032; stroke: #eb8032"/>
     <use xlink:href="#mea98b65e04" x="159.428672" y="83.644809" style="fill: #eb8032; stroke: #eb8032"/>
     <use xlink:href="#mea98b65e04" x="164.776569" y="89.160168" style="fill: #eb8032; stroke: #eb8032"/>
     <use xlink:href="#mea98b65e04" x="170.124466" y="96.140876" style="fill: #eb8032; stroke: #eb8032"/>
     <use xlink:href="#mea98b65e04" x="175.472362" y="101.391798" style="fill: #eb8032; stroke: #eb8032"/>
     <use xlink:href="#mea98b65e04" x="180.820259" y="110.000567" style="fill: #eb8032; stroke: #eb8032"/>
     <use xlink:href="#mea98b65e04" x="186.168156" y="115.750447" style="fill: #eb8032; stroke: #eb8032"/>
     <use xlink:href="#mea98b65e04" x="191.516053" y="121.656221" style="fill: #eb8032; stroke: #eb8032"/>
     <use xlink:href="#mea98b65e04" x="196.86395" y="127.463286" style="fill: #eb8032; stroke: #eb8032"/>
     <use xlink:href="#mea98b65e04" x="202.211847" y="134.819411" style="fill: #eb8032; stroke: #eb8032"/>
     <use xlink:href="#mea98b65e04" x="207.559743" y="141.272362" style="fill: #eb8032; stroke: #eb8032"/>
     <use xlink:href="#mea98b65e04" x="212.90764" y="149.297263" style="fill: #eb8032; stroke: #eb8032"/>
     <use xlink:href="#mea98b65e04" x="218.255537" y="156.365772" style="fill: #eb8032; stroke: #eb8032"/>
     <use xlink:href="#mea98b65e04" x="223.603434" y="163.377303" style="fill: #eb8032; stroke: #eb8032"/>
     <use xlink:href="#mea98b65e04" x="232.516595" y="165.822266" style="fill: #eb8032; stroke: #eb8032"/>
     <use xlink:href="#mea98b65e04" x="239.647124" y="165.822266" style="fill: #eb8032; stroke: #eb8032"/>
     <use xlink:href="#mea98b65e04" x="312.735048" y="165.822266" style="fill: #eb8032; stroke: #eb8032"/>
    </g>
   </g>
   <g id="line2d_16">
    <path d="M 56.036 36.054024 
L 64.949161 34.538597 
L 73.862323 34.317586 
L 82.775484 36.240906 
L 91.688646 35.002269 
L 100.601807 35.830286 
L 109.514968 39.93219 
L 118.42813 44.158793 
L 127.341291 55.855642 
L 136.254452 48.93501 
L 145.167614 54.489125 
L 154.080775 62.388047 
L 159.428672 67.481175 
L 164.776569 71.495113 
L 170.124466 78.324556 
L 175.472362 83.668567 
L 180.820259 91.225003 
L 186.168156 97.751459 
L 191.516053 102.986019 
L 196.86395 115.262562 
L 202.211847 123.892609 
L 207.559743 135.471866 
L 212.90764 148.336367 
L 218.255537 159.568014 
L 223.603434 165.822266 
L 232.516595 165.822266 
L 239.647124 165.822266 
L 312.735048 165.822266 
" clip-path="url(#p0e2c65fdf6)" style="fill: none; stroke: #f77189; stroke-width: 1.5; stroke-linecap: square"/>
    <defs>
     <path id="m1d65a16d57" d="M -3 3 
L 3 -3 
M -3 -3 
L 3 3 
" style="stroke: #f77189"/>
    </defs>
    <g clip-path="url(#p0e2c65fdf6)">
     <use xlink:href="#m1d65a16d57" x="56.036" y="36.054024" style="fill: #f77189; stroke: #f77189"/>
     <use xlink:href="#m1d65a16d57" x="64.949161" y="34.538597" style="fill: #f77189; stroke: #f77189"/>
     <use xlink:href="#m1d65a16d57" x="73.862323" y="34.317586" style="fill: #f77189; stroke: #f77189"/>
     <use xlink:href="#m1d65a16d57" x="82.775484" y="36.240906" style="fill: #f77189; stroke: #f77189"/>
     <use xlink:href="#m1d65a16d57" x="91.688646" y="35.002269" style="fill: #f77189; stroke: #f77189"/>
     <use xlink:href="#m1d65a16d57" x="100.601807" y="35.830286" style="fill: #f77189; stroke: #f77189"/>
     <use xlink:href="#m1d65a16d57" x="109.514968" y="39.93219" style="fill: #f77189; stroke: #f77189"/>
     <use xlink:href="#m1d65a16d57" x="118.42813" y="44.158793" style="fill: #f77189; stroke: #f77189"/>
     <use xlink:href="#m1d65a16d57" x="127.341291" y="55.855642" style="fill: #f77189; stroke: #f77189"/>
     <use xlink:href="#m1d65a16d57" x="136.254452" y="48.93501" style="fill: #f77189; stroke: #f77189"/>
     <use xlink:href="#m1d65a16d57" x="145.167614" y="54.489125" style="fill: #f77189; stroke: #f77189"/>
     <use xlink:href="#m1d65a16d57" x="154.080775" y="62.388047" style="fill: #f77189; stroke: #f77189"/>
     <use xlink:href="#m1d65a16d57" x="159.428672" y="67.481175" style="fill: #f77189; stroke: #f77189"/>
     <use xlink:href="#m1d65a16d57" x="164.776569" y="71.495113" style="fill: #f77189; stroke: #f77189"/>
     <use xlink:href="#m1d65a16d57" x="170.124466" y="78.324556" style="fill: #f77189; stroke: #f77189"/>
     <use xlink:href="#m1d65a16d57" x="175.472362" y="83.668567" style="fill: #f77189; stroke: #f77189"/>
     <use xlink:href="#m1d65a16d57" x="180.820259" y="91.225003" style="fill: #f77189; stroke: #f77189"/>
     <use xlink:href="#m1d65a16d57" x="186.168156" y="97.751459" style="fill: #f77189; stroke: #f77189"/>
     <use xlink:href="#m1d65a16d57" x="191.516053" y="102.986019" style="fill: #f77189; stroke: #f77189"/>
     <use xlink:href="#m1d65a16d57" x="196.86395" y="115.262562" style="fill: #f77189; stroke: #f77189"/>
     <use xlink:href="#m1d65a16d57" x="202.211847" y="123.892609" style="fill: #f77189; stroke: #f77189"/>
     <use xlink:href="#m1d65a16d57" x="207.559743" y="135.471866" style="fill: #f77189; stroke: #f77189"/>
     <use xlink:href="#m1d65a16d57" x="212.90764" y="148.336367" style="fill: #f77189; stroke: #f77189"/>
     <use xlink:href="#m1d65a16d57" x="218.255537" y="159.568014" style="fill: #f77189; stroke: #f77189"/>
     <use xlink:href="#m1d65a16d57" x="223.603434" y="165.822266" style="fill: #f77189; stroke: #f77189"/>
     <use xlink:href="#m1d65a16d57" x="232.516595" y="165.822266" style="fill: #f77189; stroke: #f77189"/>
     <use xlink:href="#m1d65a16d57" x="239.647124" y="165.822266" style="fill: #f77189; stroke: #f77189"/>
     <use xlink:href="#m1d65a16d57" x="312.735048" y="165.822266" style="fill: #f77189; stroke: #f77189"/>
    </g>
   </g>
   <g id="line2d_17">
    <path d="M 56.036 49.126479 
L 64.949161 48.464396 
L 73.862323 48.776349 
L 82.775484 50.502168 
L 91.688646 50.820483 
L 100.601807 52.463708 
L 109.514968 55.88882 
L 118.42813 60.451547 
L 127.341291 65.550004 
L 136.254452 72.785191 
L 145.167614 84.486296 
L 154.080775 97.322865 
L 159.428672 105.733348 
L 164.776569 114.770462 
L 170.124466 123.833979 
L 175.472362 131.780706 
L 180.820259 140.405052 
L 186.168156 147.093847 
L 191.516053 152.429058 
L 196.86395 157.696879 
L 202.211847 161.511291 
L 207.559743 165.822266 
L 212.90764 165.822266 
L 218.255537 165.822266 
L 223.603434 165.822266 
L 232.516595 165.822266 
L 239.647124 165.822266 
L 312.735048 165.822266 
" clip-path="url(#p0e2c65fdf6)" style="fill: none; stroke: #c19632; stroke-width: 1.5; stroke-linecap: square"/>
    <defs>
     <path id="mc14308a840" d="M -3 3 
L 3 -3 
M -3 -3 
L 3 3 
" style="stroke: #c19632"/>
    </defs>
    <g clip-path="url(#p0e2c65fdf6)">
     <use xlink:href="#mc14308a840" x="56.036" y="49.126479" style="fill: #c19632; stroke: #c19632"/>
     <use xlink:href="#mc14308a840" x="64.949161" y="48.464396" style="fill: #c19632; stroke: #c19632"/>
     <use xlink:href="#mc14308a840" x="73.862323" y="48.776349" style="fill: #c19632; stroke: #c19632"/>
     <use xlink:href="#mc14308a840" x="82.775484" y="50.502168" style="fill: #c19632; stroke: #c19632"/>
     <use xlink:href="#mc14308a840" x="91.688646" y="50.820483" style="fill: #c19632; stroke: #c19632"/>
     <use xlink:href="#mc14308a840" x="100.601807" y="52.463708" style="fill: #c19632; stroke: #c19632"/>
     <use xlink:href="#mc14308a840" x="109.514968" y="55.88882" style="fill: #c19632; stroke: #c19632"/>
     <use xlink:href="#mc14308a840" x="118.42813" y="60.451547" style="fill: #c19632; stroke: #c19632"/>
     <use xlink:href="#mc14308a840" x="127.341291" y="65.550004" style="fill: #c19632; stroke: #c19632"/>
     <use xlink:href="#mc14308a840" x="136.254452" y="72.785191" style="fill: #c19632; stroke: #c19632"/>
     <use xlink:href="#mc14308a840" x="145.167614" y="84.486296" style="fill: #c19632; stroke: #c19632"/>
     <use xlink:href="#mc14308a840" x="154.080775" y="97.322865" style="fill: #c19632; stroke: #c19632"/>
     <use xlink:href="#mc14308a840" x="159.428672" y="105.733348" style="fill: #c19632; stroke: #c19632"/>
     <use xlink:href="#mc14308a840" x="164.776569" y="114.770462" style="fill: #c19632; stroke: #c19632"/>
     <use xlink:href="#mc14308a840" x="170.124466" y="123.833979" style="fill: #c19632; stroke: #c19632"/>
     <use xlink:href="#mc14308a840" x="175.472362" y="131.780706" style="fill: #c19632; stroke: #c19632"/>
     <use xlink:href="#mc14308a840" x="180.820259" y="140.405052" style="fill: #c19632; stroke: #c19632"/>
     <use xlink:href="#mc14308a840" x="186.168156" y="147.093847" style="fill: #c19632; stroke: #c19632"/>
     <use xlink:href="#mc14308a840" x="191.516053" y="152.429058" style="fill: #c19632; stroke: #c19632"/>
     <use xlink:href="#mc14308a840" x="196.86395" y="157.696879" style="fill: #c19632; stroke: #c19632"/>
     <use xlink:href="#mc14308a840" x="202.211847" y="161.511291" style="fill: #c19632; stroke: #c19632"/>
     <use xlink:href="#mc14308a840" x="207.559743" y="165.822266" style="fill: #c19632; stroke: #c19632"/>
     <use xlink:href="#mc14308a840" x="212.90764" y="165.822266" style="fill: #c19632; stroke: #c19632"/>
     <use xlink:href="#mc14308a840" x="218.255537" y="165.822266" style="fill: #c19632; stroke: #c19632"/>
     <use xlink:href="#mc14308a840" x="223.603434" y="165.822266" style="fill: #c19632; stroke: #c19632"/>
     <use xlink:href="#mc14308a840" x="232.516595" y="165.822266" style="fill: #c19632; stroke: #c19632"/>
     <use xlink:href="#mc14308a840" x="239.647124" y="165.822266" style="fill: #c19632; stroke: #c19632"/>
     <use xlink:href="#mc14308a840" x="312.735048" y="165.822266" style="fill: #c19632; stroke: #c19632"/>
    </g>
   </g>
   <g id="line2d_18">
    <path d="M 56.036 52.880939 
L 64.949161 50.454817 
L 73.862323 48.830145 
L 82.775484 51.857776 
L 91.688646 49.914128 
L 100.601807 52.510315 
L 109.514968 57.89143 
L 118.42813 62.880726 
L 127.341291 67.148729 
L 136.254452 73.823393 
L 145.167614 83.446234 
L 154.080775 97.555321 
L 159.428672 107.207498 
L 164.776569 115.542617 
L 170.124466 125.07745 
L 175.472362 133.115903 
L 180.820259 142.019477 
L 186.168156 149.552279 
L 191.516053 155.138085 
L 196.86395 159.923062 
L 202.211847 165.822266 
L 207.559743 165.822266 
L 212.90764 165.822266 
L 218.255537 165.822266 
L 223.603434 165.822266 
L 232.516595 165.822266 
L 239.647124 165.822266 
L 312.735048 165.822266 
" clip-path="url(#p0e2c65fdf6)" style="fill: none; stroke: #c19632; stroke-width: 1.5; stroke-linecap: square"/>
    <g clip-path="url(#p0e2c65fdf6)">
     <use xlink:href="#mc14308a840" x="56.036" y="52.880939" style="fill: #c19632; stroke: #c19632"/>
     <use xlink:href="#mc14308a840" x="64.949161" y="50.454817" style="fill: #c19632; stroke: #c19632"/>
     <use xlink:href="#mc14308a840" x="73.862323" y="48.830145" style="fill: #c19632; stroke: #c19632"/>
     <use xlink:href="#mc14308a840" x="82.775484" y="51.857776" style="fill: #c19632; stroke: #c19632"/>
     <use xlink:href="#mc14308a840" x="91.688646" y="49.914128" style="fill: #c19632; stroke: #c19632"/>
     <use xlink:href="#mc14308a840" x="100.601807" y="52.510315" style="fill: #c19632; stroke: #c19632"/>
     <use xlink:href="#mc14308a840" x="109.514968" y="57.89143" style="fill: #c19632; stroke: #c19632"/>
     <use xlink:href="#mc14308a840" x="118.42813" y="62.880726" style="fill: #c19632; stroke: #c19632"/>
     <use xlink:href="#mc14308a840" x="127.341291" y="67.148729" style="fill: #c19632; stroke: #c19632"/>
     <use xlink:href="#mc14308a840" x="136.254452" y="73.823393" style="fill: #c19632; stroke: #c19632"/>
     <use xlink:href="#mc14308a840" x="145.167614" y="83.446234" style="fill: #c19632; stroke: #c19632"/>
     <use xlink:href="#mc14308a840" x="154.080775" y="97.555321" style="fill: #c19632; stroke: #c19632"/>
     <use xlink:href="#mc14308a840" x="159.428672" y="107.207498" style="fill: #c19632; stroke: #c19632"/>
     <use xlink:href="#mc14308a840" x="164.776569" y="115.542617" style="fill: #c19632; stroke: #c19632"/>
     <use xlink:href="#mc14308a840" x="170.124466" y="125.07745" style="fill: #c19632; stroke: #c19632"/>
     <use xlink:href="#mc14308a840" x="175.472362" y="133.115903" style="fill: #c19632; stroke: #c19632"/>
     <use xlink:href="#mc14308a840" x="180.820259" y="142.019477" style="fill: #c19632; stroke: #c19632"/>
     <use xlink:href="#mc14308a840" x="186.168156" y="149.552279" style="fill: #c19632; stroke: #c19632"/>
     <use xlink:href="#mc14308a840" x="191.516053" y="155.138085" style="fill: #c19632; stroke: #c19632"/>
     <use xlink:href="#mc14308a840" x="196.86395" y="159.923062" style="fill: #c19632; stroke: #c19632"/>
     <use xlink:href="#mc14308a840" x="202.211847" y="165.822266" style="fill: #c19632; stroke: #c19632"/>
     <use xlink:href="#mc14308a840" x="207.559743" y="165.822266" style="fill: #c19632; stroke: #c19632"/>
     <use xlink:href="#mc14308a840" x="212.90764" y="165.822266" style="fill: #c19632; stroke: #c19632"/>
     <use xlink:href="#mc14308a840" x="218.255537" y="165.822266" style="fill: #c19632; stroke: #c19632"/>
     <use xlink:href="#mc14308a840" x="223.603434" y="165.822266" style="fill: #c19632; stroke: #c19632"/>
     <use xlink:href="#mc14308a840" x="232.516595" y="165.822266" style="fill: #c19632; stroke: #c19632"/>
     <use xlink:href="#mc14308a840" x="239.647124" y="165.822266" style="fill: #c19632; stroke: #c19632"/>
     <use xlink:href="#mc14308a840" x="312.735048" y="165.822266" style="fill: #c19632; stroke: #c19632"/>
    </g>
   </g>
   <g id="line2d_19">
    <path d="M 56.036 52.136344 
L 64.949161 51.175035 
L 73.862323 51.515331 
L 82.775484 52.832968 
L 91.688646 52.796856 
L 100.601807 54.730548 
L 109.514968 59.55238 
L 118.42813 63.776091 
L 127.341291 68.729356 
L 136.254452 75.023067 
L 145.167614 84.738915 
L 154.080775 95.653652 
L 159.428672 103.621369 
L 164.776569 110.090268 
L 170.124466 119.174279 
L 175.472362 126.107925 
L 180.820259 135.574831 
L 186.168156 142.217846 
L 191.516053 148.381156 
L 196.86395 156.211738 
L 202.211847 160.029208 
L 207.559743 165.822266 
L 212.90764 165.822266 
L 218.255537 165.822266 
L 223.603434 165.822266 
L 232.516595 165.822266 
L 239.647124 165.822266 
L 312.735048 165.822266 
" clip-path="url(#p0e2c65fdf6)" style="fill: none; stroke: #c19632; stroke-width: 1.5; stroke-linecap: square"/>
    <g clip-path="url(#p0e2c65fdf6)">
     <use xlink:href="#mc14308a840" x="56.036" y="52.136344" style="fill: #c19632; stroke: #c19632"/>
     <use xlink:href="#mc14308a840" x="64.949161" y="51.175035" style="fill: #c19632; stroke: #c19632"/>
     <use xlink:href="#mc14308a840" x="73.862323" y="51.515331" style="fill: #c19632; stroke: #c19632"/>
     <use xlink:href="#mc14308a840" x="82.775484" y="52.832968" style="fill: #c19632; stroke: #c19632"/>
     <use xlink:href="#mc14308a840" x="91.688646" y="52.796856" style="fill: #c19632; stroke: #c19632"/>
     <use xlink:href="#mc14308a840" x="100.601807" y="54.730548" style="fill: #c19632; stroke: #c19632"/>
     <use xlink:href="#mc14308a840" x="109.514968" y="59.55238" style="fill: #c19632; stroke: #c19632"/>
     <use xlink:href="#mc14308a840" x="118.42813" y="63.776091" style="fill: #c19632; stroke: #c19632"/>
     <use xlink:href="#mc14308a840" x="127.341291" y="68.729356" style="fill: #c19632; stroke: #c19632"/>
     <use xlink:href="#mc14308a840" x="136.254452" y="75.023067" style="fill: #c19632; stroke: #c19632"/>
     <use xlink:href="#mc14308a840" x="145.167614" y="84.738915" style="fill: #c19632; stroke: #c19632"/>
     <use xlink:href="#mc14308a840" x="154.080775" y="95.653652" style="fill: #c19632; stroke: #c19632"/>
     <use xlink:href="#mc14308a840" x="159.428672" y="103.621369" style="fill: #c19632; stroke: #c19632"/>
     <use xlink:href="#mc14308a840" x="164.776569" y="110.090268" style="fill: #c19632; stroke: #c19632"/>
     <use xlink:href="#mc14308a840" x="170.124466" y="119.174279" style="fill: #c19632; stroke: #c19632"/>
     <use xlink:href="#mc14308a840" x="175.472362" y="126.107925" style="fill: #c19632; stroke: #c19632"/>
     <use xlink:href="#mc14308a840" x="180.820259" y="135.574831" style="fill: #c19632; stroke: #c19632"/>
     <use xlink:href="#mc14308a840" x="186.168156" y="142.217846" style="fill: #c19632; stroke: #c19632"/>
     <use xlink:href="#mc14308a840" x="191.516053" y="148.381156" style="fill: #c19632; stroke: #c19632"/>
     <use xlink:href="#mc14308a840" x="196.86395" y="156.211738" style="fill: #c19632; stroke: #c19632"/>
     <use xlink:href="#mc14308a840" x="202.211847" y="160.029208" style="fill: #c19632; stroke: #c19632"/>
     <use xlink:href="#mc14308a840" x="207.559743" y="165.822266" style="fill: #c19632; stroke: #c19632"/>
     <use xlink:href="#mc14308a840" x="212.90764" y="165.822266" style="fill: #c19632; stroke: #c19632"/>
     <use xlink:href="#mc14308a840" x="218.255537" y="165.822266" style="fill: #c19632; stroke: #c19632"/>
     <use xlink:href="#mc14308a840" x="223.603434" y="165.822266" style="fill: #c19632; stroke: #c19632"/>
     <use xlink:href="#mc14308a840" x="232.516595" y="165.822266" style="fill: #c19632; stroke: #c19632"/>
     <use xlink:href="#mc14308a840" x="239.647124" y="165.822266" style="fill: #c19632; stroke: #c19632"/>
     <use xlink:href="#mc14308a840" x="312.735048" y="165.822266" style="fill: #c19632; stroke: #c19632"/>
    </g>
   </g>
   <g id="line2d_20">
    <path d="M 56.036 58.477611 
L 64.949161 58.560248 
L 73.862323 58.560248 
L 82.775484 58.188384 
L 91.688646 57.527293 
L 100.601807 57.238066 
L 109.514968 57.031475 
L 118.42813 54.758974 
L 127.341291 54.015247 
L 136.254452 45.668973 
L 145.167614 52.982292 
L 154.080775 60.006384 
L 159.428672 76.327069 
L 164.776569 102.192255 
L 170.124466 125.702305 
L 175.472362 165.822266 
L 180.820259 165.822266 
L 186.168156 165.822266 
L 191.516053 165.822266 
L 196.86395 165.822266 
L 202.211847 165.822266 
L 207.559743 165.822266 
L 212.90764 165.822266 
L 218.255537 165.822266 
L 223.603434 165.822266 
L 232.516595 165.822266 
L 239.647124 165.822266 
L 312.735048 165.822266 
" clip-path="url(#p0e2c65fdf6)" style="fill: none; stroke: #008000; stroke-width: 1.5; stroke-linecap: square"/>
    <defs>
     <path id="mf810fbc0d0" d="M -3 3 
L 3 -3 
M -3 -3 
L 3 3 
" style="stroke: #008000"/>
    </defs>
    <g clip-path="url(#p0e2c65fdf6)">
     <use xlink:href="#mf810fbc0d0" x="56.036" y="58.477611" style="fill: #008000; stroke: #008000"/>
     <use xlink:href="#mf810fbc0d0" x="64.949161" y="58.560248" style="fill: #008000; stroke: #008000"/>
     <use xlink:href="#mf810fbc0d0" x="73.862323" y="58.560248" style="fill: #008000; stroke: #008000"/>
     <use xlink:href="#mf810fbc0d0" x="82.775484" y="58.188384" style="fill: #008000; stroke: #008000"/>
     <use xlink:href="#mf810fbc0d0" x="91.688646" y="57.527293" style="fill: #008000; stroke: #008000"/>
     <use xlink:href="#mf810fbc0d0" x="100.601807" y="57.238066" style="fill: #008000; stroke: #008000"/>
     <use xlink:href="#mf810fbc0d0" x="109.514968" y="57.031475" style="fill: #008000; stroke: #008000"/>
     <use xlink:href="#mf810fbc0d0" x="118.42813" y="54.758974" style="fill: #008000; stroke: #008000"/>
     <use xlink:href="#mf810fbc0d0" x="127.341291" y="54.015247" style="fill: #008000; stroke: #008000"/>
     <use xlink:href="#mf810fbc0d0" x="136.254452" y="45.668973" style="fill: #008000; stroke: #008000"/>
     <use xlink:href="#mf810fbc0d0" x="145.167614" y="52.982292" style="fill: #008000; stroke: #008000"/>
     <use xlink:href="#mf810fbc0d0" x="154.080775" y="60.006384" style="fill: #008000; stroke: #008000"/>
     <use xlink:href="#mf810fbc0d0" x="159.428672" y="76.327069" style="fill: #008000; stroke: #008000"/>
     <use xlink:href="#mf810fbc0d0" x="164.776569" y="102.192255" style="fill: #008000; stroke: #008000"/>
     <use xlink:href="#mf810fbc0d0" x="170.124466" y="125.702305" style="fill: #008000; stroke: #008000"/>
     <use xlink:href="#mf810fbc0d0" x="175.472362" y="165.822266" style="fill: #008000; stroke: #008000"/>
     <use xlink:href="#mf810fbc0d0" x="180.820259" y="165.822266" style="fill: #008000; stroke: #008000"/>
     <use xlink:href="#mf810fbc0d0" x="186.168156" y="165.822266" style="fill: #008000; stroke: #008000"/>
     <use xlink:href="#mf810fbc0d0" x="191.516053" y="165.822266" style="fill: #008000; stroke: #008000"/>
     <use xlink:href="#mf810fbc0d0" x="196.86395" y="165.822266" style="fill: #008000; stroke: #008000"/>
     <use xlink:href="#mf810fbc0d0" x="202.211847" y="165.822266" style="fill: #008000; stroke: #008000"/>
     <use xlink:href="#mf810fbc0d0" x="207.559743" y="165.822266" style="fill: #008000; stroke: #008000"/>
     <use xlink:href="#mf810fbc0d0" x="212.90764" y="165.822266" style="fill: #008000; stroke: #008000"/>
     <use xlink:href="#mf810fbc0d0" x="218.255537" y="165.822266" style="fill: #008000; stroke: #008000"/>
     <use xlink:href="#mf810fbc0d0" x="223.603434" y="165.822266" style="fill: #008000; stroke: #008000"/>
     <use xlink:href="#mf810fbc0d0" x="232.516595" y="165.822266" style="fill: #008000; stroke: #008000"/>
     <use xlink:href="#mf810fbc0d0" x="239.647124" y="165.822266" style="fill: #008000; stroke: #008000"/>
     <use xlink:href="#mf810fbc0d0" x="312.735048" y="165.822266" style="fill: #008000; stroke: #008000"/>
    </g>
   </g>
   <g id="line2d_21">
    <path d="M 56.036 59.758475 
L 64.949161 60.584839 
L 73.862323 62.361521 
L 82.775484 65.873567 
L 91.688646 71.038341 
L 100.601807 79.549888 
L 109.514968 92.565117 
L 118.42813 106.778574 
L 127.341291 130.495215 
L 136.254452 165.822266 
L 145.167614 165.822266 
L 154.080775 165.822266 
L 159.428672 165.822266 
L 164.776569 165.822266 
L 170.124466 165.822266 
L 175.472362 165.822266 
L 180.820259 165.822266 
L 186.168156 165.822266 
L 191.516053 165.822266 
L 196.86395 165.822266 
L 202.211847 165.822266 
L 207.559743 165.822266 
L 212.90764 165.822266 
L 218.255537 165.822266 
L 223.603434 165.822266 
L 232.516595 165.822266 
L 239.647124 165.822266 
L 312.735048 165.822266 
" clip-path="url(#p0e2c65fdf6)" style="fill: none; stroke: #639df4; stroke-width: 1.5; stroke-linecap: square"/>
    <defs>
     <path id="ma1798d6800" d="M -3 3 
L 3 -3 
M -3 -3 
L 3 3 
" style="stroke: #639df4"/>
    </defs>
    <g clip-path="url(#p0e2c65fdf6)">
     <use xlink:href="#ma1798d6800" x="56.036" y="59.758475" style="fill: #639df4; stroke: #639df4"/>
     <use xlink:href="#ma1798d6800" x="64.949161" y="60.584839" style="fill: #639df4; stroke: #639df4"/>
     <use xlink:href="#ma1798d6800" x="73.862323" y="62.361521" style="fill: #639df4; stroke: #639df4"/>
     <use xlink:href="#ma1798d6800" x="82.775484" y="65.873567" style="fill: #639df4; stroke: #639df4"/>
     <use xlink:href="#ma1798d6800" x="91.688646" y="71.038341" style="fill: #639df4; stroke: #639df4"/>
     <use xlink:href="#ma1798d6800" x="100.601807" y="79.549888" style="fill: #639df4; stroke: #639df4"/>
     <use xlink:href="#ma1798d6800" x="109.514968" y="92.565117" style="fill: #639df4; stroke: #639df4"/>
     <use xlink:href="#ma1798d6800" x="118.42813" y="106.778574" style="fill: #639df4; stroke: #639df4"/>
     <use xlink:href="#ma1798d6800" x="127.341291" y="130.495215" style="fill: #639df4; stroke: #639df4"/>
     <use xlink:href="#ma1798d6800" x="136.254452" y="165.822266" style="fill: #639df4; stroke: #639df4"/>
     <use xlink:href="#ma1798d6800" x="145.167614" y="165.822266" style="fill: #639df4; stroke: #639df4"/>
     <use xlink:href="#ma1798d6800" x="154.080775" y="165.822266" style="fill: #639df4; stroke: #639df4"/>
     <use xlink:href="#ma1798d6800" x="159.428672" y="165.822266" style="fill: #639df4; stroke: #639df4"/>
     <use xlink:href="#ma1798d6800" x="164.776569" y="165.822266" style="fill: #639df4; stroke: #639df4"/>
     <use xlink:href="#ma1798d6800" x="170.124466" y="165.822266" style="fill: #639df4; stroke: #639df4"/>
     <use xlink:href="#ma1798d6800" x="175.472362" y="165.822266" style="fill: #639df4; stroke: #639df4"/>
     <use xlink:href="#ma1798d6800" x="180.820259" y="165.822266" style="fill: #639df4; stroke: #639df4"/>
     <use xlink:href="#ma1798d6800" x="186.168156" y="165.822266" style="fill: #639df4; stroke: #639df4"/>
     <use xlink:href="#ma1798d6800" x="191.516053" y="165.822266" style="fill: #639df4; stroke: #639df4"/>
     <use xlink:href="#ma1798d6800" x="196.86395" y="165.822266" style="fill: #639df4; stroke: #639df4"/>
     <use xlink:href="#ma1798d6800" x="202.211847" y="165.822266" style="fill: #639df4; stroke: #639df4"/>
     <use xlink:href="#ma1798d6800" x="207.559743" y="165.822266" style="fill: #639df4; stroke: #639df4"/>
     <use xlink:href="#ma1798d6800" x="212.90764" y="165.822266" style="fill: #639df4; stroke: #639df4"/>
     <use xlink:href="#ma1798d6800" x="218.255537" y="165.822266" style="fill: #639df4; stroke: #639df4"/>
     <use xlink:href="#ma1798d6800" x="223.603434" y="165.822266" style="fill: #639df4; stroke: #639df4"/>
     <use xlink:href="#ma1798d6800" x="232.516595" y="165.822266" style="fill: #639df4; stroke: #639df4"/>
     <use xlink:href="#ma1798d6800" x="239.647124" y="165.822266" style="fill: #639df4; stroke: #639df4"/>
     <use xlink:href="#ma1798d6800" x="312.735048" y="165.822266" style="fill: #639df4; stroke: #639df4"/>
    </g>
   </g>
   <g id="line2d_22">
    <path d="M 56.036 60.502203 
L 64.949161 61.328566 
L 73.862323 61.70043 
L 82.775484 63.848976 
L 91.688646 66.658613 
L 100.601807 71.864705 
L 109.514968 80.789433 
L 118.42813 90.581844 
L 127.341291 107.770211 
L 136.254452 128.09876 
L 145.167614 165.822266 
L 154.080775 165.822266 
L 159.428672 165.822266 
L 164.776569 165.822266 
L 170.124466 165.822266 
L 175.472362 165.822266 
L 180.820259 165.822266 
L 186.168156 165.822266 
L 191.516053 165.822266 
L 196.86395 165.822266 
L 202.211847 165.822266 
L 207.559743 165.822266 
L 212.90764 165.822266 
L 218.255537 165.822266 
L 223.603434 165.822266 
L 232.516595 165.822266 
L 239.647124 165.822266 
L 312.735048 165.822266 
" clip-path="url(#p0e2c65fdf6)" style="fill: none; stroke: #b486f4; stroke-width: 1.5; stroke-linecap: square"/>
    <defs>
     <path id="m301eba60be" d="M -3 3 
L 3 -3 
M -3 -3 
L 3 3 
" style="stroke: #b486f4"/>
    </defs>
    <g clip-path="url(#p0e2c65fdf6)">
     <use xlink:href="#m301eba60be" x="56.036" y="60.502203" style="fill: #b486f4; stroke: #b486f4"/>
     <use xlink:href="#m301eba60be" x="64.949161" y="61.328566" style="fill: #b486f4; stroke: #b486f4"/>
     <use xlink:href="#m301eba60be" x="73.862323" y="61.70043" style="fill: #b486f4; stroke: #b486f4"/>
     <use xlink:href="#m301eba60be" x="82.775484" y="63.848976" style="fill: #b486f4; stroke: #b486f4"/>
     <use xlink:href="#m301eba60be" x="91.688646" y="66.658613" style="fill: #b486f4; stroke: #b486f4"/>
     <use xlink:href="#m301eba60be" x="100.601807" y="71.864705" style="fill: #b486f4; stroke: #b486f4"/>
     <use xlink:href="#m301eba60be" x="109.514968" y="80.789433" style="fill: #b486f4; stroke: #b486f4"/>
     <use xlink:href="#m301eba60be" x="118.42813" y="90.581844" style="fill: #b486f4; stroke: #b486f4"/>
     <use xlink:href="#m301eba60be" x="127.341291" y="107.770211" style="fill: #b486f4; stroke: #b486f4"/>
     <use xlink:href="#m301eba60be" x="136.254452" y="128.09876" style="fill: #b486f4; stroke: #b486f4"/>
     <use xlink:href="#m301eba60be" x="145.167614" y="165.822266" style="fill: #b486f4; stroke: #b486f4"/>
     <use xlink:href="#m301eba60be" x="154.080775" y="165.822266" style="fill: #b486f4; stroke: #b486f4"/>
     <use xlink:href="#m301eba60be" x="159.428672" y="165.822266" style="fill: #b486f4; stroke: #b486f4"/>
     <use xlink:href="#m301eba60be" x="164.776569" y="165.822266" style="fill: #b486f4; stroke: #b486f4"/>
     <use xlink:href="#m301eba60be" x="170.124466" y="165.822266" style="fill: #b486f4; stroke: #b486f4"/>
     <use xlink:href="#m301eba60be" x="175.472362" y="165.822266" style="fill: #b486f4; stroke: #b486f4"/>
     <use xlink:href="#m301eba60be" x="180.820259" y="165.822266" style="fill: #b486f4; stroke: #b486f4"/>
     <use xlink:href="#m301eba60be" x="186.168156" y="165.822266" style="fill: #b486f4; stroke: #b486f4"/>
     <use xlink:href="#m301eba60be" x="191.516053" y="165.822266" style="fill: #b486f4; stroke: #b486f4"/>
     <use xlink:href="#m301eba60be" x="196.86395" y="165.822266" style="fill: #b486f4; stroke: #b486f4"/>
     <use xlink:href="#m301eba60be" x="202.211847" y="165.822266" style="fill: #b486f4; stroke: #b486f4"/>
     <use xlink:href="#m301eba60be" x="207.559743" y="165.822266" style="fill: #b486f4; stroke: #b486f4"/>
     <use xlink:href="#m301eba60be" x="212.90764" y="165.822266" style="fill: #b486f4; stroke: #b486f4"/>
     <use xlink:href="#m301eba60be" x="218.255537" y="165.822266" style="fill: #b486f4; stroke: #b486f4"/>
     <use xlink:href="#m301eba60be" x="223.603434" y="165.822266" style="fill: #b486f4; stroke: #b486f4"/>
     <use xlink:href="#m301eba60be" x="232.516595" y="165.822266" style="fill: #b486f4; stroke: #b486f4"/>
     <use xlink:href="#m301eba60be" x="239.647124" y="165.822266" style="fill: #b486f4; stroke: #b486f4"/>
     <use xlink:href="#m301eba60be" x="312.735048" y="165.822266" style="fill: #b486f4; stroke: #b486f4"/>
    </g>
   </g>
   <g id="line2d_23">
    <path d="M 56.036 67.789657 
L 64.949161 66.515321 
L 73.862323 67.043285 
L 82.775484 67.152985 
L 91.688646 66.567052 
L 100.601807 67.015106 
L 109.514968 70.030425 
L 118.42813 71.945523 
L 127.341291 70.493808 
L 136.254452 75.584375 
L 145.167614 79.863162 
L 154.080775 84.69863 
L 159.428672 88.462882 
L 164.776569 90.980523 
L 170.124466 95.727157 
L 175.472362 99.365471 
L 180.820259 105.573116 
L 186.168156 109.737452 
L 191.516053 114.687661 
L 196.86395 120.841922 
L 202.211847 127.201618 
L 207.559743 134.319172 
L 212.90764 143.595105 
L 218.255537 152.771048 
L 223.603434 162.052932 
L 232.516595 165.822266 
L 239.647124 165.822266 
L 312.735048 165.822266 
" clip-path="url(#p0e2c65fdf6)" style="fill: none; stroke: #a0a131; stroke-width: 1.5; stroke-linecap: square"/>
    <defs>
     <path id="mb3c3ea9ffe" d="M -3 3 
L 3 -3 
M -3 -3 
L 3 3 
" style="stroke: #a0a131"/>
    </defs>
    <g clip-path="url(#p0e2c65fdf6)">
     <use xlink:href="#mb3c3ea9ffe" x="56.036" y="67.789657" style="fill: #a0a131; stroke: #a0a131"/>
     <use xlink:href="#mb3c3ea9ffe" x="64.949161" y="66.515321" style="fill: #a0a131; stroke: #a0a131"/>
     <use xlink:href="#mb3c3ea9ffe" x="73.862323" y="67.043285" style="fill: #a0a131; stroke: #a0a131"/>
     <use xlink:href="#mb3c3ea9ffe" x="82.775484" y="67.152985" style="fill: #a0a131; stroke: #a0a131"/>
     <use xlink:href="#mb3c3ea9ffe" x="91.688646" y="66.567052" style="fill: #a0a131; stroke: #a0a131"/>
     <use xlink:href="#mb3c3ea9ffe" x="100.601807" y="67.015106" style="fill: #a0a131; stroke: #a0a131"/>
     <use xlink:href="#mb3c3ea9ffe" x="109.514968" y="70.030425" style="fill: #a0a131; stroke: #a0a131"/>
     <use xlink:href="#mb3c3ea9ffe" x="118.42813" y="71.945523" style="fill: #a0a131; stroke: #a0a131"/>
     <use xlink:href="#mb3c3ea9ffe" x="127.341291" y="70.493808" style="fill: #a0a131; stroke: #a0a131"/>
     <use xlink:href="#mb3c3ea9ffe" x="136.254452" y="75.584375" style="fill: #a0a131; stroke: #a0a131"/>
     <use xlink:href="#mb3c3ea9ffe" x="145.167614" y="79.863162" style="fill: #a0a131; stroke: #a0a131"/>
     <use xlink:href="#mb3c3ea9ffe" x="154.080775" y="84.69863" style="fill: #a0a131; stroke: #a0a131"/>
     <use xlink:href="#mb3c3ea9ffe" x="159.428672" y="88.462882" style="fill: #a0a131; stroke: #a0a131"/>
     <use xlink:href="#mb3c3ea9ffe" x="164.776569" y="90.980523" style="fill: #a0a131; stroke: #a0a131"/>
     <use xlink:href="#mb3c3ea9ffe" x="170.124466" y="95.727157" style="fill: #a0a131; stroke: #a0a131"/>
     <use xlink:href="#mb3c3ea9ffe" x="175.472362" y="99.365471" style="fill: #a0a131; stroke: #a0a131"/>
     <use xlink:href="#mb3c3ea9ffe" x="180.820259" y="105.573116" style="fill: #a0a131; stroke: #a0a131"/>
     <use xlink:href="#mb3c3ea9ffe" x="186.168156" y="109.737452" style="fill: #a0a131; stroke: #a0a131"/>
     <use xlink:href="#mb3c3ea9ffe" x="191.516053" y="114.687661" style="fill: #a0a131; stroke: #a0a131"/>
     <use xlink:href="#mb3c3ea9ffe" x="196.86395" y="120.841922" style="fill: #a0a131; stroke: #a0a131"/>
     <use xlink:href="#mb3c3ea9ffe" x="202.211847" y="127.201618" style="fill: #a0a131; stroke: #a0a131"/>
     <use xlink:href="#mb3c3ea9ffe" x="207.559743" y="134.319172" style="fill: #a0a131; stroke: #a0a131"/>
     <use xlink:href="#mb3c3ea9ffe" x="212.90764" y="143.595105" style="fill: #a0a131; stroke: #a0a131"/>
     <use xlink:href="#mb3c3ea9ffe" x="218.255537" y="152.771048" style="fill: #a0a131; stroke: #a0a131"/>
     <use xlink:href="#mb3c3ea9ffe" x="223.603434" y="162.052932" style="fill: #a0a131; stroke: #a0a131"/>
     <use xlink:href="#mb3c3ea9ffe" x="232.516595" y="165.822266" style="fill: #a0a131; stroke: #a0a131"/>
     <use xlink:href="#mb3c3ea9ffe" x="239.647124" y="165.822266" style="fill: #a0a131; stroke: #a0a131"/>
     <use xlink:href="#mb3c3ea9ffe" x="312.735048" y="165.822266" style="fill: #a0a131; stroke: #a0a131"/>
    </g>
   </g>
   <g id="patch_3">
    <path d="M 56.036 172.3975 
L 56.036 26.88 
" style="fill: none; stroke: #000000; stroke-width: 0.8; stroke-linejoin: miter; stroke-linecap: square"/>
   </g>
   <g id="patch_4">
    <path d="M 325.57 172.3975 
L 325.57 26.88 
" style="fill: none; stroke: #000000; stroke-width: 0.8; stroke-linejoin: miter; stroke-linecap: square"/>
   </g>
   <g id="patch_5">
    <path d="M 56.036 172.3975 
L 325.57 172.3975 
" style="fill: none; stroke: #000000; stroke-width: 0.8; stroke-linejoin: miter; stroke-linecap: square"/>
   </g>
   <g id="patch_6">
    <path d="M 56.036 26.88 
L 325.57 26.88 
" style="fill: none; stroke: #000000; stroke-width: 0.8; stroke-linejoin: miter; stroke-linecap: square"/>
   </g>
   <g id="legend_1">
    <g id="patch_7">
     <path d="M 359.5234 211.0175 
L 412.61715 211.0175 
Q 414.61715 211.0175 414.61715 209.0175 
L 414.61715 33.88 
Q 414.61715 31.88 412.61715 31.88 
L 359.5234 31.88 
Q 357.5234 31.88 357.5234 33.88 
L 357.5234 209.0175 
Q 357.5234 211.0175 359.5234 211.0175 
z
" style="fill: #ffffff; opacity: 0.8; stroke: #cccccc; stroke-linejoin: miter"/>
    </g>
    <g id="line2d_24">
     <path d="M 361.5234 39.978437 
L 371.5234 39.978437 
L 381.5234 39.978437 
" style="fill: none; stroke: #eb8032; stroke-width: 1.5; stroke-linecap: square"/>
     <g>
      <use xlink:href="#mea98b65e04" x="371.5234" y="39.978437" style="fill: #eb8032; stroke: #eb8032"/>
     </g>
    </g>
    <g id="text_15">
     <!-- Thr -->
     <g transform="translate(389.5234 43.478437) scale(0.1 -0.1)">
      <defs>
       <path id="DejaVuSans-54" d="M -19 4666 
L 3928 4666 
L 3928 4134 
L 2272 4134 
L 2272 0 
L 1638 0 
L 1638 4134 
L -19 4134 
L -19 4666 
z
" transform="scale(0.015625)"/>
      </defs>
      <use xlink:href="#DejaVuSans-54"/>
      <use xlink:href="#DejaVuSans-68" transform="translate(61.083984 0)"/>
      <use xlink:href="#DejaVuSans-72" transform="translate(124.462891 0)"/>
     </g>
    </g>
    <g id="line2d_25">
     <path d="M 361.5234 54.656563 
L 371.5234 54.656563 
L 381.5234 54.656563 
" style="fill: none; stroke: #eb8032; stroke-width: 1.5; stroke-linecap: square"/>
     <g>
      <use xlink:href="#mea98b65e04" x="371.5234" y="54.656563" style="fill: #eb8032; stroke: #eb8032"/>
     </g>
    </g>
    <g id="text_16">
     <!-- Ile -->
     <g transform="translate(389.5234 58.156563) scale(0.1 -0.1)">
      <defs>
       <path id="DejaVuSans-49" d="M 628 4666 
L 1259 4666 
L 1259 0 
L 628 0 
L 628 4666 
z
" transform="scale(0.015625)"/>
      </defs>
      <use xlink:href="#DejaVuSans-49"/>
      <use xlink:href="#DejaVuSans-6c" transform="translate(29.492188 0)"/>
      <use xlink:href="#DejaVuSans-65" transform="translate(57.275391 0)"/>
     </g>
    </g>
    <g id="line2d_26">
     <path d="M 361.5234 69.334688 
L 371.5234 69.334688 
L 381.5234 69.334688 
" style="fill: none; stroke: #eb8032; stroke-width: 1.5; stroke-linecap: square"/>
     <g>
      <use xlink:href="#mea98b65e04" x="371.5234" y="69.334688" style="fill: #eb8032; stroke: #eb8032"/>
     </g>
    </g>
    <g id="text_17">
     <!-- Phe -->
     <g transform="translate(389.5234 72.834688) scale(0.1 -0.1)">
      <defs>
       <path id="DejaVuSans-50" d="M 1259 4147 
L 1259 2394 
L 2053 2394 
Q 2494 2394 2734 2622 
Q 2975 2850 2975 3272 
Q 2975 3691 2734 3919 
Q 2494 4147 2053 4147 
L 1259 4147 
z
M 628 4666 
L 2053 4666 
Q 2838 4666 3239 4311 
Q 3641 3956 3641 3272 
Q 3641 2581 3239 2228 
Q 2838 1875 2053 1875 
L 1259 1875 
L 1259 0 
L 628 0 
L 628 4666 
z
" transform="scale(0.015625)"/>
      </defs>
      <use xlink:href="#DejaVuSans-50"/>
      <use xlink:href="#DejaVuSans-68" transform="translate(60.302734 0)"/>
      <use xlink:href="#DejaVuSans-65" transform="translate(123.681641 0)"/>
     </g>
    </g>
    <g id="line2d_27">
     <path d="M 361.5234 84.012812 
L 371.5234 84.012812 
L 381.5234 84.012812 
" style="fill: none; stroke: #f77189; stroke-width: 1.5; stroke-linecap: square"/>
     <g>
      <use xlink:href="#m1d65a16d57" x="371.5234" y="84.012812" style="fill: #f77189; stroke: #f77189"/>
     </g>
    </g>
    <g id="text_18">
     <!-- His -->
     <g transform="translate(389.5234 87.512812) scale(0.1 -0.1)">
      <defs>
       <path id="DejaVuSans-48" d="M 628 4666 
L 1259 4666 
L 1259 2753 
L 3553 2753 
L 3553 4666 
L 4184 4666 
L 4184 0 
L 3553 0 
L 3553 2222 
L 1259 2222 
L 1259 0 
L 628 0 
L 628 4666 
z
" transform="scale(0.015625)"/>
       <path id="DejaVuSans-73" d="M 2834 3397 
L 2834 2853 
Q 2591 2978 2328 3040 
Q 2066 3103 1784 3103 
Q 1356 3103 1142 2972 
Q 928 2841 928 2578 
Q 928 2378 1081 2264 
Q 1234 2150 1697 2047 
L 1894 2003 
Q 2506 1872 2764 1633 
Q 3022 1394 3022 966 
Q 3022 478 2636 193 
Q 2250 -91 1575 -91 
Q 1294 -91 989 -36 
Q 684 19 347 128 
L 347 722 
Q 666 556 975 473 
Q 1284 391 1588 391 
Q 1994 391 2212 530 
Q 2431 669 2431 922 
Q 2431 1156 2273 1281 
Q 2116 1406 1581 1522 
L 1381 1569 
Q 847 1681 609 1914 
Q 372 2147 372 2553 
Q 372 3047 722 3315 
Q 1072 3584 1716 3584 
Q 2034 3584 2315 3537 
Q 2597 3491 2834 3397 
z
" transform="scale(0.015625)"/>
      </defs>
      <use xlink:href="#DejaVuSans-48"/>
      <use xlink:href="#DejaVuSans-69" transform="translate(75.195312 0)"/>
      <use xlink:href="#DejaVuSans-73" transform="translate(102.978516 0)"/>
     </g>
    </g>
    <g id="line2d_28">
     <path d="M 361.5234 98.690938 
L 371.5234 98.690938 
L 381.5234 98.690938 
" style="fill: none; stroke: #c19632; stroke-width: 1.5; stroke-linecap: square"/>
     <g>
      <use xlink:href="#mc14308a840" x="371.5234" y="98.690938" style="fill: #c19632; stroke: #c19632"/>
     </g>
    </g>
    <g id="text_19">
     <!-- Val -->
     <g transform="translate(389.5234 102.190938) scale(0.1 -0.1)">
      <defs>
       <path id="DejaVuSans-56" d="M 1831 0 
L 50 4666 
L 709 4666 
L 2188 738 
L 3669 4666 
L 4325 4666 
L 2547 0 
L 1831 0 
z
" transform="scale(0.015625)"/>
      </defs>
      <use xlink:href="#DejaVuSans-56"/>
      <use xlink:href="#DejaVuSans-61" transform="translate(60.658203 0)"/>
      <use xlink:href="#DejaVuSans-6c" transform="translate(121.9375 0)"/>
     </g>
    </g>
    <g id="line2d_29">
     <path d="M 361.5234 113.369062 
L 371.5234 113.369062 
L 381.5234 113.369062 
" style="fill: none; stroke: #c19632; stroke-width: 1.5; stroke-linecap: square"/>
     <g>
      <use xlink:href="#mc14308a840" x="371.5234" y="113.369062" style="fill: #c19632; stroke: #c19632"/>
     </g>
    </g>
    <g id="text_20">
     <!-- Lys -->
     <g transform="translate(389.5234 116.869062) scale(0.1 -0.1)">
      <defs>
       <path id="DejaVuSans-4c" d="M 628 4666 
L 1259 4666 
L 1259 531 
L 3531 531 
L 3531 0 
L 628 0 
L 628 4666 
z
" transform="scale(0.015625)"/>
       <path id="DejaVuSans-79" d="M 2059 -325 
Q 1816 -950 1584 -1140 
Q 1353 -1331 966 -1331 
L 506 -1331 
L 506 -850 
L 844 -850 
Q 1081 -850 1212 -737 
Q 1344 -625 1503 -206 
L 1606 56 
L 191 3500 
L 800 3500 
L 1894 763 
L 2988 3500 
L 3597 3500 
L 2059 -325 
z
" transform="scale(0.015625)"/>
      </defs>
      <use xlink:href="#DejaVuSans-4c"/>
      <use xlink:href="#DejaVuSans-79" transform="translate(46.587891 0)"/>
      <use xlink:href="#DejaVuSans-73" transform="translate(105.767578 0)"/>
     </g>
    </g>
    <g id="line2d_30">
     <path d="M 361.5234 128.047188 
L 371.5234 128.047188 
L 381.5234 128.047188 
" style="fill: none; stroke: #c19632; stroke-width: 1.5; stroke-linecap: square"/>
     <g>
      <use xlink:href="#mc14308a840" x="371.5234" y="128.047188" style="fill: #c19632; stroke: #c19632"/>
     </g>
    </g>
    <g id="text_21">
     <!-- Leu -->
     <g transform="translate(389.5234 131.547188) scale(0.1 -0.1)">
      <defs>
       <path id="DejaVuSans-75" d="M 544 1381 
L 544 3500 
L 1119 3500 
L 1119 1403 
Q 1119 906 1312 657 
Q 1506 409 1894 409 
Q 2359 409 2629 706 
Q 2900 1003 2900 1516 
L 2900 3500 
L 3475 3500 
L 3475 0 
L 2900 0 
L 2900 538 
Q 2691 219 2414 64 
Q 2138 -91 1772 -91 
Q 1169 -91 856 284 
Q 544 659 544 1381 
z
M 1991 3584 
L 1991 3584 
z
" transform="scale(0.015625)"/>
      </defs>
      <use xlink:href="#DejaVuSans-4c"/>
      <use xlink:href="#DejaVuSans-65" transform="translate(53.962891 0)"/>
      <use xlink:href="#DejaVuSans-75" transform="translate(115.486328 0)"/>
     </g>
    </g>
    <g id="line2d_31">
     <path d="M 361.5234 142.725312 
L 371.5234 142.725312 
L 381.5234 142.725312 
" style="fill: none; stroke: #008000; stroke-width: 1.5; stroke-linecap: square"/>
     <g>
      <use xlink:href="#mf810fbc0d0" x="371.5234" y="142.725312" style="fill: #008000; stroke: #008000"/>
     </g>
    </g>
    <g id="text_22">
     <!-- Glc -->
     <g transform="translate(389.5234 146.225312) scale(0.1 -0.1)">
      <defs>
       <path id="DejaVuSans-47" d="M 3809 666 
L 3809 1919 
L 2778 1919 
L 2778 2438 
L 4434 2438 
L 4434 434 
Q 4069 175 3628 42 
Q 3188 -91 2688 -91 
Q 1594 -91 976 548 
Q 359 1188 359 2328 
Q 359 3472 976 4111 
Q 1594 4750 2688 4750 
Q 3144 4750 3555 4637 
Q 3966 4525 4313 4306 
L 4313 3634 
Q 3963 3931 3569 4081 
Q 3175 4231 2741 4231 
Q 1884 4231 1454 3753 
Q 1025 3275 1025 2328 
Q 1025 1384 1454 906 
Q 1884 428 2741 428 
Q 3075 428 3337 486 
Q 3600 544 3809 666 
z
" transform="scale(0.015625)"/>
      </defs>
      <use xlink:href="#DejaVuSans-47"/>
      <use xlink:href="#DejaVuSans-6c" transform="translate(77.490234 0)"/>
      <use xlink:href="#DejaVuSans-63" transform="translate(105.273438 0)"/>
     </g>
    </g>
    <g id="line2d_32">
     <path d="M 361.5234 157.403437 
L 371.5234 157.403437 
L 381.5234 157.403437 
" style="fill: none; stroke: #639df4; stroke-width: 1.5; stroke-linecap: square"/>
     <g>
      <use xlink:href="#ma1798d6800" x="371.5234" y="157.403437" style="fill: #639df4; stroke: #639df4"/>
     </g>
    </g>
    <g id="text_23">
     <!-- Man -->
     <g transform="translate(389.5234 160.903437) scale(0.1 -0.1)">
      <use xlink:href="#DejaVuSans-4d"/>
      <use xlink:href="#DejaVuSans-61" transform="translate(86.279297 0)"/>
      <use xlink:href="#DejaVuSans-6e" transform="translate(147.558594 0)"/>
     </g>
    </g>
    <g id="line2d_33">
     <path d="M 361.5234 172.081562 
L 371.5234 172.081562 
L 381.5234 172.081562 
" style="fill: none; stroke: #b486f4; stroke-width: 1.5; stroke-linecap: square"/>
     <g>
      <use xlink:href="#m301eba60be" x="371.5234" y="172.081562" style="fill: #b486f4; stroke: #b486f4"/>
     </g>
    </g>
    <g id="text_24">
     <!-- Nag -->
     <g transform="translate(389.5234 175.581562) scale(0.1 -0.1)">
      <defs>
       <path id="DejaVuSans-4e" d="M 628 4666 
L 1478 4666 
L 3547 763 
L 3547 4666 
L 4159 4666 
L 4159 0 
L 3309 0 
L 1241 3903 
L 1241 0 
L 628 0 
L 628 4666 
z
" transform="scale(0.015625)"/>
       <path id="DejaVuSans-67" d="M 2906 1791 
Q 2906 2416 2648 2759 
Q 2391 3103 1925 3103 
Q 1463 3103 1205 2759 
Q 947 2416 947 1791 
Q 947 1169 1205 825 
Q 1463 481 1925 481 
Q 2391 481 2648 825 
Q 2906 1169 2906 1791 
z
M 3481 434 
Q 3481 -459 3084 -895 
Q 2688 -1331 1869 -1331 
Q 1566 -1331 1297 -1286 
Q 1028 -1241 775 -1147 
L 775 -588 
Q 1028 -725 1275 -790 
Q 1522 -856 1778 -856 
Q 2344 -856 2625 -561 
Q 2906 -266 2906 331 
L 2906 616 
Q 2728 306 2450 153 
Q 2172 0 1784 0 
Q 1141 0 747 490 
Q 353 981 353 1791 
Q 353 2603 747 3093 
Q 1141 3584 1784 3584 
Q 2172 3584 2450 3431 
Q 2728 3278 2906 2969 
L 2906 3500 
L 3481 3500 
L 3481 434 
z
" transform="scale(0.015625)"/>
      </defs>
      <use xlink:href="#DejaVuSans-4e"/>
      <use xlink:href="#DejaVuSans-61" transform="translate(74.804688 0)"/>
      <use xlink:href="#DejaVuSans-67" transform="translate(136.083984 0)"/>
     </g>
    </g>
    <g id="line2d_34">
     <path d="M 361.5234 186.759687 
L 371.5234 186.759687 
L 381.5234 186.759687 
" style="fill: none; stroke: #a0a131; stroke-width: 1.5; stroke-linecap: square"/>
     <g>
      <use xlink:href="#mb3c3ea9ffe" x="371.5234" y="186.759687" style="fill: #a0a131; stroke: #a0a131"/>
     </g>
    </g>
    <g id="text_25">
     <!-- Trp -->
     <g transform="translate(389.5234 190.259687) scale(0.1 -0.1)">
      <defs>
       <path id="DejaVuSans-70" d="M 1159 525 
L 1159 -1331 
L 581 -1331 
L 581 3500 
L 1159 3500 
L 1159 2969 
Q 1341 3281 1617 3432 
Q 1894 3584 2278 3584 
Q 2916 3584 3314 3078 
Q 3713 2572 3713 1747 
Q 3713 922 3314 415 
Q 2916 -91 2278 -91 
Q 1894 -91 1617 61 
Q 1341 213 1159 525 
z
M 3116 1747 
Q 3116 2381 2855 2742 
Q 2594 3103 2138 3103 
Q 1681 3103 1420 2742 
Q 1159 2381 1159 1747 
Q 1159 1113 1420 752 
Q 1681 391 2138 391 
Q 2594 391 2855 752 
Q 3116 1113 3116 1747 
z
" transform="scale(0.015625)"/>
      </defs>
      <use xlink:href="#DejaVuSans-54"/>
      <use xlink:href="#DejaVuSans-72" transform="translate(46.333984 0)"/>
      <use xlink:href="#DejaVuSans-70" transform="translate(87.447266 0)"/>
     </g>
    </g>
    <g id="line2d_35">
     <path d="M 361.5234 201.437812 
L 371.5234 201.437812 
L 381.5234 201.437812 
" style="fill: none; stroke: #808080; stroke-width: 1.5; stroke-linecap: square"/>
     <defs>
      <path id="m6b2f80fdd7" d="M -3 3 
L 3 -3 
M -3 -3 
L 3 3 
" style="stroke: #808080"/>
     </defs>
     <g>
      <use xlink:href="#m6b2f80fdd7" x="371.5234" y="201.437812" style="fill: #808080; stroke: #808080"/>
     </g>
    </g>
    <g id="text_26">
     <!-- F1 -->
     <g transform="translate(389.5234 204.937812) scale(0.1 -0.1)">
      <defs>
       <path id="DejaVuSans-46" d="M 628 4666 
L 3309 4666 
L 3309 4134 
L 1259 4134 
L 1259 2759 
L 3109 2759 
L 3109 2228 
L 1259 2228 
L 1259 0 
L 628 0 
L 628 4666 
z
" transform="scale(0.015625)"/>
      </defs>
      <use xlink:href="#DejaVuSans-46"/>
      <use xlink:href="#DejaVuSans-31" transform="translate(57.519531 0)"/>
     </g>
    </g>
   </g>
  </g>
  <g id="axes_2">
   <g id="matplotlib.axis_3">
    <g id="ytick_5">
     <g id="line2d_36">
      <defs>
       <path id="ma71934a062" d="M 0 0 
L 3.5 0 
" style="stroke: #000000; stroke-width: 0.8"/>
      </defs>
      <g>
       <use xlink:href="#ma71934a062" x="325.57" y="165.822266" style="stroke: #000000; stroke-width: 0.8"/>
      </g>
     </g>
     <g id="text_27">
      <!-- 0.0 -->
      <g transform="translate(332.57 169.621485) scale(0.1 -0.1)">
       <use xlink:href="#DejaVuSans-30"/>
       <use xlink:href="#DejaVuSans-2e" transform="translate(63.623047 0)"/>
       <use xlink:href="#DejaVuSans-30" transform="translate(95.410156 0)"/>
      </g>
     </g>
    </g>
    <g id="ytick_6">
     <g id="line2d_37">
      <g>
       <use xlink:href="#ma71934a062" x="325.57" y="143.95748" style="stroke: #000000; stroke-width: 0.8"/>
      </g>
     </g>
     <g id="text_28">
      <!-- 0.1 -->
      <g transform="translate(332.57 147.756699) scale(0.1 -0.1)">
       <use xlink:href="#DejaVuSans-30"/>
       <use xlink:href="#DejaVuSans-2e" transform="translate(63.623047 0)"/>
       <use xlink:href="#DejaVuSans-31" transform="translate(95.410156 0)"/>
      </g>
     </g>
    </g>
    <g id="ytick_7">
     <g id="line2d_38">
      <g>
       <use xlink:href="#ma71934a062" x="325.57" y="122.092694" style="stroke: #000000; stroke-width: 0.8"/>
      </g>
     </g>
     <g id="text_29">
      <!-- 0.2 -->
      <g transform="translate(332.57 125.891912) scale(0.1 -0.1)">
       <use xlink:href="#DejaVuSans-30"/>
       <use xlink:href="#DejaVuSans-2e" transform="translate(63.623047 0)"/>
       <use xlink:href="#DejaVuSans-32" transform="translate(95.410156 0)"/>
      </g>
     </g>
    </g>
    <g id="ytick_8">
     <g id="line2d_39">
      <g>
       <use xlink:href="#ma71934a062" x="325.57" y="100.227907" style="stroke: #000000; stroke-width: 0.8"/>
      </g>
     </g>
     <g id="text_30">
      <!-- 0.3 -->
      <g transform="translate(332.57 104.027126) scale(0.1 -0.1)">
       <use xlink:href="#DejaVuSans-30"/>
       <use xlink:href="#DejaVuSans-2e" transform="translate(63.623047 0)"/>
       <use xlink:href="#DejaVuSans-33" transform="translate(95.410156 0)"/>
      </g>
     </g>
    </g>
    <g id="ytick_9">
     <g id="line2d_40">
      <g>
       <use xlink:href="#ma71934a062" x="325.57" y="78.363121" style="stroke: #000000; stroke-width: 0.8"/>
      </g>
     </g>
     <g id="text_31">
      <!-- 0.4 -->
      <g transform="translate(332.57 82.16234) scale(0.1 -0.1)">
       <use xlink:href="#DejaVuSans-30"/>
       <use xlink:href="#DejaVuSans-2e" transform="translate(63.623047 0)"/>
       <use xlink:href="#DejaVuSans-34" transform="translate(95.410156 0)"/>
      </g>
     </g>
    </g>
    <g id="ytick_10">
     <g id="line2d_41">
      <g>
       <use xlink:href="#ma71934a062" x="325.57" y="56.498335" style="stroke: #000000; stroke-width: 0.8"/>
      </g>
     </g>
     <g id="text_32">
      <!-- 0.5 -->
      <g transform="translate(332.57 60.297554) scale(0.1 -0.1)">
       <use xlink:href="#DejaVuSans-30"/>
       <use xlink:href="#DejaVuSans-2e" transform="translate(63.623047 0)"/>
       <use xlink:href="#DejaVuSans-35" transform="translate(95.410156 0)"/>
      </g>
     </g>
    </g>
    <g id="ytick_11">
     <g id="line2d_42">
      <g>
       <use xlink:href="#ma71934a062" x="325.57" y="34.633549" style="stroke: #000000; stroke-width: 0.8"/>
      </g>
     </g>
     <g id="text_33">
      <!-- 0.6 -->
      <g transform="translate(332.57 38.432768) scale(0.1 -0.1)">
       <use xlink:href="#DejaVuSans-30"/>
       <use xlink:href="#DejaVuSans-2e" transform="translate(63.623047 0)"/>
       <use xlink:href="#DejaVuSans-36" transform="translate(95.410156 0)"/>
      </g>
     </g>
    </g>
    <g id="text_34">
     <!-- OD -->
     <g transform="translate(360.071562 107.424687) rotate(-90) scale(0.1 -0.1)">
      <defs>
       <path id="DejaVuSans-4f" d="M 2522 4238 
Q 1834 4238 1429 3725 
Q 1025 3213 1025 2328 
Q 1025 1447 1429 934 
Q 1834 422 2522 422 
Q 3209 422 3611 934 
Q 4013 1447 4013 2328 
Q 4013 3213 3611 3725 
Q 3209 4238 2522 4238 
z
M 2522 4750 
Q 3503 4750 4090 4092 
Q 4678 3434 4678 2328 
Q 4678 1225 4090 567 
Q 3503 -91 2522 -91 
Q 1538 -91 948 565 
Q 359 1222 359 2328 
Q 359 3434 948 4092 
Q 1538 4750 2522 4750 
z
" transform="scale(0.015625)"/>
       <path id="DejaVuSans-44" d="M 1259 4147 
L 1259 519 
L 2022 519 
Q 2988 519 3436 956 
Q 3884 1394 3884 2338 
Q 3884 3275 3436 3711 
Q 2988 4147 2022 4147 
L 1259 4147 
z
M 628 4666 
L 1925 4666 
Q 3281 4666 3915 4102 
Q 4550 3538 4550 2338 
Q 4550 1131 3912 565 
Q 3275 0 1925 0 
L 628 0 
L 628 4666 
z
" transform="scale(0.015625)"/>
      </defs>
      <use xlink:href="#DejaVuSans-4f"/>
      <use xlink:href="#DejaVuSans-44" transform="translate(78.710938 0)"/>
     </g>
    </g>
   </g>
   <g id="line2d_43">
    <path d="M 56.036 164.959914 
L 64.949161 164.675427 
L 73.862323 163.923202 
L 82.775484 163.015655 
L 91.688646 161.639882 
L 100.601807 159.082066 
L 109.514968 155.939855 
L 118.42813 150.072103 
L 127.341291 143.298624 
L 136.254452 130.475424 
L 145.167614 122.669416 
L 154.080775 112.590485 
L 159.428672 109.337361 
L 164.776569 97.385401 
L 170.124466 88.259016 
L 175.472362 79.144311 
L 180.820259 75.869665 
L 186.168156 72.617186 
L 191.516053 64.900046 
L 196.86395 55.425726 
L 202.211847 51.626313 
L 207.559743 46.583438 
L 212.90764 41.913303 
L 218.255537 37.639278 
L 223.603434 37.633973 
L 232.516595 39.227419 
L 239.647124 33.455234 
L 312.735048 66.129654 
" clip-path="url(#p0e2c65fdf6)" style="fill: none; stroke: #808080; stroke-width: 1.5; stroke-linecap: square"/>
    <g clip-path="url(#p0e2c65fdf6)">
     <use xlink:href="#m6b2f80fdd7" x="56.036" y="164.959914" style="fill: #808080; stroke: #808080"/>
     <use xlink:href="#m6b2f80fdd7" x="64.949161" y="164.675427" style="fill: #808080; stroke: #808080"/>
     <use xlink:href="#m6b2f80fdd7" x="73.862323" y="163.923202" style="fill: #808080; stroke: #808080"/>
     <use xlink:href="#m6b2f80fdd7" x="82.775484" y="163.015655" style="fill: #808080; stroke: #808080"/>
     <use xlink:href="#m6b2f80fdd7" x="91.688646" y="161.639882" style="fill: #808080; stroke: #808080"/>
     <use xlink:href="#m6b2f80fdd7" x="100.601807" y="159.082066" style="fill: #808080; stroke: #808080"/>
     <use xlink:href="#m6b2f80fdd7" x="109.514968" y="155.939855" style="fill: #808080; stroke: #808080"/>
     <use xlink:href="#m6b2f80fdd7" x="118.42813" y="150.072103" style="fill: #808080; stroke: #808080"/>
     <use xlink:href="#m6b2f80fdd7" x="127.341291" y="143.298624" style="fill: #808080; stroke: #808080"/>
     <use xlink:href="#m6b2f80fdd7" x="136.254452" y="130.475424" style="fill: #808080; stroke: #808080"/>
     <use xlink:href="#m6b2f80fdd7" x="145.167614" y="122.669416" style="fill: #808080; stroke: #808080"/>
     <use xlink:href="#m6b2f80fdd7" x="154.080775" y="112.590485" style="fill: #808080; stroke: #808080"/>
     <use xlink:href="#m6b2f80fdd7" x="159.428672" y="109.337361" style="fill: #808080; stroke: #808080"/>
     <use xlink:href="#m6b2f80fdd7" x="164.776569" y="97.385401" style="fill: #808080; stroke: #808080"/>
     <use xlink:href="#m6b2f80fdd7" x="170.124466" y="88.259016" style="fill: #808080; stroke: #808080"/>
     <use xlink:href="#m6b2f80fdd7" x="175.472362" y="79.144311" style="fill: #808080; stroke: #808080"/>
     <use xlink:href="#m6b2f80fdd7" x="180.820259" y="75.869665" style="fill: #808080; stroke: #808080"/>
     <use xlink:href="#m6b2f80fdd7" x="186.168156" y="72.617186" style="fill: #808080; stroke: #808080"/>
     <use xlink:href="#m6b2f80fdd7" x="191.516053" y="64.900046" style="fill: #808080; stroke: #808080"/>
     <use xlink:href="#m6b2f80fdd7" x="196.86395" y="55.425726" style="fill: #808080; stroke: #808080"/>
     <use xlink:href="#m6b2f80fdd7" x="202.211847" y="51.626313" style="fill: #808080; stroke: #808080"/>
     <use xlink:href="#m6b2f80fdd7" x="207.559743" y="46.583438" style="fill: #808080; stroke: #808080"/>
     <use xlink:href="#m6b2f80fdd7" x="212.90764" y="41.913303" style="fill: #808080; stroke: #808080"/>
     <use xlink:href="#m6b2f80fdd7" x="218.255537" y="37.639278" style="fill: #808080; stroke: #808080"/>
     <use xlink:href="#m6b2f80fdd7" x="223.603434" y="37.633973" style="fill: #808080; stroke: #808080"/>
     <use xlink:href="#m6b2f80fdd7" x="232.516595" y="39.227419" style="fill: #808080; stroke: #808080"/>
     <use xlink:href="#m6b2f80fdd7" x="239.647124" y="33.455234" style="fill: #808080; stroke: #808080"/>
     <use xlink:href="#m6b2f80fdd7" x="312.735048" y="66.129654" style="fill: #808080; stroke: #808080"/>
    </g>
   </g>
   <g id="patch_8">
    <path d="M 56.036 172.3975 
L 56.036 26.88 
" style="fill: none; stroke: #000000; stroke-width: 0.8; stroke-linejoin: miter; stroke-linecap: square"/>
   </g>
   <g id="patch_9">
    <path d="M 325.57 172.3975 
L 325.57 26.88 
" style="fill: none; stroke: #000000; stroke-width: 0.8; stroke-linejoin: miter; stroke-linecap: square"/>
   </g>
   <g id="patch_10">
    <path d="M 56.036 172.3975 
L 325.57 172.3975 
" style="fill: none; stroke: #000000; stroke-width: 0.8; stroke-linejoin: miter; stroke-linecap: square"/>
   </g>
   <g id="patch_11">
    <path d="M 56.036 26.88 
L 325.57 26.88 
" style="fill: none; stroke: #000000; stroke-width: 0.8; stroke-linejoin: miter; stroke-linecap: square"/>
   </g>
   <g id="text_35">
    <!-- Substrate cluster concentration curves (mix11, F1) -->
    <g transform="translate(37.73175 20.88) scale(0.12 -0.12)">
     <defs>
      <path id="DejaVuSans-53" d="M 3425 4513 
L 3425 3897 
Q 3066 4069 2747 4153 
Q 2428 4238 2131 4238 
Q 1616 4238 1336 4038 
Q 1056 3838 1056 3469 
Q 1056 3159 1242 3001 
Q 1428 2844 1947 2747 
L 2328 2669 
Q 3034 2534 3370 2195 
Q 3706 1856 3706 1288 
Q 3706 609 3251 259 
Q 2797 -91 1919 -91 
Q 1588 -91 1214 -16 
Q 841 59 441 206 
L 441 856 
Q 825 641 1194 531 
Q 1563 422 1919 422 
Q 2459 422 2753 634 
Q 3047 847 3047 1241 
Q 3047 1584 2836 1778 
Q 2625 1972 2144 2069 
L 1759 2144 
Q 1053 2284 737 2584 
Q 422 2884 422 3419 
Q 422 4038 858 4394 
Q 1294 4750 2059 4750 
Q 2388 4750 2728 4690 
Q 3069 4631 3425 4513 
z
" transform="scale(0.015625)"/>
      <path id="DejaVuSans-62" d="M 3116 1747 
Q 3116 2381 2855 2742 
Q 2594 3103 2138 3103 
Q 1681 3103 1420 2742 
Q 1159 2381 1159 1747 
Q 1159 1113 1420 752 
Q 1681 391 2138 391 
Q 2594 391 2855 752 
Q 3116 1113 3116 1747 
z
M 1159 2969 
Q 1341 3281 1617 3432 
Q 1894 3584 2278 3584 
Q 2916 3584 3314 3078 
Q 3713 2572 3713 1747 
Q 3713 922 3314 415 
Q 2916 -91 2278 -91 
Q 1894 -91 1617 61 
Q 1341 213 1159 525 
L 1159 0 
L 581 0 
L 581 4863 
L 1159 4863 
L 1159 2969 
z
" transform="scale(0.015625)"/>
      <path id="DejaVuSans-76" d="M 191 3500 
L 800 3500 
L 1894 563 
L 2988 3500 
L 3597 3500 
L 2284 0 
L 1503 0 
L 191 3500 
z
" transform="scale(0.015625)"/>
      <path id="DejaVuSans-28" d="M 1984 4856 
Q 1566 4138 1362 3434 
Q 1159 2731 1159 2009 
Q 1159 1288 1364 580 
Q 1569 -128 1984 -844 
L 1484 -844 
Q 1016 -109 783 600 
Q 550 1309 550 2009 
Q 550 2706 781 3412 
Q 1013 4119 1484 4856 
L 1984 4856 
z
" transform="scale(0.015625)"/>
      <path id="DejaVuSans-78" d="M 3513 3500 
L 2247 1797 
L 3578 0 
L 2900 0 
L 1881 1375 
L 863 0 
L 184 0 
L 1544 1831 
L 300 3500 
L 978 3500 
L 1906 2253 
L 2834 3500 
L 3513 3500 
z
" transform="scale(0.015625)"/>
      <path id="DejaVuSans-2c" d="M 750 794 
L 1409 794 
L 1409 256 
L 897 -744 
L 494 -744 
L 750 256 
L 750 794 
z
" transform="scale(0.015625)"/>
      <path id="DejaVuSans-29" d="M 513 4856 
L 1013 4856 
Q 1481 4119 1714 3412 
Q 1947 2706 1947 2009 
Q 1947 1309 1714 600 
Q 1481 -109 1013 -844 
L 513 -844 
Q 928 -128 1133 580 
Q 1338 1288 1338 2009 
Q 1338 2731 1133 3434 
Q 928 4138 513 4856 
z
" transform="scale(0.015625)"/>
     </defs>
     <use xlink:href="#DejaVuSans-53"/>
     <use xlink:href="#DejaVuSans-75" transform="translate(63.476562 0)"/>
     <use xlink:href="#DejaVuSans-62" transform="translate(126.855469 0)"/>
     <use xlink:href="#DejaVuSans-73" transform="translate(190.332031 0)"/>
     <use xlink:href="#DejaVuSans-74" transform="translate(242.431641 0)"/>
     <use xlink:href="#DejaVuSans-72" transform="translate(281.640625 0)"/>
     <use xlink:href="#DejaVuSans-61" transform="translate(322.753906 0)"/>
     <use xlink:href="#DejaVuSans-74" transform="translate(384.033203 0)"/>
     <use xlink:href="#DejaVuSans-65" transform="translate(423.242188 0)"/>
     <use xlink:href="#DejaVuSans-20" transform="translate(484.765625 0)"/>
     <use xlink:href="#DejaVuSans-63" transform="translate(516.552734 0)"/>
     <use xlink:href="#DejaVuSans-6c" transform="translate(571.533203 0)"/>
     <use xlink:href="#DejaVuSans-75" transform="translate(599.316406 0)"/>
     <use xlink:href="#DejaVuSans-73" transform="translate(662.695312 0)"/>
     <use xlink:href="#DejaVuSans-74" transform="translate(714.794922 0)"/>
     <use xlink:href="#DejaVuSans-65" transform="translate(754.003906 0)"/>
     <use xlink:href="#DejaVuSans-72" transform="translate(815.527344 0)"/>
     <use xlink:href="#DejaVuSans-20" transform="translate(856.640625 0)"/>
     <use xlink:href="#DejaVuSans-63" transform="translate(888.427734 0)"/>
     <use xlink:href="#DejaVuSans-6f" transform="translate(943.408203 0)"/>
     <use xlink:href="#DejaVuSans-6e" transform="translate(1004.589844 0)"/>
     <use xlink:href="#DejaVuSans-63" transform="translate(1067.96875 0)"/>
     <use xlink:href="#DejaVuSans-65" transform="translate(1122.949219 0)"/>
     <use xlink:href="#DejaVuSans-6e" transform="translate(1184.472656 0)"/>
     <use xlink:href="#DejaVuSans-74" transform="translate(1247.851562 0)"/>
     <use xlink:href="#DejaVuSans-72" transform="translate(1287.060547 0)"/>
     <use xlink:href="#DejaVuSans-61" transform="translate(1328.173828 0)"/>
     <use xlink:href="#DejaVuSans-74" transform="translate(1389.453125 0)"/>
     <use xlink:href="#DejaVuSans-69" transform="translate(1428.662109 0)"/>
     <use xlink:href="#DejaVuSans-6f" transform="translate(1456.445312 0)"/>
     <use xlink:href="#DejaVuSans-6e" transform="translate(1517.626953 0)"/>
     <use xlink:href="#DejaVuSans-20" transform="translate(1581.005859 0)"/>
     <use xlink:href="#DejaVuSans-63" transform="translate(1612.792969 0)"/>
     <use xlink:href="#DejaVuSans-75" transform="translate(1667.773438 0)"/>
     <use xlink:href="#DejaVuSans-72" transform="translate(1731.152344 0)"/>
     <use xlink:href="#DejaVuSans-76" transform="translate(1772.265625 0)"/>
     <use xlink:href="#DejaVuSans-65" transform="translate(1831.445312 0)"/>
     <use xlink:href="#DejaVuSans-73" transform="translate(1892.96875 0)"/>
     <use xlink:href="#DejaVuSans-20" transform="translate(1945.068359 0)"/>
     <use xlink:href="#DejaVuSans-28" transform="translate(1976.855469 0)"/>
     <use xlink:href="#DejaVuSans-6d" transform="translate(2015.869141 0)"/>
     <use xlink:href="#DejaVuSans-69" transform="translate(2113.28125 0)"/>
     <use xlink:href="#DejaVuSans-78" transform="translate(2141.064453 0)"/>
     <use xlink:href="#DejaVuSans-31" transform="translate(2200.244141 0)"/>
     <use xlink:href="#DejaVuSans-31" transform="translate(2263.867188 0)"/>
     <use xlink:href="#DejaVuSans-2c" transform="translate(2327.490234 0)"/>
     <use xlink:href="#DejaVuSans-20" transform="translate(2359.277344 0)"/>
     <use xlink:href="#DejaVuSans-46" transform="translate(2391.064453 0)"/>
     <use xlink:href="#DejaVuSans-31" transform="translate(2448.583984 0)"/>
     <use xlink:href="#DejaVuSans-29" transform="translate(2512.207031 0)"/>
    </g>
   </g>
  </g>
 </g>
 <defs>
  <clipPath id="p0e2c65fdf6">
   <rect x="56.036" y="26.88" width="269.534" height="145.5175"/>
  </clipPath>
 </defs>
</svg>
