<?xml version="1.0" encoding="utf-8" standalone="no"?>
<!DOCTYPE svg PUBLIC "-//W3C//DTD SVG 1.1//EN"
  "http://www.w3.org/Graphics/SVG/1.1/DTD/svg11.dtd">
<svg xmlns:xlink="http://www.w3.org/1999/xlink" width="432pt" height="216pt" viewBox="0 0 432 216" xmlns="http://www.w3.org/2000/svg" version="1.1">
 <metadata>
  <rdf:RDF xmlns:dc="http://purl.org/dc/elements/1.1/" xmlns:cc="http://creativecommons.org/ns#" xmlns:rdf="http://www.w3.org/1999/02/22-rdf-syntax-ns#">
   <cc:Work>
    <dc:type rdf:resource="http://purl.org/dc/dcmitype/StillImage"/>
    <dc:date>2026-04-12T01:24:28.857826</dc:date>
    <dc:format>image/svg+xml</dc:format>
    <dc:creator>
     <cc:Agent>
      <dc:title>Matplotlib v3.10.7, https://matplotlib.org/</dc:title>
     </cc:Agent>
    </dc:creator>
   </cc:Work>
  </rdf:RDF>
 </metadata>
 <defs>
  <style type="text/css">*{stroke-linejoin: round; stroke-linecap: butt}</style>
 </defs>
 <g id="figure_1">
  <g id="patch_1">
   <path d="M 0 216 
L 432 216 
L 432 0 
L 0 0 
z
" style="fill: #ffffff"/>
  </g>
  <g id="axes_1">
   <g id="patch_2">
    <path d="M 56.036 172.3975 
L 325.57 172.3975 
L 325.57 26.88 
L 56.036 26.88 
z
" style="fill: #ffffff"/>
   </g>
   <g id="matplotlib.axis_1">
    <g id="xtick_1">
     <g id="line2d_1">
      <defs>
       <path id="m9ec7a3cdb1" d="M 0 0 
L 0 3.5 
" style="stroke: #000000; stroke-width: 0.8"/>
      </defs>
      <g>
       <use xlink:href="#m9ec7a3cdb1" x="56.036" y="172.3975" style="stroke: #000000; stroke-width: 0.8"/>
      </g>
     </g>
     <g id="text_1">
      <!-- 0 -->
      <g transform="translate(52.85475 186.995937) scale(0.1 -0.1)">
       <defs>
        <path id="DejaVuSans-30" d="M 2034 4250 
Q 1547 4250 1301 3770 
Q 1056 3291 1056 2328 
Q 1056 1369 1301 889 
Q 1547 409 2034 409 
Q 2525 409 2770 889 
Q 3016 1369 3016 2328 
Q 3016 3291 2770 3770 
Q 2525 4250 2034 4250 
z
M 2034 4750 
Q 2819 4750 3233 4129 
Q 3647 3509 3647 2328 
Q 3647 1150 3233 529 
Q 2819 -91 2034 -91 
Q 1250 -91 836 529 
Q 422 1150 422 2328 
Q 422 3509 836 4129 
Q 1250 4750 2034 4750 
z
" transform="scale(0.015625)"/>
       </defs>
       <use xlink:href="#DejaVuSans-30"/>
      </g>
     </g>
    </g>
    <g id="xtick_2">
     <g id="line2d_2">
      <g>
       <use xlink:href="#m9ec7a3cdb1" x="91.688646" y="172.3975" style="stroke: #000000; stroke-width: 0.8"/>
      </g>
     </g>
     <g id="text_2">
      <!-- 10 -->
      <g transform="translate(85.326146 186.995937) scale(0.1 -0.1)">
       <defs>
        <path id="DejaVuSans-31" d="M 794 531 
L 1825 531 
L 1825 4091 
L 703 3866 
L 703 4441 
L 1819 4666 
L 2450 4666 
L 2450 531 
L 3481 531 
L 3481 0 
L 794 0 
L 794 531 
z
" transform="scale(0.015625)"/>
       </defs>
       <use xlink:href="#DejaVuSans-31"/>
       <use xlink:href="#DejaVuSans-30" transform="translate(63.623047 0)"/>
      </g>
     </g>
    </g>
    <g id="xtick_3">
     <g id="line2d_3">
      <g>
       <use xlink:href="#m9ec7a3cdb1" x="127.341291" y="172.3975" style="stroke: #000000; stroke-width: 0.8"/>
      </g>
     </g>
     <g id="text_3">
      <!-- 20 -->
      <g transform="translate(120.978791 186.995937) scale(0.1 -0.1)">
       <defs>
        <path id="DejaVuSans-32" d="M 1228 531 
L 3431 531 
L 3431 0 
L 469 0 
L 469 531 
Q 828 903 1448 1529 
Q 2069 2156 2228 2338 
Q 2531 2678 2651 2914 
Q 2772 3150 2772 3378 
Q 2772 3750 2511 3984 
Q 2250 4219 1831 4219 
Q 1534 4219 1204 4116 
Q 875 4013 500 3803 
L 500 4441 
Q 881 4594 1212 4672 
Q 1544 4750 1819 4750 
Q 2544 4750 2975 4387 
Q 3406 4025 3406 3419 
Q 3406 3131 3298 2873 
Q 3191 2616 2906 2266 
Q 2828 2175 2409 1742 
Q 1991 1309 1228 531 
z
" transform="scale(0.015625)"/>
       </defs>
       <use xlink:href="#DejaVuSans-32"/>
       <use xlink:href="#DejaVuSans-30" transform="translate(63.623047 0)"/>
      </g>
     </g>
    </g>
    <g id="xtick_4">
     <g id="line2d_4">
      <g>
       <use xlink:href="#m9ec7a3cdb1" x="162.993937" y="172.3975" style="stroke: #000000; stroke-width: 0.8"/>
      </g>
     </g>
     <g id="text_4">
      <!-- 30 -->
      <g transform="translate(156.631437 186.995937) scale(0.1 -0.1)">
       <defs>
        <path id="DejaVuSans-33" d="M 2597 2516 
Q 3050 2419 3304 2112 
Q 3559 1806 3559 1356 
Q 3559 666 3084 287 
Q 2609 -91 1734 -91 
Q 1441 -91 1130 -33 
Q 819 25 488 141 
L 488 750 
Q 750 597 1062 519 
Q 1375 441 1716 441 
Q 2309 441 2620 675 
Q 2931 909 2931 1356 
Q 2931 1769 2642 2001 
Q 2353 2234 1838 2234 
L 1294 2234 
L 1294 2753 
L 1863 2753 
Q 2328 2753 2575 2939 
Q 2822 3125 2822 3475 
Q 2822 3834 2567 4026 
Q 2313 4219 1838 4219 
Q 1578 4219 1281 4162 
Q 984 4106 628 3988 
L 628 4550 
Q 988 4650 1302 4700 
Q 1616 4750 1894 4750 
Q 2613 4750 3031 4423 
Q 3450 4097 3450 3541 
Q 3450 3153 3228 2886 
Q 3006 2619 2597 2516 
z
" transform="scale(0.015625)"/>
       </defs>
       <use xlink:href="#DejaVuSans-33"/>
       <use xlink:href="#DejaVuSans-30" transform="translate(63.623047 0)"/>
      </g>
     </g>
    </g>
    <g id="xtick_5">
     <g id="line2d_5">
      <g>
       <use xlink:href="#m9ec7a3cdb1" x="198.646582" y="172.3975" style="stroke: #000000; stroke-width: 0.8"/>
      </g>
     </g>
     <g id="text_5">
      <!-- 40 -->
      <g transform="translate(192.284082 186.995937) scale(0.1 -0.1)">
       <defs>
        <path id="DejaVuSans-34" d="M 2419 4116 
L 825 1625 
L 2419 1625 
L 2419 4116 
z
M 2253 4666 
L 3047 4666 
L 3047 1625 
L 3713 1625 
L 3713 1100 
L 3047 1100 
L 3047 0 
L 2419 0 
L 2419 1100 
L 313 1100 
L 313 1709 
L 2253 4666 
z
" transform="scale(0.015625)"/>
       </defs>
       <use xlink:href="#DejaVuSans-34"/>
       <use xlink:href="#DejaVuSans-30" transform="translate(63.623047 0)"/>
      </g>
     </g>
    </g>
    <g id="xtick_6">
     <g id="line2d_6">
      <g>
       <use xlink:href="#m9ec7a3cdb1" x="234.299228" y="172.3975" style="stroke: #000000; stroke-width: 0.8"/>
      </g>
     </g>
     <g id="text_6">
      <!-- 50 -->
      <g transform="translate(227.936728 186.995937) scale(0.1 -0.1)">
       <defs>
        <path id="DejaVuSans-35" d="M 691 4666 
L 3169 4666 
L 3169 4134 
L 1269 4134 
L 1269 2991 
Q 1406 3038 1543 3061 
Q 1681 3084 1819 3084 
Q 2600 3084 3056 2656 
Q 3513 2228 3513 1497 
Q 3513 744 3044 326 
Q 2575 -91 1722 -91 
Q 1428 -91 1123 -41 
Q 819 9 494 109 
L 494 744 
Q 775 591 1075 516 
Q 1375 441 1709 441 
Q 2250 441 2565 725 
Q 2881 1009 2881 1497 
Q 2881 1984 2565 2268 
Q 2250 2553 1709 2553 
Q 1456 2553 1204 2497 
Q 953 2441 691 2322 
L 691 4666 
z
" transform="scale(0.015625)"/>
       </defs>
       <use xlink:href="#DejaVuSans-35"/>
       <use xlink:href="#DejaVuSans-30" transform="translate(63.623047 0)"/>
      </g>
     </g>
    </g>
    <g id="xtick_7">
     <g id="line2d_7">
      <g>
       <use xlink:href="#m9ec7a3cdb1" x="269.951873" y="172.3975" style="stroke: #000000; stroke-width: 0.8"/>
      </g>
     </g>
     <g id="text_7">
      <!-- 60 -->
      <g transform="translate(263.589373 186.995937) scale(0.1 -0.1)">
       <defs>
        <path id="DejaVuSans-36" d="M 2113 2584 
Q 1688 2584 1439 2293 
Q 1191 2003 1191 1497 
Q 1191 994 1439 701 
Q 1688 409 2113 409 
Q 2538 409 2786 701 
Q 3034 994 3034 1497 
Q 3034 2003 2786 2293 
Q 2538 2584 2113 2584 
z
M 3366 4563 
L 3366 3988 
Q 3128 4100 2886 4159 
Q 2644 4219 2406 4219 
Q 1781 4219 1451 3797 
Q 1122 3375 1075 2522 
Q 1259 2794 1537 2939 
Q 1816 3084 2150 3084 
Q 2853 3084 3261 2657 
Q 3669 2231 3669 1497 
Q 3669 778 3244 343 
Q 2819 -91 2113 -91 
Q 1303 -91 875 529 
Q 447 1150 447 2328 
Q 447 3434 972 4092 
Q 1497 4750 2381 4750 
Q 2619 4750 2861 4703 
Q 3103 4656 3366 4563 
z
" transform="scale(0.015625)"/>
       </defs>
       <use xlink:href="#DejaVuSans-36"/>
       <use xlink:href="#DejaVuSans-30" transform="translate(63.623047 0)"/>
      </g>
     </g>
    </g>
    <g id="xtick_8">
     <g id="line2d_8">
      <g>
       <use xlink:href="#m9ec7a3cdb1" x="305.604519" y="172.3975" style="stroke: #000000; stroke-width: 0.8"/>
      </g>
     </g>
     <g id="text_8">
      <!-- 70 -->
      <g transform="translate(299.242019 186.995937) scale(0.1 -0.1)">
       <defs>
        <path id="DejaVuSans-37" d="M 525 4666 
L 3525 4666 
L 3525 4397 
L 1831 0 
L 1172 0 
L 2766 4134 
L 525 4134 
L 525 4666 
z
" transform="scale(0.015625)"/>
       </defs>
       <use xlink:href="#DejaVuSans-37"/>
       <use xlink:href="#DejaVuSans-30" transform="translate(63.623047 0)"/>
      </g>
     </g>
    </g>
    <g id="text_9">
     <!-- time $t$ [h] -->
     <g transform="translate(167.253 200.674062) scale(0.1 -0.1)">
      <defs>
       <path id="DejaVuSans-74" d="M 1172 4494 
L 1172 3500 
L 2356 3500 
L 2356 3053 
L 1172 3053 
L 1172 1153 
Q 1172 725 1289 603 
Q 1406 481 1766 481 
L 2356 481 
L 2356 0 
L 1766 0 
Q 1100 0 847 248 
Q 594 497 594 1153 
L 594 3053 
L 172 3053 
L 172 3500 
L 594 3500 
L 594 4494 
L 1172 4494 
z
" transform="scale(0.015625)"/>
       <path id="DejaVuSans-69" d="M 603 3500 
L 1178 3500 
L 1178 0 
L 603 0 
L 603 3500 
z
M 603 4863 
L 1178 4863 
L 1178 4134 
L 603 4134 
L 603 4863 
z
" transform="scale(0.015625)"/>
       <path id="DejaVuSans-6d" d="M 3328 2828 
Q 3544 3216 3844 3400 
Q 4144 3584 4550 3584 
Q 5097 3584 5394 3201 
Q 5691 2819 5691 2113 
L 5691 0 
L 5113 0 
L 5113 2094 
Q 5113 2597 4934 2840 
Q 4756 3084 4391 3084 
Q 3944 3084 3684 2787 
Q 3425 2491 3425 1978 
L 3425 0 
L 2847 0 
L 2847 2094 
Q 2847 2600 2669 2842 
Q 2491 3084 2119 3084 
Q 1678 3084 1418 2786 
Q 1159 2488 1159 1978 
L 1159 0 
L 581 0 
L 581 3500 
L 1159 3500 
L 1159 2956 
Q 1356 3278 1631 3431 
Q 1906 3584 2284 3584 
Q 2666 3584 2933 3390 
Q 3200 3197 3328 2828 
z
" transform="scale(0.015625)"/>
       <path id="DejaVuSans-65" d="M 3597 1894 
L 3597 1613 
L 953 1613 
Q 991 1019 1311 708 
Q 1631 397 2203 397 
Q 2534 397 2845 478 
Q 3156 559 3463 722 
L 3463 178 
Q 3153 47 2828 -22 
Q 2503 -91 2169 -91 
Q 1331 -91 842 396 
Q 353 884 353 1716 
Q 353 2575 817 3079 
Q 1281 3584 2069 3584 
Q 2775 3584 3186 3129 
Q 3597 2675 3597 1894 
z
M 3022 2063 
Q 3016 2534 2758 2815 
Q 2500 3097 2075 3097 
Q 1594 3097 1305 2825 
Q 1016 2553 972 2059 
L 3022 2063 
z
" transform="scale(0.015625)"/>
       <path id="DejaVuSans-20" transform="scale(0.015625)"/>
       <path id="DejaVuSans-Oblique-74" d="M 2706 3500 
L 2619 3053 
L 1472 3053 
L 1100 1153 
Q 1081 1047 1072 975 
Q 1063 903 1063 863 
Q 1063 663 1183 572 
Q 1303 481 1569 481 
L 2150 481 
L 2053 0 
L 1503 0 
Q 991 0 739 200 
Q 488 400 488 806 
Q 488 878 497 964 
Q 506 1050 525 1153 
L 897 3053 
L 409 3053 
L 500 3500 
L 978 3500 
L 1172 4494 
L 1747 4494 
L 1556 3500 
L 2706 3500 
z
" transform="scale(0.015625)"/>
       <path id="DejaVuSans-5b" d="M 550 4863 
L 1875 4863 
L 1875 4416 
L 1125 4416 
L 1125 -397 
L 1875 -397 
L 1875 -844 
L 550 -844 
L 550 4863 
z
" transform="scale(0.015625)"/>
       <path id="DejaVuSans-68" d="M 3513 2113 
L 3513 0 
L 2938 0 
L 2938 2094 
Q 2938 2591 2744 2837 
Q 2550 3084 2163 3084 
Q 1697 3084 1428 2787 
Q 1159 2491 1159 1978 
L 1159 0 
L 581 0 
L 581 4863 
L 1159 4863 
L 1159 2956 
Q 1366 3272 1645 3428 
Q 1925 3584 2291 3584 
Q 2894 3584 3203 3211 
Q 3513 2838 3513 2113 
z
" transform="scale(0.015625)"/>
       <path id="DejaVuSans-5d" d="M 1947 4863 
L 1947 -844 
L 622 -844 
L 622 -397 
L 1369 -397 
L 1369 4416 
L 622 4416 
L 622 4863 
L 1947 4863 
z
" transform="scale(0.015625)"/>
      </defs>
      <use xlink:href="#DejaVuSans-74" transform="translate(0 0.015625)"/>
      <use xlink:href="#DejaVuSans-69" transform="translate(39.208984 0.015625)"/>
      <use xlink:href="#DejaVuSans-6d" transform="translate(66.992188 0.015625)"/>
      <use xlink:href="#DejaVuSans-65" transform="translate(164.404297 0.015625)"/>
      <use xlink:href="#DejaVuSans-20" transform="translate(225.927734 0.015625)"/>
      <use xlink:href="#DejaVuSans-Oblique-74" transform="translate(257.714844 0.015625)"/>
      <use xlink:href="#DejaVuSans-20" transform="translate(296.923828 0.015625)"/>
      <use xlink:href="#DejaVuSans-5b" transform="translate(328.710938 0.015625)"/>
      <use xlink:href="#DejaVuSans-68" transform="translate(367.724609 0.015625)"/>
      <use xlink:href="#DejaVuSans-5d" transform="translate(431.103516 0.015625)"/>
     </g>
    </g>
   </g>
   <g id="matplotlib.axis_2">
    <g id="ytick_1">
     <g id="line2d_9">
      <defs>
       <path id="m9c209d3f42" d="M 0 0 
L -3.5 0 
" style="stroke: #000000; stroke-width: 0.8"/>
      </defs>
      <g>
       <use xlink:href="#m9c209d3f42" x="56.036" y="165.821912" style="stroke: #000000; stroke-width: 0.8"/>
      </g>
     </g>
     <g id="text_10">
      <!-- 0.00 -->
      <g transform="translate(26.770375 169.62113) scale(0.1 -0.1)">
       <defs>
        <path id="DejaVuSans-2e" d="M 684 794 
L 1344 794 
L 1344 0 
L 684 0 
L 684 794 
z
" transform="scale(0.015625)"/>
       </defs>
       <use xlink:href="#DejaVuSans-30"/>
       <use xlink:href="#DejaVuSans-2e" transform="translate(63.623047 0)"/>
       <use xlink:href="#DejaVuSans-30" transform="translate(95.410156 0)"/>
       <use xlink:href="#DejaVuSans-30" transform="translate(159.033203 0)"/>
      </g>
     </g>
    </g>
    <g id="ytick_2">
     <g id="line2d_10">
      <g>
       <use xlink:href="#m9c209d3f42" x="56.036" y="144.206029" style="stroke: #000000; stroke-width: 0.8"/>
      </g>
     </g>
     <g id="text_11">
      <!-- 0.25 -->
      <g transform="translate(26.770375 148.005247) scale(0.1 -0.1)">
       <use xlink:href="#DejaVuSans-30"/>
       <use xlink:href="#DejaVuSans-2e" transform="translate(63.623047 0)"/>
       <use xlink:href="#DejaVuSans-32" transform="translate(95.410156 0)"/>
       <use xlink:href="#DejaVuSans-35" transform="translate(159.033203 0)"/>
      </g>
     </g>
    </g>
    <g id="ytick_3">
     <g id="line2d_11">
      <g>
       <use xlink:href="#m9c209d3f42" x="56.036" y="122.590146" style="stroke: #000000; stroke-width: 0.8"/>
      </g>
     </g>
     <g id="text_12">
      <!-- 0.50 -->
      <g transform="translate(26.770375 126.389364) scale(0.1 -0.1)">
       <use xlink:href="#DejaVuSans-30"/>
       <use xlink:href="#DejaVuSans-2e" transform="translate(63.623047 0)"/>
       <use xlink:href="#DejaVuSans-35" transform="translate(95.410156 0)"/>
       <use xlink:href="#DejaVuSans-30" transform="translate(159.033203 0)"/>
      </g>
     </g>
    </g>
    <g id="ytick_4">
     <g id="line2d_12">
      <g>
       <use xlink:href="#m9c209d3f42" x="56.036" y="100.974263" style="stroke: #000000; stroke-width: 0.8"/>
      </g>
     </g>
     <g id="text_13">
      <!-- 0.75 -->
      <g transform="translate(26.770375 104.773482) scale(0.1 -0.1)">
       <use xlink:href="#DejaVuSans-30"/>
       <use xlink:href="#DejaVuSans-2e" transform="translate(63.623047 0)"/>
       <use xlink:href="#DejaVuSans-37" transform="translate(95.410156 0)"/>
       <use xlink:href="#DejaVuSans-35" transform="translate(159.033203 0)"/>
      </g>
     </g>
    </g>
    <g id="ytick_5">
     <g id="line2d_13">
      <g>
       <use xlink:href="#m9c209d3f42" x="56.036" y="79.35838" style="stroke: #000000; stroke-width: 0.8"/>
      </g>
     </g>
     <g id="text_14">
      <!-- 1.00 -->
      <g transform="translate(26.770375 83.157599) scale(0.1 -0.1)">
       <use xlink:href="#DejaVuSans-31"/>
       <use xlink:href="#DejaVuSans-2e" transform="translate(63.623047 0)"/>
       <use xlink:href="#DejaVuSans-30" transform="translate(95.410156 0)"/>
       <use xlink:href="#DejaVuSans-30" transform="translate(159.033203 0)"/>
      </g>
     </g>
    </g>
    <g id="ytick_6">
     <g id="line2d_14">
      <g>
       <use xlink:href="#m9c209d3f42" x="56.036" y="57.742497" style="stroke: #000000; stroke-width: 0.8"/>
      </g>
     </g>
     <g id="text_15">
      <!-- 1.25 -->
      <g transform="translate(26.770375 61.541716) scale(0.1 -0.1)">
       <use xlink:href="#DejaVuSans-31"/>
       <use xlink:href="#DejaVuSans-2e" transform="translate(63.623047 0)"/>
       <use xlink:href="#DejaVuSans-32" transform="translate(95.410156 0)"/>
       <use xlink:href="#DejaVuSans-35" transform="translate(159.033203 0)"/>
      </g>
     </g>
    </g>
    <g id="ytick_7">
     <g id="line2d_15">
      <g>
       <use xlink:href="#m9c209d3f42" x="56.036" y="36.126614" style="stroke: #000000; stroke-width: 0.8"/>
      </g>
     </g>
     <g id="text_16">
      <!-- 1.50 -->
      <g transform="translate(26.770375 39.925833) scale(0.1 -0.1)">
       <use xlink:href="#DejaVuSans-31"/>
       <use xlink:href="#DejaVuSans-2e" transform="translate(63.623047 0)"/>
       <use xlink:href="#DejaVuSans-35" transform="translate(95.410156 0)"/>
       <use xlink:href="#DejaVuSans-30" transform="translate(159.033203 0)"/>
      </g>
     </g>
    </g>
    <g id="text_17">
     <!-- concentration $S_i$ [mM/l] -->
     <g transform="translate(20.690687 157.93875) rotate(-90) scale(0.1 -0.1)">
      <defs>
       <path id="DejaVuSans-63" d="M 3122 3366 
L 3122 2828 
Q 2878 2963 2633 3030 
Q 2388 3097 2138 3097 
Q 1578 3097 1268 2742 
Q 959 2388 959 1747 
Q 959 1106 1268 751 
Q 1578 397 2138 397 
Q 2388 397 2633 464 
Q 2878 531 3122 666 
L 3122 134 
Q 2881 22 2623 -34 
Q 2366 -91 2075 -91 
Q 1284 -91 818 406 
Q 353 903 353 1747 
Q 353 2603 823 3093 
Q 1294 3584 2113 3584 
Q 2378 3584 2631 3529 
Q 2884 3475 3122 3366 
z
" transform="scale(0.015625)"/>
       <path id="DejaVuSans-6f" d="M 1959 3097 
Q 1497 3097 1228 2736 
Q 959 2375 959 1747 
Q 959 1119 1226 758 
Q 1494 397 1959 397 
Q 2419 397 2687 759 
Q 2956 1122 2956 1747 
Q 2956 2369 2687 2733 
Q 2419 3097 1959 3097 
z
M 1959 3584 
Q 2709 3584 3137 3096 
Q 3566 2609 3566 1747 
Q 3566 888 3137 398 
Q 2709 -91 1959 -91 
Q 1206 -91 779 398 
Q 353 888 353 1747 
Q 353 2609 779 3096 
Q 1206 3584 1959 3584 
z
" transform="scale(0.015625)"/>
       <path id="DejaVuSans-6e" d="M 3513 2113 
L 3513 0 
L 2938 0 
L 2938 2094 
Q 2938 2591 2744 2837 
Q 2550 3084 2163 3084 
Q 1697 3084 1428 2787 
Q 1159 2491 1159 1978 
L 1159 0 
L 581 0 
L 581 3500 
L 1159 3500 
L 1159 2956 
Q 1366 3272 1645 3428 
Q 1925 3584 2291 3584 
Q 2894 3584 3203 3211 
Q 3513 2838 3513 2113 
z
" transform="scale(0.015625)"/>
       <path id="DejaVuSans-72" d="M 2631 2963 
Q 2534 3019 2420 3045 
Q 2306 3072 2169 3072 
Q 1681 3072 1420 2755 
Q 1159 2438 1159 1844 
L 1159 0 
L 581 0 
L 581 3500 
L 1159 3500 
L 1159 2956 
Q 1341 3275 1631 3429 
Q 1922 3584 2338 3584 
Q 2397 3584 2469 3576 
Q 2541 3569 2628 3553 
L 2631 2963 
z
" transform="scale(0.015625)"/>
       <path id="DejaVuSans-61" d="M 2194 1759 
Q 1497 1759 1228 1600 
Q 959 1441 959 1056 
Q 959 750 1161 570 
Q 1363 391 1709 391 
Q 2188 391 2477 730 
Q 2766 1069 2766 1631 
L 2766 1759 
L 2194 1759 
z
M 3341 1997 
L 3341 0 
L 2766 0 
L 2766 531 
Q 2569 213 2275 61 
Q 1981 -91 1556 -91 
Q 1019 -91 701 211 
Q 384 513 384 1019 
Q 384 1609 779 1909 
Q 1175 2209 1959 2209 
L 2766 2209 
L 2766 2266 
Q 2766 2663 2505 2880 
Q 2244 3097 1772 3097 
Q 1472 3097 1187 3025 
Q 903 2953 641 2809 
L 641 3341 
Q 956 3463 1253 3523 
Q 1550 3584 1831 3584 
Q 2591 3584 2966 3190 
Q 3341 2797 3341 1997 
z
" transform="scale(0.015625)"/>
       <path id="DejaVuSans-Oblique-53" d="M 3859 4513 
L 3738 3897 
Q 3422 4066 3111 4152 
Q 2800 4238 2509 4238 
Q 1944 4238 1609 3991 
Q 1275 3744 1275 3334 
Q 1275 3109 1398 2989 
Q 1522 2869 2034 2731 
L 2413 2638 
Q 3053 2472 3303 2217 
Q 3553 1963 3553 1503 
Q 3553 797 2998 353 
Q 2444 -91 1538 -91 
Q 1166 -91 791 -17 
Q 416 56 38 206 
L 166 856 
Q 513 641 861 531 
Q 1209 422 1556 422 
Q 2147 422 2503 684 
Q 2859 947 2859 1369 
Q 2859 1650 2717 1795 
Q 2575 1941 2106 2059 
L 1728 2156 
Q 1081 2325 845 2545 
Q 609 2766 609 3163 
Q 609 3859 1145 4304 
Q 1681 4750 2541 4750 
Q 2875 4750 3203 4690 
Q 3531 4631 3859 4513 
z
" transform="scale(0.015625)"/>
       <path id="DejaVuSans-Oblique-69" d="M 1172 4863 
L 1747 4863 
L 1606 4134 
L 1031 4134 
L 1172 4863 
z
M 909 3500 
L 1484 3500 
L 800 0 
L 225 0 
L 909 3500 
z
" transform="scale(0.015625)"/>
       <path id="DejaVuSans-4d" d="M 628 4666 
L 1569 4666 
L 2759 1491 
L 3956 4666 
L 4897 4666 
L 4897 0 
L 4281 0 
L 4281 4097 
L 3078 897 
L 2444 897 
L 1241 4097 
L 1241 0 
L 628 0 
L 628 4666 
z
" transform="scale(0.015625)"/>
       <path id="DejaVuSans-2f" d="M 1625 4666 
L 2156 4666 
L 531 -594 
L 0 -594 
L 1625 4666 
z
" transform="scale(0.015625)"/>
       <path id="DejaVuSans-6c" d="M 603 4863 
L 1178 4863 
L 1178 0 
L 603 0 
L 603 4863 
z
" transform="scale(0.015625)"/>
      </defs>
      <use xlink:href="#DejaVuSans-63" transform="translate(0 0.015625)"/>
      <use xlink:href="#DejaVuSans-6f" transform="translate(54.980469 0.015625)"/>
      <use xlink:href="#DejaVuSans-6e" transform="translate(116.162109 0.015625)"/>
      <use xlink:href="#DejaVuSans-63" transform="translate(179.541016 0.015625)"/>
      <use xlink:href="#DejaVuSans-65" transform="translate(234.521484 0.015625)"/>
      <use xlink:href="#DejaVuSans-6e" transform="translate(296.044922 0.015625)"/>
      <use xlink:href="#DejaVuSans-74" transform="translate(359.423828 0.015625)"/>
      <use xlink:href="#DejaVuSans-72" transform="translate(398.632812 0.015625)"/>
      <use xlink:href="#DejaVuSans-61" transform="translate(439.746094 0.015625)"/>
      <use xlink:href="#DejaVuSans-74" transform="translate(501.025391 0.015625)"/>
      <use xlink:href="#DejaVuSans-69" transform="translate(540.234375 0.015625)"/>
      <use xlink:href="#DejaVuSans-6f" transform="translate(568.017578 0.015625)"/>
      <use xlink:href="#DejaVuSans-6e" transform="translate(629.199219 0.015625)"/>
      <use xlink:href="#DejaVuSans-20" transform="translate(692.578125 0.015625)"/>
      <use xlink:href="#DejaVuSans-Oblique-53" transform="translate(724.365234 0.015625)"/>
      <use xlink:href="#DejaVuSans-Oblique-69" transform="translate(787.841797 -16.390625) scale(0.7)"/>
      <use xlink:href="#DejaVuSans-20" transform="translate(810.024414 0.015625)"/>
      <use xlink:href="#DejaVuSans-5b" transform="translate(841.811523 0.015625)"/>
      <use xlink:href="#DejaVuSans-6d" transform="translate(880.825195 0.015625)"/>
      <use xlink:href="#DejaVuSans-4d" transform="translate(978.237305 0.015625)"/>
      <use xlink:href="#DejaVuSans-2f" transform="translate(1064.516602 0.015625)"/>
      <use xlink:href="#DejaVuSans-6c" transform="translate(1098.208008 0.015625)"/>
      <use xlink:href="#DejaVuSans-5d" transform="translate(1125.991211 0.015625)"/>
     </g>
    </g>
   </g>
   <g id="line2d_16">
    <path d="M 56.036 54.722369 
L 64.949161 54.7886 
L 73.862323 55.656045 
L 82.775484 55.440535 
L 91.688646 52.804867 
L 100.601807 54.779219 
L 109.514968 56.727545 
L 118.42813 60.871266 
L 127.341291 66.713564 
L 136.254452 70.581121 
L 145.167614 76.293161 
L 154.080775 85.316236 
L 159.428672 92.792046 
L 164.776569 104.848002 
L 170.124466 114.030256 
L 175.472362 124.442843 
L 180.820259 132.052455 
L 186.168156 139.756832 
L 191.516053 147.77507 
L 196.86395 155.196581 
L 202.211847 160.998673 
L 207.559743 165.821912 
L 212.90764 165.821912 
L 218.255537 165.821912 
L 223.603434 165.821912 
L 232.516595 165.821912 
L 239.647124 165.821912 
L 312.735048 165.821912 
" clip-path="url(#pe0b20e1888)" style="fill: none; stroke: #eb8032; stroke-width: 1.5; stroke-linecap: square"/>
    <defs>
     <path id="m5105074823" d="M -3 3 
L 3 -3 
M -3 -3 
L 3 3 
" style="stroke: #eb8032"/>
    </defs>
    <g clip-path="url(#pe0b20e1888)">
     <use xlink:href="#m5105074823" x="56.036" y="54.722369" style="fill: #eb8032; stroke: #eb8032"/>
     <use xlink:href="#m5105074823" x="64.949161" y="54.7886" style="fill: #eb8032; stroke: #eb8032"/>
     <use xlink:href="#m5105074823" x="73.862323" y="55.656045" style="fill: #eb8032; stroke: #eb8032"/>
     <use xlink:href="#m5105074823" x="82.775484" y="55.440535" style="fill: #eb8032; stroke: #eb8032"/>
     <use xlink:href="#m5105074823" x="91.688646" y="52.804867" style="fill: #eb8032; stroke: #eb8032"/>
     <use xlink:href="#m5105074823" x="100.601807" y="54.779219" style="fill: #eb8032; stroke: #eb8032"/>
     <use xlink:href="#m5105074823" x="109.514968" y="56.727545" style="fill: #eb8032; stroke: #eb8032"/>
     <use xlink:href="#m5105074823" x="118.42813" y="60.871266" style="fill: #eb8032; stroke: #eb8032"/>
     <use xlink:href="#m5105074823" x="127.341291" y="66.713564" style="fill: #eb8032; stroke: #eb8032"/>
     <use xlink:href="#m5105074823" x="136.254452" y="70.581121" style="fill: #eb8032; stroke: #eb8032"/>
     <use xlink:href="#m5105074823" x="145.167614" y="76.293161" style="fill: #eb8032; stroke: #eb8032"/>
     <use xlink:href="#m5105074823" x="154.080775" y="85.316236" style="fill: #eb8032; stroke: #eb8032"/>
     <use xlink:href="#m5105074823" x="159.428672" y="92.792046" style="fill: #eb8032; stroke: #eb8032"/>
     <use xlink:href="#m5105074823" x="164.776569" y="104.848002" style="fill: #eb8032; stroke: #eb8032"/>
     <use xlink:href="#m5105074823" x="170.124466" y="114.030256" style="fill: #eb8032; stroke: #eb8032"/>
     <use xlink:href="#m5105074823" x="175.472362" y="124.442843" style="fill: #eb8032; stroke: #eb8032"/>
     <use xlink:href="#m5105074823" x="180.820259" y="132.052455" style="fill: #eb8032; stroke: #eb8032"/>
     <use xlink:href="#m5105074823" x="186.168156" y="139.756832" style="fill: #eb8032; stroke: #eb8032"/>
     <use xlink:href="#m5105074823" x="191.516053" y="147.77507" style="fill: #eb8032; stroke: #eb8032"/>
     <use xlink:href="#m5105074823" x="196.86395" y="155.196581" style="fill: #eb8032; stroke: #eb8032"/>
     <use xlink:href="#m5105074823" x="202.211847" y="160.998673" style="fill: #eb8032; stroke: #eb8032"/>
     <use xlink:href="#m5105074823" x="207.559743" y="165.821912" style="fill: #eb8032; stroke: #eb8032"/>
     <use xlink:href="#m5105074823" x="212.90764" y="165.821912" style="fill: #eb8032; stroke: #eb8032"/>
     <use xlink:href="#m5105074823" x="218.255537" y="165.821912" style="fill: #eb8032; stroke: #eb8032"/>
     <use xlink:href="#m5105074823" x="223.603434" y="165.821912" style="fill: #eb8032; stroke: #eb8032"/>
     <use xlink:href="#m5105074823" x="232.516595" y="165.821912" style="fill: #eb8032; stroke: #eb8032"/>
     <use xlink:href="#m5105074823" x="239.647124" y="165.821912" style="fill: #eb8032; stroke: #eb8032"/>
     <use xlink:href="#m5105074823" x="312.735048" y="165.821912" style="fill: #eb8032; stroke: #eb8032"/>
    </g>
   </g>
   <g id="line2d_17">
    <path d="M 56.036 85.883177 
L 64.949161 86.104178 
L 73.862323 86.525169 
L 82.775484 85.952435 
L 91.688646 84.007265 
L 100.601807 85.434086 
L 109.514968 87.056574 
L 118.42813 90.4721 
L 127.341291 93.128562 
L 136.254452 99.533867 
L 145.167614 108.94352 
L 154.080775 115.562087 
L 159.428672 121.115294 
L 164.776569 129.007123 
L 170.124466 135.219096 
L 175.472362 141.3424 
L 180.820259 145.853894 
L 186.168156 150.422195 
L 191.516053 154.660853 
L 196.86395 158.356434 
L 202.211847 165.821912 
L 207.559743 165.821912 
L 212.90764 165.821912 
L 218.255537 165.821912 
L 223.603434 165.821912 
L 232.516595 165.821912 
L 239.647124 165.821912 
L 312.735048 165.821912 
" clip-path="url(#pe0b20e1888)" style="fill: none; stroke: #eb8032; stroke-width: 1.5; stroke-linecap: square"/>
    <g clip-path="url(#pe0b20e1888)">
     <use xlink:href="#m5105074823" x="56.036" y="85.883177" style="fill: #eb8032; stroke: #eb8032"/>
     <use xlink:href="#m5105074823" x="64.949161" y="86.104178" style="fill: #eb8032; stroke: #eb8032"/>
     <use xlink:href="#m5105074823" x="73.862323" y="86.525169" style="fill: #eb8032; stroke: #eb8032"/>
     <use xlink:href="#m5105074823" x="82.775484" y="85.952435" style="fill: #eb8032; stroke: #eb8032"/>
     <use xlink:href="#m5105074823" x="91.688646" y="84.007265" style="fill: #eb8032; stroke: #eb8032"/>
     <use xlink:href="#m5105074823" x="100.601807" y="85.434086" style="fill: #eb8032; stroke: #eb8032"/>
     <use xlink:href="#m5105074823" x="109.514968" y="87.056574" style="fill: #eb8032; stroke: #eb8032"/>
     <use xlink:href="#m5105074823" x="118.42813" y="90.4721" style="fill: #eb8032; stroke: #eb8032"/>
     <use xlink:href="#m5105074823" x="127.341291" y="93.128562" style="fill: #eb8032; stroke: #eb8032"/>
     <use xlink:href="#m5105074823" x="136.254452" y="99.533867" style="fill: #eb8032; stroke: #eb8032"/>
     <use xlink:href="#m5105074823" x="145.167614" y="108.94352" style="fill: #eb8032; stroke: #eb8032"/>
     <use xlink:href="#m5105074823" x="154.080775" y="115.562087" style="fill: #eb8032; stroke: #eb8032"/>
     <use xlink:href="#m5105074823" x="159.428672" y="121.115294" style="fill: #eb8032; stroke: #eb8032"/>
     <use xlink:href="#m5105074823" x="164.776569" y="129.007123" style="fill: #eb8032; stroke: #eb8032"/>
     <use xlink:href="#m5105074823" x="170.124466" y="135.219096" style="fill: #eb8032; stroke: #eb8032"/>
     <use xlink:href="#m5105074823" x="175.472362" y="141.3424" style="fill: #eb8032; stroke: #eb8032"/>
     <use xlink:href="#m5105074823" x="180.820259" y="145.853894" style="fill: #eb8032; stroke: #eb8032"/>
     <use xlink:href="#m5105074823" x="186.168156" y="150.422195" style="fill: #eb8032; stroke: #eb8032"/>
     <use xlink:href="#m5105074823" x="191.516053" y="154.660853" style="fill: #eb8032; stroke: #eb8032"/>
     <use xlink:href="#m5105074823" x="196.86395" y="158.356434" style="fill: #eb8032; stroke: #eb8032"/>
     <use xlink:href="#m5105074823" x="202.211847" y="165.821912" style="fill: #eb8032; stroke: #eb8032"/>
     <use xlink:href="#m5105074823" x="207.559743" y="165.821912" style="fill: #eb8032; stroke: #eb8032"/>
     <use xlink:href="#m5105074823" x="212.90764" y="165.821912" style="fill: #eb8032; stroke: #eb8032"/>
     <use xlink:href="#m5105074823" x="218.255537" y="165.821912" style="fill: #eb8032; stroke: #eb8032"/>
     <use xlink:href="#m5105074823" x="223.603434" y="165.821912" style="fill: #eb8032; stroke: #eb8032"/>
     <use xlink:href="#m5105074823" x="232.516595" y="165.821912" style="fill: #eb8032; stroke: #eb8032"/>
     <use xlink:href="#m5105074823" x="239.647124" y="165.821912" style="fill: #eb8032; stroke: #eb8032"/>
     <use xlink:href="#m5105074823" x="312.735048" y="165.821912" style="fill: #eb8032; stroke: #eb8032"/>
    </g>
   </g>
   <g id="line2d_18">
    <path d="M 56.036 37.467361 
L 64.949161 37.946801 
L 73.862323 38.243328 
L 82.775484 37.440298 
L 91.688646 34.437679 
L 100.601807 35.306507 
L 109.514968 36.966002 
L 118.42813 41.442089 
L 127.341291 44.308139 
L 136.254452 53.05211 
L 145.167614 67.096857 
L 154.080775 74.600292 
L 159.428672 82.137318 
L 164.776569 92.973835 
L 170.124466 102.527105 
L 175.472362 112.959059 
L 180.820259 118.785404 
L 186.168156 125.269478 
L 191.516053 131.663758 
L 196.86395 137.435502 
L 202.211847 146.612309 
L 207.559743 153.841049 
L 212.90764 165.821912 
L 218.255537 165.821912 
L 223.603434 165.821912 
L 232.516595 165.821912 
L 239.647124 165.821912 
L 312.735048 165.821912 
" clip-path="url(#pe0b20e1888)" style="fill: none; stroke: #eb8032; stroke-width: 1.5; stroke-linecap: square"/>
    <g clip-path="url(#pe0b20e1888)">
     <use xlink:href="#m5105074823" x="56.036" y="37.467361" style="fill: #eb8032; stroke: #eb8032"/>
     <use xlink:href="#m5105074823" x="64.949161" y="37.946801" style="fill: #eb8032; stroke: #eb8032"/>
     <use xlink:href="#m5105074823" x="73.862323" y="38.243328" style="fill: #eb8032; stroke: #eb8032"/>
     <use xlink:href="#m5105074823" x="82.775484" y="37.440298" style="fill: #eb8032; stroke: #eb8032"/>
     <use xlink:href="#m5105074823" x="91.688646" y="34.437679" style="fill: #eb8032; stroke: #eb8032"/>
     <use xlink:href="#m5105074823" x="100.601807" y="35.306507" style="fill: #eb8032; stroke: #eb8032"/>
     <use xlink:href="#m5105074823" x="109.514968" y="36.966002" style="fill: #eb8032; stroke: #eb8032"/>
     <use xlink:href="#m5105074823" x="118.42813" y="41.442089" style="fill: #eb8032; stroke: #eb8032"/>
     <use xlink:href="#m5105074823" x="127.341291" y="44.308139" style="fill: #eb8032; stroke: #eb8032"/>
     <use xlink:href="#m5105074823" x="136.254452" y="53.05211" style="fill: #eb8032; stroke: #eb8032"/>
     <use xlink:href="#m5105074823" x="145.167614" y="67.096857" style="fill: #eb8032; stroke: #eb8032"/>
     <use xlink:href="#m5105074823" x="154.080775" y="74.600292" style="fill: #eb8032; stroke: #eb8032"/>
     <use xlink:href="#m5105074823" x="159.428672" y="82.137318" style="fill: #eb8032; stroke: #eb8032"/>
     <use xlink:href="#m5105074823" x="164.776569" y="92.973835" style="fill: #eb8032; stroke: #eb8032"/>
     <use xlink:href="#m5105074823" x="170.124466" y="102.527105" style="fill: #eb8032; stroke: #eb8032"/>
     <use xlink:href="#m5105074823" x="175.472362" y="112.959059" style="fill: #eb8032; stroke: #eb8032"/>
     <use xlink:href="#m5105074823" x="180.820259" y="118.785404" style="fill: #eb8032; stroke: #eb8032"/>
     <use xlink:href="#m5105074823" x="186.168156" y="125.269478" style="fill: #eb8032; stroke: #eb8032"/>
     <use xlink:href="#m5105074823" x="191.516053" y="131.663758" style="fill: #eb8032; stroke: #eb8032"/>
     <use xlink:href="#m5105074823" x="196.86395" y="137.435502" style="fill: #eb8032; stroke: #eb8032"/>
     <use xlink:href="#m5105074823" x="202.211847" y="146.612309" style="fill: #eb8032; stroke: #eb8032"/>
     <use xlink:href="#m5105074823" x="207.559743" y="153.841049" style="fill: #eb8032; stroke: #eb8032"/>
     <use xlink:href="#m5105074823" x="212.90764" y="165.821912" style="fill: #eb8032; stroke: #eb8032"/>
     <use xlink:href="#m5105074823" x="218.255537" y="165.821912" style="fill: #eb8032; stroke: #eb8032"/>
     <use xlink:href="#m5105074823" x="223.603434" y="165.821912" style="fill: #eb8032; stroke: #eb8032"/>
     <use xlink:href="#m5105074823" x="232.516595" y="165.821912" style="fill: #eb8032; stroke: #eb8032"/>
     <use xlink:href="#m5105074823" x="239.647124" y="165.821912" style="fill: #eb8032; stroke: #eb8032"/>
     <use xlink:href="#m5105074823" x="312.735048" y="165.821912" style="fill: #eb8032; stroke: #eb8032"/>
    </g>
   </g>
   <g id="line2d_19">
    <path d="M 56.036 35.744186 
L 64.949161 37.607691 
L 73.862323 35.854297 
L 82.775484 37.07179 
L 91.688646 34.310145 
L 100.601807 35.954162 
L 109.514968 37.445702 
L 118.42813 41.95832 
L 127.341291 41.477366 
L 136.254452 51.83881 
L 145.167614 60.97446 
L 154.080775 63.3612 
L 159.428672 70.448486 
L 164.776569 81.45378 
L 170.124466 90.081587 
L 175.472362 100.985071 
L 180.820259 107.71764 
L 186.168156 116.52555 
L 191.516053 125.931356 
L 196.86395 136.923724 
L 202.211847 151.633203 
L 207.559743 165.821912 
L 212.90764 165.821912 
L 218.255537 165.821912 
L 223.603434 165.821912 
L 232.516595 165.821912 
L 239.647124 165.821912 
L 312.735048 165.821912 
" clip-path="url(#pe0b20e1888)" style="fill: none; stroke: #f77189; stroke-width: 1.5; stroke-linecap: square"/>
    <defs>
     <path id="medc809a89d" d="M -3 3 
L 3 -3 
M -3 -3 
L 3 3 
" style="stroke: #f77189"/>
    </defs>
    <g clip-path="url(#pe0b20e1888)">
     <use xlink:href="#medc809a89d" x="56.036" y="35.744186" style="fill: #f77189; stroke: #f77189"/>
     <use xlink:href="#medc809a89d" x="64.949161" y="37.607691" style="fill: #f77189; stroke: #f77189"/>
     <use xlink:href="#medc809a89d" x="73.862323" y="35.854297" style="fill: #f77189; stroke: #f77189"/>
     <use xlink:href="#medc809a89d" x="82.775484" y="37.07179" style="fill: #f77189; stroke: #f77189"/>
     <use xlink:href="#medc809a89d" x="91.688646" y="34.310145" style="fill: #f77189; stroke: #f77189"/>
     <use xlink:href="#medc809a89d" x="100.601807" y="35.954162" style="fill: #f77189; stroke: #f77189"/>
     <use xlink:href="#medc809a89d" x="109.514968" y="37.445702" style="fill: #f77189; stroke: #f77189"/>
     <use xlink:href="#medc809a89d" x="118.42813" y="41.95832" style="fill: #f77189; stroke: #f77189"/>
     <use xlink:href="#medc809a89d" x="127.341291" y="41.477366" style="fill: #f77189; stroke: #f77189"/>
     <use xlink:href="#medc809a89d" x="136.254452" y="51.83881" style="fill: #f77189; stroke: #f77189"/>
     <use xlink:href="#medc809a89d" x="145.167614" y="60.97446" style="fill: #f77189; stroke: #f77189"/>
     <use xlink:href="#medc809a89d" x="154.080775" y="63.3612" style="fill: #f77189; stroke: #f77189"/>
     <use xlink:href="#medc809a89d" x="159.428672" y="70.448486" style="fill: #f77189; stroke: #f77189"/>
     <use xlink:href="#medc809a89d" x="164.776569" y="81.45378" style="fill: #f77189; stroke: #f77189"/>
     <use xlink:href="#medc809a89d" x="170.124466" y="90.081587" style="fill: #f77189; stroke: #f77189"/>
     <use xlink:href="#medc809a89d" x="175.472362" y="100.985071" style="fill: #f77189; stroke: #f77189"/>
     <use xlink:href="#medc809a89d" x="180.820259" y="107.71764" style="fill: #f77189; stroke: #f77189"/>
     <use xlink:href="#medc809a89d" x="186.168156" y="116.52555" style="fill: #f77189; stroke: #f77189"/>
     <use xlink:href="#medc809a89d" x="191.516053" y="125.931356" style="fill: #f77189; stroke: #f77189"/>
     <use xlink:href="#medc809a89d" x="196.86395" y="136.923724" style="fill: #f77189; stroke: #f77189"/>
     <use xlink:href="#medc809a89d" x="202.211847" y="151.633203" style="fill: #f77189; stroke: #f77189"/>
     <use xlink:href="#medc809a89d" x="207.559743" y="165.821912" style="fill: #f77189; stroke: #f77189"/>
     <use xlink:href="#medc809a89d" x="212.90764" y="165.821912" style="fill: #f77189; stroke: #f77189"/>
     <use xlink:href="#medc809a89d" x="218.255537" y="165.821912" style="fill: #f77189; stroke: #f77189"/>
     <use xlink:href="#medc809a89d" x="223.603434" y="165.821912" style="fill: #f77189; stroke: #f77189"/>
     <use xlink:href="#medc809a89d" x="232.516595" y="165.821912" style="fill: #f77189; stroke: #f77189"/>
     <use xlink:href="#medc809a89d" x="239.647124" y="165.821912" style="fill: #f77189; stroke: #f77189"/>
     <use xlink:href="#medc809a89d" x="312.735048" y="165.821912" style="fill: #f77189; stroke: #f77189"/>
    </g>
   </g>
   <g id="line2d_20">
    <path d="M 56.036 39.908918 
L 64.949161 40.744588 
L 73.862323 41.251091 
L 82.775484 40.726906 
L 91.688646 38.086483 
L 100.601807 41.343521 
L 109.514968 44.882905 
L 118.42813 51.68404 
L 127.341291 59.321883 
L 136.254452 71.993373 
L 145.167614 90.981586 
L 154.080775 105.826856 
L 159.428672 116.591781 
L 164.776569 129.265779 
L 170.124466 138.728391 
L 175.472362 147.132819 
L 180.820259 153.422133 
L 186.168156 158.519072 
L 191.516053 165.821912 
L 196.86395 165.821912 
L 202.211847 165.821912 
L 207.559743 165.821912 
L 212.90764 165.821912 
L 218.255537 165.821912 
L 223.603434 165.821912 
L 232.516595 165.821912 
L 239.647124 165.821912 
L 312.735048 165.821912 
" clip-path="url(#pe0b20e1888)" style="fill: none; stroke: #c19632; stroke-width: 1.5; stroke-linecap: square"/>
    <defs>
     <path id="m00e76d5597" d="M -3 3 
L 3 -3 
M -3 -3 
L 3 3 
" style="stroke: #c19632"/>
    </defs>
    <g clip-path="url(#pe0b20e1888)">
     <use xlink:href="#m00e76d5597" x="56.036" y="39.908918" style="fill: #c19632; stroke: #c19632"/>
     <use xlink:href="#m00e76d5597" x="64.949161" y="40.744588" style="fill: #c19632; stroke: #c19632"/>
     <use xlink:href="#m00e76d5597" x="73.862323" y="41.251091" style="fill: #c19632; stroke: #c19632"/>
     <use xlink:href="#m00e76d5597" x="82.775484" y="40.726906" style="fill: #c19632; stroke: #c19632"/>
     <use xlink:href="#m00e76d5597" x="91.688646" y="38.086483" style="fill: #c19632; stroke: #c19632"/>
     <use xlink:href="#m00e76d5597" x="100.601807" y="41.343521" style="fill: #c19632; stroke: #c19632"/>
     <use xlink:href="#m00e76d5597" x="109.514968" y="44.882905" style="fill: #c19632; stroke: #c19632"/>
     <use xlink:href="#m00e76d5597" x="118.42813" y="51.68404" style="fill: #c19632; stroke: #c19632"/>
     <use xlink:href="#m00e76d5597" x="127.341291" y="59.321883" style="fill: #c19632; stroke: #c19632"/>
     <use xlink:href="#m00e76d5597" x="136.254452" y="71.993373" style="fill: #c19632; stroke: #c19632"/>
     <use xlink:href="#m00e76d5597" x="145.167614" y="90.981586" style="fill: #c19632; stroke: #c19632"/>
     <use xlink:href="#m00e76d5597" x="154.080775" y="105.826856" style="fill: #c19632; stroke: #c19632"/>
     <use xlink:href="#m00e76d5597" x="159.428672" y="116.591781" style="fill: #c19632; stroke: #c19632"/>
     <use xlink:href="#m00e76d5597" x="164.776569" y="129.265779" style="fill: #c19632; stroke: #c19632"/>
     <use xlink:href="#m00e76d5597" x="170.124466" y="138.728391" style="fill: #c19632; stroke: #c19632"/>
     <use xlink:href="#m00e76d5597" x="175.472362" y="147.132819" style="fill: #c19632; stroke: #c19632"/>
     <use xlink:href="#m00e76d5597" x="180.820259" y="153.422133" style="fill: #c19632; stroke: #c19632"/>
     <use xlink:href="#m00e76d5597" x="186.168156" y="158.519072" style="fill: #c19632; stroke: #c19632"/>
     <use xlink:href="#m00e76d5597" x="191.516053" y="165.821912" style="fill: #c19632; stroke: #c19632"/>
     <use xlink:href="#m00e76d5597" x="196.86395" y="165.821912" style="fill: #c19632; stroke: #c19632"/>
     <use xlink:href="#m00e76d5597" x="202.211847" y="165.821912" style="fill: #c19632; stroke: #c19632"/>
     <use xlink:href="#m00e76d5597" x="207.559743" y="165.821912" style="fill: #c19632; stroke: #c19632"/>
     <use xlink:href="#m00e76d5597" x="212.90764" y="165.821912" style="fill: #c19632; stroke: #c19632"/>
     <use xlink:href="#m00e76d5597" x="218.255537" y="165.821912" style="fill: #c19632; stroke: #c19632"/>
     <use xlink:href="#m00e76d5597" x="223.603434" y="165.821912" style="fill: #c19632; stroke: #c19632"/>
     <use xlink:href="#m00e76d5597" x="232.516595" y="165.821912" style="fill: #c19632; stroke: #c19632"/>
     <use xlink:href="#m00e76d5597" x="239.647124" y="165.821912" style="fill: #c19632; stroke: #c19632"/>
     <use xlink:href="#m00e76d5597" x="312.735048" y="165.821912" style="fill: #c19632; stroke: #c19632"/>
    </g>
   </g>
   <g id="line2d_21">
    <path d="M 56.036 47.318756 
L 64.949161 48.678871 
L 73.862323 48.883703 
L 82.775484 49.488429 
L 91.688646 46.486501 
L 100.601807 47.412569 
L 109.514968 50.809159 
L 118.42813 59.032879 
L 127.341291 61.138914 
L 136.254452 77.221001 
L 145.167614 95.059422 
L 154.080775 106.147073 
L 159.428672 116.184452 
L 164.776569 127.765464 
L 170.124466 136.93838 
L 175.472362 145.816931 
L 180.820259 152.668733 
L 186.168156 158.284367 
L 191.516053 165.821912 
L 196.86395 165.821912 
L 202.211847 165.821912 
L 207.559743 165.821912 
L 212.90764 165.821912 
L 218.255537 165.821912 
L 223.603434 165.821912 
L 232.516595 165.821912 
L 239.647124 165.821912 
L 312.735048 165.821912 
" clip-path="url(#pe0b20e1888)" style="fill: none; stroke: #c19632; stroke-width: 1.5; stroke-linecap: square"/>
    <g clip-path="url(#pe0b20e1888)">
     <use xlink:href="#m00e76d5597" x="56.036" y="47.318756" style="fill: #c19632; stroke: #c19632"/>
     <use xlink:href="#m00e76d5597" x="64.949161" y="48.678871" style="fill: #c19632; stroke: #c19632"/>
     <use xlink:href="#m00e76d5597" x="73.862323" y="48.883703" style="fill: #c19632; stroke: #c19632"/>
     <use xlink:href="#m00e76d5597" x="82.775484" y="49.488429" style="fill: #c19632; stroke: #c19632"/>
     <use xlink:href="#m00e76d5597" x="91.688646" y="46.486501" style="fill: #c19632; stroke: #c19632"/>
     <use xlink:href="#m00e76d5597" x="100.601807" y="47.412569" style="fill: #c19632; stroke: #c19632"/>
     <use xlink:href="#m00e76d5597" x="109.514968" y="50.809159" style="fill: #c19632; stroke: #c19632"/>
     <use xlink:href="#m00e76d5597" x="118.42813" y="59.032879" style="fill: #c19632; stroke: #c19632"/>
     <use xlink:href="#m00e76d5597" x="127.341291" y="61.138914" style="fill: #c19632; stroke: #c19632"/>
     <use xlink:href="#m00e76d5597" x="136.254452" y="77.221001" style="fill: #c19632; stroke: #c19632"/>
     <use xlink:href="#m00e76d5597" x="145.167614" y="95.059422" style="fill: #c19632; stroke: #c19632"/>
     <use xlink:href="#m00e76d5597" x="154.080775" y="106.147073" style="fill: #c19632; stroke: #c19632"/>
     <use xlink:href="#m00e76d5597" x="159.428672" y="116.184452" style="fill: #c19632; stroke: #c19632"/>
     <use xlink:href="#m00e76d5597" x="164.776569" y="127.765464" style="fill: #c19632; stroke: #c19632"/>
     <use xlink:href="#m00e76d5597" x="170.124466" y="136.93838" style="fill: #c19632; stroke: #c19632"/>
     <use xlink:href="#m00e76d5597" x="175.472362" y="145.816931" style="fill: #c19632; stroke: #c19632"/>
     <use xlink:href="#m00e76d5597" x="180.820259" y="152.668733" style="fill: #c19632; stroke: #c19632"/>
     <use xlink:href="#m00e76d5597" x="186.168156" y="158.284367" style="fill: #c19632; stroke: #c19632"/>
     <use xlink:href="#m00e76d5597" x="191.516053" y="165.821912" style="fill: #c19632; stroke: #c19632"/>
     <use xlink:href="#m00e76d5597" x="196.86395" y="165.821912" style="fill: #c19632; stroke: #c19632"/>
     <use xlink:href="#m00e76d5597" x="202.211847" y="165.821912" style="fill: #c19632; stroke: #c19632"/>
     <use xlink:href="#m00e76d5597" x="207.559743" y="165.821912" style="fill: #c19632; stroke: #c19632"/>
     <use xlink:href="#m00e76d5597" x="212.90764" y="165.821912" style="fill: #c19632; stroke: #c19632"/>
     <use xlink:href="#m00e76d5597" x="218.255537" y="165.821912" style="fill: #c19632; stroke: #c19632"/>
     <use xlink:href="#m00e76d5597" x="223.603434" y="165.821912" style="fill: #c19632; stroke: #c19632"/>
     <use xlink:href="#m00e76d5597" x="232.516595" y="165.821912" style="fill: #c19632; stroke: #c19632"/>
     <use xlink:href="#m00e76d5597" x="239.647124" y="165.821912" style="fill: #c19632; stroke: #c19632"/>
     <use xlink:href="#m00e76d5597" x="312.735048" y="165.821912" style="fill: #c19632; stroke: #c19632"/>
    </g>
   </g>
   <g id="line2d_22">
    <path d="M 56.036 45.430998 
L 64.949161 45.556802 
L 73.862323 46.613473 
L 82.775484 46.422735 
L 91.688646 44.328977 
L 100.601807 47.209769 
L 109.514968 50.745522 
L 118.42813 57.432568 
L 127.341291 60.540673 
L 136.254452 75.486111 
L 145.167614 90.724703 
L 154.080775 102.264558 
L 159.428672 111.641744 
L 164.776569 124.585292 
L 170.124466 134.484674 
L 175.472362 143.995836 
L 180.820259 150.902975 
L 186.168156 157.658068 
L 191.516053 165.821912 
L 196.86395 165.821912 
L 202.211847 165.821912 
L 207.559743 165.821912 
L 212.90764 165.821912 
L 218.255537 165.821912 
L 223.603434 165.821912 
L 232.516595 165.821912 
L 239.647124 165.821912 
L 312.735048 165.821912 
" clip-path="url(#pe0b20e1888)" style="fill: none; stroke: #c19632; stroke-width: 1.5; stroke-linecap: square"/>
    <g clip-path="url(#pe0b20e1888)">
     <use xlink:href="#m00e76d5597" x="56.036" y="45.430998" style="fill: #c19632; stroke: #c19632"/>
     <use xlink:href="#m00e76d5597" x="64.949161" y="45.556802" style="fill: #c19632; stroke: #c19632"/>
     <use xlink:href="#m00e76d5597" x="73.862323" y="46.613473" style="fill: #c19632; stroke: #c19632"/>
     <use xlink:href="#m00e76d5597" x="82.775484" y="46.422735" style="fill: #c19632; stroke: #c19632"/>
     <use xlink:href="#m00e76d5597" x="91.688646" y="44.328977" style="fill: #c19632; stroke: #c19632"/>
     <use xlink:href="#m00e76d5597" x="100.601807" y="47.209769" style="fill: #c19632; stroke: #c19632"/>
     <use xlink:href="#m00e76d5597" x="109.514968" y="50.745522" style="fill: #c19632; stroke: #c19632"/>
     <use xlink:href="#m00e76d5597" x="118.42813" y="57.432568" style="fill: #c19632; stroke: #c19632"/>
     <use xlink:href="#m00e76d5597" x="127.341291" y="60.540673" style="fill: #c19632; stroke: #c19632"/>
     <use xlink:href="#m00e76d5597" x="136.254452" y="75.486111" style="fill: #c19632; stroke: #c19632"/>
     <use xlink:href="#m00e76d5597" x="145.167614" y="90.724703" style="fill: #c19632; stroke: #c19632"/>
     <use xlink:href="#m00e76d5597" x="154.080775" y="102.264558" style="fill: #c19632; stroke: #c19632"/>
     <use xlink:href="#m00e76d5597" x="159.428672" y="111.641744" style="fill: #c19632; stroke: #c19632"/>
     <use xlink:href="#m00e76d5597" x="164.776569" y="124.585292" style="fill: #c19632; stroke: #c19632"/>
     <use xlink:href="#m00e76d5597" x="170.124466" y="134.484674" style="fill: #c19632; stroke: #c19632"/>
     <use xlink:href="#m00e76d5597" x="175.472362" y="143.995836" style="fill: #c19632; stroke: #c19632"/>
     <use xlink:href="#m00e76d5597" x="180.820259" y="150.902975" style="fill: #c19632; stroke: #c19632"/>
     <use xlink:href="#m00e76d5597" x="186.168156" y="157.658068" style="fill: #c19632; stroke: #c19632"/>
     <use xlink:href="#m00e76d5597" x="191.516053" y="165.821912" style="fill: #c19632; stroke: #c19632"/>
     <use xlink:href="#m00e76d5597" x="196.86395" y="165.821912" style="fill: #c19632; stroke: #c19632"/>
     <use xlink:href="#m00e76d5597" x="202.211847" y="165.821912" style="fill: #c19632; stroke: #c19632"/>
     <use xlink:href="#m00e76d5597" x="207.559743" y="165.821912" style="fill: #c19632; stroke: #c19632"/>
     <use xlink:href="#m00e76d5597" x="212.90764" y="165.821912" style="fill: #c19632; stroke: #c19632"/>
     <use xlink:href="#m00e76d5597" x="218.255537" y="165.821912" style="fill: #c19632; stroke: #c19632"/>
     <use xlink:href="#m00e76d5597" x="223.603434" y="165.821912" style="fill: #c19632; stroke: #c19632"/>
     <use xlink:href="#m00e76d5597" x="232.516595" y="165.821912" style="fill: #c19632; stroke: #c19632"/>
     <use xlink:href="#m00e76d5597" x="239.647124" y="165.821912" style="fill: #c19632; stroke: #c19632"/>
     <use xlink:href="#m00e76d5597" x="312.735048" y="165.821912" style="fill: #c19632; stroke: #c19632"/>
    </g>
   </g>
   <g id="line2d_23">
    <path d="M 56.036 55.062127 
L 64.949161 53.246393 
L 73.862323 53.765174 
L 82.775484 52.338526 
L 91.688646 53.376089 
L 100.601807 52.468221 
L 109.514968 52.943771 
L 118.42813 55.926763 
L 127.341291 51.387427 
L 136.254452 51.603586 
L 145.167614 60.120244 
L 154.080775 90.425712 
L 159.428672 117.272639 
L 164.776569 153.111772 
L 170.124466 160.547636 
L 175.472362 165.821912 
L 180.820259 165.821912 
L 186.168156 165.821912 
L 191.516053 165.821912 
L 196.86395 165.821912 
L 202.211847 165.821912 
L 207.559743 165.821912 
L 212.90764 165.821912 
L 218.255537 165.821912 
L 223.603434 165.821912 
L 232.516595 165.821912 
L 239.647124 165.821912 
L 312.735048 165.821912 
" clip-path="url(#pe0b20e1888)" style="fill: none; stroke: #008000; stroke-width: 1.5; stroke-linecap: square"/>
    <defs>
     <path id="m57a86de42c" d="M -3 3 
L 3 -3 
M -3 -3 
L 3 3 
" style="stroke: #008000"/>
    </defs>
    <g clip-path="url(#pe0b20e1888)">
     <use xlink:href="#m57a86de42c" x="56.036" y="55.062127" style="fill: #008000; stroke: #008000"/>
     <use xlink:href="#m57a86de42c" x="64.949161" y="53.246393" style="fill: #008000; stroke: #008000"/>
     <use xlink:href="#m57a86de42c" x="73.862323" y="53.765174" style="fill: #008000; stroke: #008000"/>
     <use xlink:href="#m57a86de42c" x="82.775484" y="52.338526" style="fill: #008000; stroke: #008000"/>
     <use xlink:href="#m57a86de42c" x="91.688646" y="53.376089" style="fill: #008000; stroke: #008000"/>
     <use xlink:href="#m57a86de42c" x="100.601807" y="52.468221" style="fill: #008000; stroke: #008000"/>
     <use xlink:href="#m57a86de42c" x="109.514968" y="52.943771" style="fill: #008000; stroke: #008000"/>
     <use xlink:href="#m57a86de42c" x="118.42813" y="55.926763" style="fill: #008000; stroke: #008000"/>
     <use xlink:href="#m57a86de42c" x="127.341291" y="51.387427" style="fill: #008000; stroke: #008000"/>
     <use xlink:href="#m57a86de42c" x="136.254452" y="51.603586" style="fill: #008000; stroke: #008000"/>
     <use xlink:href="#m57a86de42c" x="145.167614" y="60.120244" style="fill: #008000; stroke: #008000"/>
     <use xlink:href="#m57a86de42c" x="154.080775" y="90.425712" style="fill: #008000; stroke: #008000"/>
     <use xlink:href="#m57a86de42c" x="159.428672" y="117.272639" style="fill: #008000; stroke: #008000"/>
     <use xlink:href="#m57a86de42c" x="164.776569" y="153.111772" style="fill: #008000; stroke: #008000"/>
     <use xlink:href="#m57a86de42c" x="170.124466" y="160.547636" style="fill: #008000; stroke: #008000"/>
     <use xlink:href="#m57a86de42c" x="175.472362" y="165.821912" style="fill: #008000; stroke: #008000"/>
     <use xlink:href="#m57a86de42c" x="180.820259" y="165.821912" style="fill: #008000; stroke: #008000"/>
     <use xlink:href="#m57a86de42c" x="186.168156" y="165.821912" style="fill: #008000; stroke: #008000"/>
     <use xlink:href="#m57a86de42c" x="191.516053" y="165.821912" style="fill: #008000; stroke: #008000"/>
     <use xlink:href="#m57a86de42c" x="196.86395" y="165.821912" style="fill: #008000; stroke: #008000"/>
     <use xlink:href="#m57a86de42c" x="202.211847" y="165.821912" style="fill: #008000; stroke: #008000"/>
     <use xlink:href="#m57a86de42c" x="207.559743" y="165.821912" style="fill: #008000; stroke: #008000"/>
     <use xlink:href="#m57a86de42c" x="212.90764" y="165.821912" style="fill: #008000; stroke: #008000"/>
     <use xlink:href="#m57a86de42c" x="218.255537" y="165.821912" style="fill: #008000; stroke: #008000"/>
     <use xlink:href="#m57a86de42c" x="223.603434" y="165.821912" style="fill: #008000; stroke: #008000"/>
     <use xlink:href="#m57a86de42c" x="232.516595" y="165.821912" style="fill: #008000; stroke: #008000"/>
     <use xlink:href="#m57a86de42c" x="239.647124" y="165.821912" style="fill: #008000; stroke: #008000"/>
     <use xlink:href="#m57a86de42c" x="312.735048" y="165.821912" style="fill: #008000; stroke: #008000"/>
    </g>
   </g>
   <g id="line2d_24">
    <path d="M 56.036 55.36475 
L 64.949161 54.586578 
L 73.862323 57.050789 
L 82.775484 60.120244 
L 91.688646 67.945194 
L 100.601807 78.839599 
L 109.514968 95.483829 
L 118.42813 117.964347 
L 127.341291 150.085549 
L 136.254452 165.821912 
L 145.167614 165.821912 
L 154.080775 165.821912 
L 159.428672 165.821912 
L 164.776569 165.821912 
L 170.124466 165.821912 
L 175.472362 165.821912 
L 180.820259 165.821912 
L 186.168156 165.821912 
L 191.516053 165.821912 
L 196.86395 165.821912 
L 202.211847 165.821912 
L 207.559743 165.821912 
L 212.90764 165.821912 
L 218.255537 165.821912 
L 223.603434 165.821912 
L 232.516595 165.821912 
L 239.647124 165.821912 
L 312.735048 165.821912 
" clip-path="url(#pe0b20e1888)" style="fill: none; stroke: #639df4; stroke-width: 1.5; stroke-linecap: square"/>
    <defs>
     <path id="m8d6a7e4099" d="M -3 3 
L 3 -3 
M -3 -3 
L 3 3 
" style="stroke: #639df4"/>
    </defs>
    <g clip-path="url(#pe0b20e1888)">
     <use xlink:href="#m8d6a7e4099" x="56.036" y="55.36475" style="fill: #639df4; stroke: #639df4"/>
     <use xlink:href="#m8d6a7e4099" x="64.949161" y="54.586578" style="fill: #639df4; stroke: #639df4"/>
     <use xlink:href="#m8d6a7e4099" x="73.862323" y="57.050789" style="fill: #639df4; stroke: #639df4"/>
     <use xlink:href="#m8d6a7e4099" x="82.775484" y="60.120244" style="fill: #639df4; stroke: #639df4"/>
     <use xlink:href="#m8d6a7e4099" x="91.688646" y="67.945194" style="fill: #639df4; stroke: #639df4"/>
     <use xlink:href="#m8d6a7e4099" x="100.601807" y="78.839599" style="fill: #639df4; stroke: #639df4"/>
     <use xlink:href="#m8d6a7e4099" x="109.514968" y="95.483829" style="fill: #639df4; stroke: #639df4"/>
     <use xlink:href="#m8d6a7e4099" x="118.42813" y="117.964347" style="fill: #639df4; stroke: #639df4"/>
     <use xlink:href="#m8d6a7e4099" x="127.341291" y="150.085549" style="fill: #639df4; stroke: #639df4"/>
     <use xlink:href="#m8d6a7e4099" x="136.254452" y="165.821912" style="fill: #639df4; stroke: #639df4"/>
     <use xlink:href="#m8d6a7e4099" x="145.167614" y="165.821912" style="fill: #639df4; stroke: #639df4"/>
     <use xlink:href="#m8d6a7e4099" x="154.080775" y="165.821912" style="fill: #639df4; stroke: #639df4"/>
     <use xlink:href="#m8d6a7e4099" x="159.428672" y="165.821912" style="fill: #639df4; stroke: #639df4"/>
     <use xlink:href="#m8d6a7e4099" x="164.776569" y="165.821912" style="fill: #639df4; stroke: #639df4"/>
     <use xlink:href="#m8d6a7e4099" x="170.124466" y="165.821912" style="fill: #639df4; stroke: #639df4"/>
     <use xlink:href="#m8d6a7e4099" x="175.472362" y="165.821912" style="fill: #639df4; stroke: #639df4"/>
     <use xlink:href="#m8d6a7e4099" x="180.820259" y="165.821912" style="fill: #639df4; stroke: #639df4"/>
     <use xlink:href="#m8d6a7e4099" x="186.168156" y="165.821912" style="fill: #639df4; stroke: #639df4"/>
     <use xlink:href="#m8d6a7e4099" x="191.516053" y="165.821912" style="fill: #639df4; stroke: #639df4"/>
     <use xlink:href="#m8d6a7e4099" x="196.86395" y="165.821912" style="fill: #639df4; stroke: #639df4"/>
     <use xlink:href="#m8d6a7e4099" x="202.211847" y="165.821912" style="fill: #639df4; stroke: #639df4"/>
     <use xlink:href="#m8d6a7e4099" x="207.559743" y="165.821912" style="fill: #639df4; stroke: #639df4"/>
     <use xlink:href="#m8d6a7e4099" x="212.90764" y="165.821912" style="fill: #639df4; stroke: #639df4"/>
     <use xlink:href="#m8d6a7e4099" x="218.255537" y="165.821912" style="fill: #639df4; stroke: #639df4"/>
     <use xlink:href="#m8d6a7e4099" x="223.603434" y="165.821912" style="fill: #639df4; stroke: #639df4"/>
     <use xlink:href="#m8d6a7e4099" x="232.516595" y="165.821912" style="fill: #639df4; stroke: #639df4"/>
     <use xlink:href="#m8d6a7e4099" x="239.647124" y="165.821912" style="fill: #639df4; stroke: #639df4"/>
     <use xlink:href="#m8d6a7e4099" x="312.735048" y="165.821912" style="fill: #639df4; stroke: #639df4"/>
    </g>
   </g>
   <g id="line2d_25">
    <path d="M 56.036 55.235054 
L 64.949161 53.765174 
L 73.862323 54.975664 
L 82.775484 56.402312 
L 91.688646 60.898416 
L 100.601807 67.339949 
L 109.514968 77.974963 
L 118.42813 92.803459 
L 127.341291 113.208853 
L 136.254452 165.821912 
L 145.167614 165.821912 
L 154.080775 165.821912 
L 159.428672 165.821912 
L 164.776569 165.821912 
L 170.124466 165.821912 
L 175.472362 165.821912 
L 180.820259 165.821912 
L 186.168156 165.821912 
L 191.516053 165.821912 
L 196.86395 165.821912 
L 202.211847 165.821912 
L 207.559743 165.821912 
L 212.90764 165.821912 
L 218.255537 165.821912 
L 223.603434 165.821912 
L 232.516595 165.821912 
L 239.647124 165.821912 
L 312.735048 165.821912 
" clip-path="url(#pe0b20e1888)" style="fill: none; stroke: #b486f4; stroke-width: 1.5; stroke-linecap: square"/>
    <defs>
     <path id="mbc97dcfb34" d="M -3 3 
L 3 -3 
M -3 -3 
L 3 3 
" style="stroke: #b486f4"/>
    </defs>
    <g clip-path="url(#pe0b20e1888)">
     <use xlink:href="#mbc97dcfb34" x="56.036" y="55.235054" style="fill: #b486f4; stroke: #b486f4"/>
     <use xlink:href="#mbc97dcfb34" x="64.949161" y="53.765174" style="fill: #b486f4; stroke: #b486f4"/>
     <use xlink:href="#mbc97dcfb34" x="73.862323" y="54.975664" style="fill: #b486f4; stroke: #b486f4"/>
     <use xlink:href="#mbc97dcfb34" x="82.775484" y="56.402312" style="fill: #b486f4; stroke: #b486f4"/>
     <use xlink:href="#mbc97dcfb34" x="91.688646" y="60.898416" style="fill: #b486f4; stroke: #b486f4"/>
     <use xlink:href="#mbc97dcfb34" x="100.601807" y="67.339949" style="fill: #b486f4; stroke: #b486f4"/>
     <use xlink:href="#mbc97dcfb34" x="109.514968" y="77.974963" style="fill: #b486f4; stroke: #b486f4"/>
     <use xlink:href="#mbc97dcfb34" x="118.42813" y="92.803459" style="fill: #b486f4; stroke: #b486f4"/>
     <use xlink:href="#mbc97dcfb34" x="127.341291" y="113.208853" style="fill: #b486f4; stroke: #b486f4"/>
     <use xlink:href="#mbc97dcfb34" x="136.254452" y="165.821912" style="fill: #b486f4; stroke: #b486f4"/>
     <use xlink:href="#mbc97dcfb34" x="145.167614" y="165.821912" style="fill: #b486f4; stroke: #b486f4"/>
     <use xlink:href="#mbc97dcfb34" x="154.080775" y="165.821912" style="fill: #b486f4; stroke: #b486f4"/>
     <use xlink:href="#mbc97dcfb34" x="159.428672" y="165.821912" style="fill: #b486f4; stroke: #b486f4"/>
     <use xlink:href="#mbc97dcfb34" x="164.776569" y="165.821912" style="fill: #b486f4; stroke: #b486f4"/>
     <use xlink:href="#mbc97dcfb34" x="170.124466" y="165.821912" style="fill: #b486f4; stroke: #b486f4"/>
     <use xlink:href="#mbc97dcfb34" x="175.472362" y="165.821912" style="fill: #b486f4; stroke: #b486f4"/>
     <use xlink:href="#mbc97dcfb34" x="180.820259" y="165.821912" style="fill: #b486f4; stroke: #b486f4"/>
     <use xlink:href="#mbc97dcfb34" x="186.168156" y="165.821912" style="fill: #b486f4; stroke: #b486f4"/>
     <use xlink:href="#mbc97dcfb34" x="191.516053" y="165.821912" style="fill: #b486f4; stroke: #b486f4"/>
     <use xlink:href="#mbc97dcfb34" x="196.86395" y="165.821912" style="fill: #b486f4; stroke: #b486f4"/>
     <use xlink:href="#mbc97dcfb34" x="202.211847" y="165.821912" style="fill: #b486f4; stroke: #b486f4"/>
     <use xlink:href="#mbc97dcfb34" x="207.559743" y="165.821912" style="fill: #b486f4; stroke: #b486f4"/>
     <use xlink:href="#mbc97dcfb34" x="212.90764" y="165.821912" style="fill: #b486f4; stroke: #b486f4"/>
     <use xlink:href="#mbc97dcfb34" x="218.255537" y="165.821912" style="fill: #b486f4; stroke: #b486f4"/>
     <use xlink:href="#mbc97dcfb34" x="223.603434" y="165.821912" style="fill: #b486f4; stroke: #b486f4"/>
     <use xlink:href="#mbc97dcfb34" x="232.516595" y="165.821912" style="fill: #b486f4; stroke: #b486f4"/>
     <use xlink:href="#mbc97dcfb34" x="239.647124" y="165.821912" style="fill: #b486f4; stroke: #b486f4"/>
     <use xlink:href="#mbc97dcfb34" x="312.735048" y="165.821912" style="fill: #b486f4; stroke: #b486f4"/>
    </g>
   </g>
   <g id="line2d_26">
    <path d="M 56.036 57.087406 
L 64.949161 57.613709 
L 73.862323 58.025622 
L 82.775484 58.560053 
L 91.688646 54.988936 
L 100.601807 55.616921 
L 109.514968 56.847081 
L 118.42813 61.659814 
L 127.341291 60.450275 
L 136.254452 67.534449 
L 145.167614 76.030269 
L 154.080775 78.815216 
L 159.428672 84.187152 
L 164.776569 92.727371 
L 170.124466 99.584707 
L 175.472362 108.836867 
L 180.820259 113.41282 
L 186.168156 119.923783 
L 191.516053 127.074058 
L 196.86395 134.820456 
L 202.211847 145.925659 
L 207.559743 155.360819 
L 212.90764 165.821912 
L 218.255537 165.821912 
L 223.603434 165.821912 
L 232.516595 165.821912 
L 239.647124 165.821912 
L 312.735048 165.821912 
" clip-path="url(#pe0b20e1888)" style="fill: none; stroke: #a0a131; stroke-width: 1.5; stroke-linecap: square"/>
    <defs>
     <path id="m5d95972fde" d="M -3 3 
L 3 -3 
M -3 -3 
L 3 3 
" style="stroke: #a0a131"/>
    </defs>
    <g clip-path="url(#pe0b20e1888)">
     <use xlink:href="#m5d95972fde" x="56.036" y="57.087406" style="fill: #a0a131; stroke: #a0a131"/>
     <use xlink:href="#m5d95972fde" x="64.949161" y="57.613709" style="fill: #a0a131; stroke: #a0a131"/>
     <use xlink:href="#m5d95972fde" x="73.862323" y="58.025622" style="fill: #a0a131; stroke: #a0a131"/>
     <use xlink:href="#m5d95972fde" x="82.775484" y="58.560053" style="fill: #a0a131; stroke: #a0a131"/>
     <use xlink:href="#m5d95972fde" x="91.688646" y="54.988936" style="fill: #a0a131; stroke: #a0a131"/>
     <use xlink:href="#m5d95972fde" x="100.601807" y="55.616921" style="fill: #a0a131; stroke: #a0a131"/>
     <use xlink:href="#m5d95972fde" x="109.514968" y="56.847081" style="fill: #a0a131; stroke: #a0a131"/>
     <use xlink:href="#m5d95972fde" x="118.42813" y="61.659814" style="fill: #a0a131; stroke: #a0a131"/>
     <use xlink:href="#m5d95972fde" x="127.341291" y="60.450275" style="fill: #a0a131; stroke: #a0a131"/>
     <use xlink:href="#m5d95972fde" x="136.254452" y="67.534449" style="fill: #a0a131; stroke: #a0a131"/>
     <use xlink:href="#m5d95972fde" x="145.167614" y="76.030269" style="fill: #a0a131; stroke: #a0a131"/>
     <use xlink:href="#m5d95972fde" x="154.080775" y="78.815216" style="fill: #a0a131; stroke: #a0a131"/>
     <use xlink:href="#m5d95972fde" x="159.428672" y="84.187152" style="fill: #a0a131; stroke: #a0a131"/>
     <use xlink:href="#m5d95972fde" x="164.776569" y="92.727371" style="fill: #a0a131; stroke: #a0a131"/>
     <use xlink:href="#m5d95972fde" x="170.124466" y="99.584707" style="fill: #a0a131; stroke: #a0a131"/>
     <use xlink:href="#m5d95972fde" x="175.472362" y="108.836867" style="fill: #a0a131; stroke: #a0a131"/>
     <use xlink:href="#m5d95972fde" x="180.820259" y="113.41282" style="fill: #a0a131; stroke: #a0a131"/>
     <use xlink:href="#m5d95972fde" x="186.168156" y="119.923783" style="fill: #a0a131; stroke: #a0a131"/>
     <use xlink:href="#m5d95972fde" x="191.516053" y="127.074058" style="fill: #a0a131; stroke: #a0a131"/>
     <use xlink:href="#m5d95972fde" x="196.86395" y="134.820456" style="fill: #a0a131; stroke: #a0a131"/>
     <use xlink:href="#m5d95972fde" x="202.211847" y="145.925659" style="fill: #a0a131; stroke: #a0a131"/>
     <use xlink:href="#m5d95972fde" x="207.559743" y="155.360819" style="fill: #a0a131; stroke: #a0a131"/>
     <use xlink:href="#m5d95972fde" x="212.90764" y="165.821912" style="fill: #a0a131; stroke: #a0a131"/>
     <use xlink:href="#m5d95972fde" x="218.255537" y="165.821912" style="fill: #a0a131; stroke: #a0a131"/>
     <use xlink:href="#m5d95972fde" x="223.603434" y="165.821912" style="fill: #a0a131; stroke: #a0a131"/>
     <use xlink:href="#m5d95972fde" x="232.516595" y="165.821912" style="fill: #a0a131; stroke: #a0a131"/>
     <use xlink:href="#m5d95972fde" x="239.647124" y="165.821912" style="fill: #a0a131; stroke: #a0a131"/>
     <use xlink:href="#m5d95972fde" x="312.735048" y="165.821912" style="fill: #a0a131; stroke: #a0a131"/>
    </g>
   </g>
   <g id="patch_3">
    <path d="M 56.036 172.3975 
L 56.036 26.88 
" style="fill: none; stroke: #000000; stroke-width: 0.8; stroke-linejoin: miter; stroke-linecap: square"/>
   </g>
   <g id="patch_4">
    <path d="M 325.57 172.3975 
L 325.57 26.88 
" style="fill: none; stroke: #000000; stroke-width: 0.8; stroke-linejoin: miter; stroke-linecap: square"/>
   </g>
   <g id="patch_5">
    <path d="M 56.036 172.3975 
L 325.57 172.3975 
" style="fill: none; stroke: #000000; stroke-width: 0.8; stroke-linejoin: miter; stroke-linecap: square"/>
   </g>
   <g id="patch_6">
    <path d="M 56.036 26.88 
L 325.57 26.88 
" style="fill: none; stroke: #000000; stroke-width: 0.8; stroke-linejoin: miter; stroke-linecap: square"/>
   </g>
   <g id="legend_1">
    <g id="patch_7">
     <path d="M 359.5234 211.0175 
L 412.61715 211.0175 
Q 414.61715 211.0175 414.61715 209.0175 
L 414.61715 33.88 
Q 414.61715 31.88 412.61715 31.88 
L 359.5234 31.88 
Q 357.5234 31.88 357.5234 33.88 
L 357.5234 209.0175 
Q 357.5234 211.0175 359.5234 211.0175 
z
" style="fill: #ffffff; opacity: 0.8; stroke: #cccccc; stroke-linejoin: miter"/>
    </g>
    <g id="line2d_27">
     <path d="M 361.5234 39.978437 
L 371.5234 39.978437 
L 381.5234 39.978437 
" style="fill: none; stroke: #eb8032; stroke-width: 1.5; stroke-linecap: square"/>
     <g>
      <use xlink:href="#m5105074823" x="371.5234" y="39.978437" style="fill: #eb8032; stroke: #eb8032"/>
     </g>
    </g>
    <g id="text_18">
     <!-- Thr -->
     <g transform="translate(389.5234 43.478437) scale(0.1 -0.1)">
      <defs>
       <path id="DejaVuSans-54" d="M -19 4666 
L 3928 4666 
L 3928 4134 
L 2272 4134 
L 2272 0 
L 1638 0 
L 1638 4134 
L -19 4134 
L -19 4666 
z
" transform="scale(0.015625)"/>
      </defs>
      <use xlink:href="#DejaVuSans-54"/>
      <use xlink:href="#DejaVuSans-68" transform="translate(61.083984 0)"/>
      <use xlink:href="#DejaVuSans-72" transform="translate(124.462891 0)"/>
     </g>
    </g>
    <g id="line2d_28">
     <path d="M 361.5234 54.656563 
L 371.5234 54.656563 
L 381.5234 54.656563 
" style="fill: none; stroke: #eb8032; stroke-width: 1.5; stroke-linecap: square"/>
     <g>
      <use xlink:href="#m5105074823" x="371.5234" y="54.656563" style="fill: #eb8032; stroke: #eb8032"/>
     </g>
    </g>
    <g id="text_19">
     <!-- Ile -->
     <g transform="translate(389.5234 58.156563) scale(0.1 -0.1)">
      <defs>
       <path id="DejaVuSans-49" d="M 628 4666 
L 1259 4666 
L 1259 0 
L 628 0 
L 628 4666 
z
" transform="scale(0.015625)"/>
      </defs>
      <use xlink:href="#DejaVuSans-49"/>
      <use xlink:href="#DejaVuSans-6c" transform="translate(29.492188 0)"/>
      <use xlink:href="#DejaVuSans-65" transform="translate(57.275391 0)"/>
     </g>
    </g>
    <g id="line2d_29">
     <path d="M 361.5234 69.334688 
L 371.5234 69.334688 
L 381.5234 69.334688 
" style="fill: none; stroke: #eb8032; stroke-width: 1.5; stroke-linecap: square"/>
     <g>
      <use xlink:href="#m5105074823" x="371.5234" y="69.334688" style="fill: #eb8032; stroke: #eb8032"/>
     </g>
    </g>
    <g id="text_20">
     <!-- Phe -->
     <g transform="translate(389.5234 72.834688) scale(0.1 -0.1)">
      <defs>
       <path id="DejaVuSans-50" d="M 1259 4147 
L 1259 2394 
L 2053 2394 
Q 2494 2394 2734 2622 
Q 2975 2850 2975 3272 
Q 2975 3691 2734 3919 
Q 2494 4147 2053 4147 
L 1259 4147 
z
M 628 4666 
L 2053 4666 
Q 2838 4666 3239 4311 
Q 3641 3956 3641 3272 
Q 3641 2581 3239 2228 
Q 2838 1875 2053 1875 
L 1259 1875 
L 1259 0 
L 628 0 
L 628 4666 
z
" transform="scale(0.015625)"/>
      </defs>
      <use xlink:href="#DejaVuSans-50"/>
      <use xlink:href="#DejaVuSans-68" transform="translate(60.302734 0)"/>
      <use xlink:href="#DejaVuSans-65" transform="translate(123.681641 0)"/>
     </g>
    </g>
    <g id="line2d_30">
     <path d="M 361.5234 84.012812 
L 371.5234 84.012812 
L 381.5234 84.012812 
" style="fill: none; stroke: #f77189; stroke-width: 1.5; stroke-linecap: square"/>
     <g>
      <use xlink:href="#medc809a89d" x="371.5234" y="84.012812" style="fill: #f77189; stroke: #f77189"/>
     </g>
    </g>
    <g id="text_21">
     <!-- His -->
     <g transform="translate(389.5234 87.512812) scale(0.1 -0.1)">
      <defs>
       <path id="DejaVuSans-48" d="M 628 4666 
L 1259 4666 
L 1259 2753 
L 3553 2753 
L 3553 4666 
L 4184 4666 
L 4184 0 
L 3553 0 
L 3553 2222 
L 1259 2222 
L 1259 0 
L 628 0 
L 628 4666 
z
" transform="scale(0.015625)"/>
       <path id="DejaVuSans-73" d="M 2834 3397 
L 2834 2853 
Q 2591 2978 2328 3040 
Q 2066 3103 1784 3103 
Q 1356 3103 1142 2972 
Q 928 2841 928 2578 
Q 928 2378 1081 2264 
Q 1234 2150 1697 2047 
L 1894 2003 
Q 2506 1872 2764 1633 
Q 3022 1394 3022 966 
Q 3022 478 2636 193 
Q 2250 -91 1575 -91 
Q 1294 -91 989 -36 
Q 684 19 347 128 
L 347 722 
Q 666 556 975 473 
Q 1284 391 1588 391 
Q 1994 391 2212 530 
Q 2431 669 2431 922 
Q 2431 1156 2273 1281 
Q 2116 1406 1581 1522 
L 1381 1569 
Q 847 1681 609 1914 
Q 372 2147 372 2553 
Q 372 3047 722 3315 
Q 1072 3584 1716 3584 
Q 2034 3584 2315 3537 
Q 2597 3491 2834 3397 
z
" transform="scale(0.015625)"/>
      </defs>
      <use xlink:href="#DejaVuSans-48"/>
      <use xlink:href="#DejaVuSans-69" transform="translate(75.195312 0)"/>
      <use xlink:href="#DejaVuSans-73" transform="translate(102.978516 0)"/>
     </g>
    </g>
    <g id="line2d_31">
     <path d="M 361.5234 98.690938 
L 371.5234 98.690938 
L 381.5234 98.690938 
" style="fill: none; stroke: #c19632; stroke-width: 1.5; stroke-linecap: square"/>
     <g>
      <use xlink:href="#m00e76d5597" x="371.5234" y="98.690938" style="fill: #c19632; stroke: #c19632"/>
     </g>
    </g>
    <g id="text_22">
     <!-- Val -->
     <g transform="translate(389.5234 102.190938) scale(0.1 -0.1)">
      <defs>
       <path id="DejaVuSans-56" d="M 1831 0 
L 50 4666 
L 709 4666 
L 2188 738 
L 3669 4666 
L 4325 4666 
L 2547 0 
L 1831 0 
z
" transform="scale(0.015625)"/>
      </defs>
      <use xlink:href="#DejaVuSans-56"/>
      <use xlink:href="#DejaVuSans-61" transform="translate(60.658203 0)"/>
      <use xlink:href="#DejaVuSans-6c" transform="translate(121.9375 0)"/>
     </g>
    </g>
    <g id="line2d_32">
     <path d="M 361.5234 113.369062 
L 371.5234 113.369062 
L 381.5234 113.369062 
" style="fill: none; stroke: #c19632; stroke-width: 1.5; stroke-linecap: square"/>
     <g>
      <use xlink:href="#m00e76d5597" x="371.5234" y="113.369062" style="fill: #c19632; stroke: #c19632"/>
     </g>
    </g>
    <g id="text_23">
     <!-- Lys -->
     <g transform="translate(389.5234 116.869062) scale(0.1 -0.1)">
      <defs>
       <path id="DejaVuSans-4c" d="M 628 4666 
L 1259 4666 
L 1259 531 
L 3531 531 
L 3531 0 
L 628 0 
L 628 4666 
z
" transform="scale(0.015625)"/>
       <path id="DejaVuSans-79" d="M 2059 -325 
Q 1816 -950 1584 -1140 
Q 1353 -1331 966 -1331 
L 506 -1331 
L 506 -850 
L 844 -850 
Q 1081 -850 1212 -737 
Q 1344 -625 1503 -206 
L 1606 56 
L 191 3500 
L 800 3500 
L 1894 763 
L 2988 3500 
L 3597 3500 
L 2059 -325 
z
" transform="scale(0.015625)"/>
      </defs>
      <use xlink:href="#DejaVuSans-4c"/>
      <use xlink:href="#DejaVuSans-79" transform="translate(46.587891 0)"/>
      <use xlink:href="#DejaVuSans-73" transform="translate(105.767578 0)"/>
     </g>
    </g>
    <g id="line2d_33">
     <path d="M 361.5234 128.047188 
L 371.5234 128.047188 
L 381.5234 128.047188 
" style="fill: none; stroke: #c19632; stroke-width: 1.5; stroke-linecap: square"/>
     <g>
      <use xlink:href="#m00e76d5597" x="371.5234" y="128.047188" style="fill: #c19632; stroke: #c19632"/>
     </g>
    </g>
    <g id="text_24">
     <!-- Leu -->
     <g transform="translate(389.5234 131.547188) scale(0.1 -0.1)">
      <defs>
       <path id="DejaVuSans-75" d="M 544 1381 
L 544 3500 
L 1119 3500 
L 1119 1403 
Q 1119 906 1312 657 
Q 1506 409 1894 409 
Q 2359 409 2629 706 
Q 2900 1003 2900 1516 
L 2900 3500 
L 3475 3500 
L 3475 0 
L 2900 0 
L 2900 538 
Q 2691 219 2414 64 
Q 2138 -91 1772 -91 
Q 1169 -91 856 284 
Q 544 659 544 1381 
z
M 1991 3584 
L 1991 3584 
z
" transform="scale(0.015625)"/>
      </defs>
      <use xlink:href="#DejaVuSans-4c"/>
      <use xlink:href="#DejaVuSans-65" transform="translate(53.962891 0)"/>
      <use xlink:href="#DejaVuSans-75" transform="translate(115.486328 0)"/>
     </g>
    </g>
    <g id="line2d_34">
     <path d="M 361.5234 142.725312 
L 371.5234 142.725312 
L 381.5234 142.725312 
" style="fill: none; stroke: #008000; stroke-width: 1.5; stroke-linecap: square"/>
     <g>
      <use xlink:href="#m57a86de42c" x="371.5234" y="142.725312" style="fill: #008000; stroke: #008000"/>
     </g>
    </g>
    <g id="text_25">
     <!-- Glc -->
     <g transform="translate(389.5234 146.225312) scale(0.1 -0.1)">
      <defs>
       <path id="DejaVuSans-47" d="M 3809 666 
L 3809 1919 
L 2778 1919 
L 2778 2438 
L 4434 2438 
L 4434 434 
Q 4069 175 3628 42 
Q 3188 -91 2688 -91 
Q 1594 -91 976 548 
Q 359 1188 359 2328 
Q 359 3472 976 4111 
Q 1594 4750 2688 4750 
Q 3144 4750 3555 4637 
Q 3966 4525 4313 4306 
L 4313 3634 
Q 3963 3931 3569 4081 
Q 3175 4231 2741 4231 
Q 1884 4231 1454 3753 
Q 1025 3275 1025 2328 
Q 1025 1384 1454 906 
Q 1884 428 2741 428 
Q 3075 428 3337 486 
Q 3600 544 3809 666 
z
" transform="scale(0.015625)"/>
      </defs>
      <use xlink:href="#DejaVuSans-47"/>
      <use xlink:href="#DejaVuSans-6c" transform="translate(77.490234 0)"/>
      <use xlink:href="#DejaVuSans-63" transform="translate(105.273438 0)"/>
     </g>
    </g>
    <g id="line2d_35">
     <path d="M 361.5234 157.403437 
L 371.5234 157.403437 
L 381.5234 157.403437 
" style="fill: none; stroke: #639df4; stroke-width: 1.5; stroke-linecap: square"/>
     <g>
      <use xlink:href="#m8d6a7e4099" x="371.5234" y="157.403437" style="fill: #639df4; stroke: #639df4"/>
     </g>
    </g>
    <g id="text_26">
     <!-- Man -->
     <g transform="translate(389.5234 160.903437) scale(0.1 -0.1)">
      <use xlink:href="#DejaVuSans-4d"/>
      <use xlink:href="#DejaVuSans-61" transform="translate(86.279297 0)"/>
      <use xlink:href="#DejaVuSans-6e" transform="translate(147.558594 0)"/>
     </g>
    </g>
    <g id="line2d_36">
     <path d="M 361.5234 172.081562 
L 371.5234 172.081562 
L 381.5234 172.081562 
" style="fill: none; stroke: #b486f4; stroke-width: 1.5; stroke-linecap: square"/>
     <g>
      <use xlink:href="#mbc97dcfb34" x="371.5234" y="172.081562" style="fill: #b486f4; stroke: #b486f4"/>
     </g>
    </g>
    <g id="text_27">
     <!-- Nag -->
     <g transform="translate(389.5234 175.581562) scale(0.1 -0.1)">
      <defs>
       <path id="DejaVuSans-4e" d="M 628 4666 
L 1478 4666 
L 3547 763 
L 3547 4666 
L 4159 4666 
L 4159 0 
L 3309 0 
L 1241 3903 
L 1241 0 
L 628 0 
L 628 4666 
z
" transform="scale(0.015625)"/>
       <path id="DejaVuSans-67" d="M 2906 1791 
Q 2906 2416 2648 2759 
Q 2391 3103 1925 3103 
Q 1463 3103 1205 2759 
Q 947 2416 947 1791 
Q 947 1169 1205 825 
Q 1463 481 1925 481 
Q 2391 481 2648 825 
Q 2906 1169 2906 1791 
z
M 3481 434 
Q 3481 -459 3084 -895 
Q 2688 -1331 1869 -1331 
Q 1566 -1331 1297 -1286 
Q 1028 -1241 775 -1147 
L 775 -588 
Q 1028 -725 1275 -790 
Q 1522 -856 1778 -856 
Q 2344 -856 2625 -561 
Q 2906 -266 2906 331 
L 2906 616 
Q 2728 306 2450 153 
Q 2172 0 1784 0 
Q 1141 0 747 490 
Q 353 981 353 1791 
Q 353 2603 747 3093 
Q 1141 3584 1784 3584 
Q 2172 3584 2450 3431 
Q 2728 3278 2906 2969 
L 2906 3500 
L 3481 3500 
L 3481 434 
z
" transform="scale(0.015625)"/>
      </defs>
      <use xlink:href="#DejaVuSans-4e"/>
      <use xlink:href="#DejaVuSans-61" transform="translate(74.804688 0)"/>
      <use xlink:href="#DejaVuSans-67" transform="translate(136.083984 0)"/>
     </g>
    </g>
    <g id="line2d_37">
     <path d="M 361.5234 186.759687 
L 371.5234 186.759687 
L 381.5234 186.759687 
" style="fill: none; stroke: #a0a131; stroke-width: 1.5; stroke-linecap: square"/>
     <g>
      <use xlink:href="#m5d95972fde" x="371.5234" y="186.759687" style="fill: #a0a131; stroke: #a0a131"/>
     </g>
    </g>
    <g id="text_28">
     <!-- Trp -->
     <g transform="translate(389.5234 190.259687) scale(0.1 -0.1)">
      <defs>
       <path id="DejaVuSans-70" d="M 1159 525 
L 1159 -1331 
L 581 -1331 
L 581 3500 
L 1159 3500 
L 1159 2969 
Q 1341 3281 1617 3432 
Q 1894 3584 2278 3584 
Q 2916 3584 3314 3078 
Q 3713 2572 3713 1747 
Q 3713 922 3314 415 
Q 2916 -91 2278 -91 
Q 1894 -91 1617 61 
Q 1341 213 1159 525 
z
M 3116 1747 
Q 3116 2381 2855 2742 
Q 2594 3103 2138 3103 
Q 1681 3103 1420 2742 
Q 1159 2381 1159 1747 
Q 1159 1113 1420 752 
Q 1681 391 2138 391 
Q 2594 391 2855 752 
Q 3116 1113 3116 1747 
z
" transform="scale(0.015625)"/>
      </defs>
      <use xlink:href="#DejaVuSans-54"/>
      <use xlink:href="#DejaVuSans-72" transform="translate(46.333984 0)"/>
      <use xlink:href="#DejaVuSans-70" transform="translate(87.447266 0)"/>
     </g>
    </g>
    <g id="line2d_38">
     <path d="M 361.5234 201.437812 
L 371.5234 201.437812 
L 381.5234 201.437812 
" style="fill: none; stroke: #808080; stroke-width: 1.5; stroke-linecap: square"/>
     <defs>
      <path id="m4a090872e9" d="M -3 3 
L 3 -3 
M -3 -3 
L 3 3 
" style="stroke: #808080"/>
     </defs>
     <g>
      <use xlink:href="#m4a090872e9" x="371.5234" y="201.437812" style="fill: #808080; stroke: #808080"/>
     </g>
    </g>
    <g id="text_29">
     <!-- F2 -->
     <g transform="translate(389.5234 204.937812) scale(0.1 -0.1)">
      <defs>
       <path id="DejaVuSans-46" d="M 628 4666 
L 3309 4666 
L 3309 4134 
L 1259 4134 
L 1259 2759 
L 3109 2759 
L 3109 2228 
L 1259 2228 
L 1259 0 
L 628 0 
L 628 4666 
z
" transform="scale(0.015625)"/>
      </defs>
      <use xlink:href="#DejaVuSans-46"/>
      <use xlink:href="#DejaVuSans-32" transform="translate(57.519531 0)"/>
     </g>
    </g>
   </g>
  </g>
  <g id="axes_2">
   <g id="matplotlib.axis_3">
    <g id="ytick_8">
     <g id="line2d_39">
      <defs>
       <path id="md368f99382" d="M 0 0 
L 3.5 0 
" style="stroke: #000000; stroke-width: 0.8"/>
      </defs>
      <g>
       <use xlink:href="#md368f99382" x="325.57" y="165.821912" style="stroke: #000000; stroke-width: 0.8"/>
      </g>
     </g>
     <g id="text_30">
      <!-- 0.0 -->
      <g transform="translate(332.57 169.62113) scale(0.1 -0.1)">
       <use xlink:href="#DejaVuSans-30"/>
       <use xlink:href="#DejaVuSans-2e" transform="translate(63.623047 0)"/>
       <use xlink:href="#DejaVuSans-30" transform="translate(95.410156 0)"/>
      </g>
     </g>
    </g>
    <g id="ytick_9">
     <g id="line2d_40">
      <g>
       <use xlink:href="#md368f99382" x="325.57" y="143.479281" style="stroke: #000000; stroke-width: 0.8"/>
      </g>
     </g>
     <g id="text_31">
      <!-- 0.1 -->
      <g transform="translate(332.57 147.2785) scale(0.1 -0.1)">
       <use xlink:href="#DejaVuSans-30"/>
       <use xlink:href="#DejaVuSans-2e" transform="translate(63.623047 0)"/>
       <use xlink:href="#DejaVuSans-31" transform="translate(95.410156 0)"/>
      </g>
     </g>
    </g>
    <g id="ytick_10">
     <g id="line2d_41">
      <g>
       <use xlink:href="#md368f99382" x="325.57" y="121.136651" style="stroke: #000000; stroke-width: 0.8"/>
      </g>
     </g>
     <g id="text_32">
      <!-- 0.2 -->
      <g transform="translate(332.57 124.93587) scale(0.1 -0.1)">
       <use xlink:href="#DejaVuSans-30"/>
       <use xlink:href="#DejaVuSans-2e" transform="translate(63.623047 0)"/>
       <use xlink:href="#DejaVuSans-32" transform="translate(95.410156 0)"/>
      </g>
     </g>
    </g>
    <g id="ytick_11">
     <g id="line2d_42">
      <g>
       <use xlink:href="#md368f99382" x="325.57" y="98.794021" style="stroke: #000000; stroke-width: 0.8"/>
      </g>
     </g>
     <g id="text_33">
      <!-- 0.3 -->
      <g transform="translate(332.57 102.59324) scale(0.1 -0.1)">
       <use xlink:href="#DejaVuSans-30"/>
       <use xlink:href="#DejaVuSans-2e" transform="translate(63.623047 0)"/>
       <use xlink:href="#DejaVuSans-33" transform="translate(95.410156 0)"/>
      </g>
     </g>
    </g>
    <g id="ytick_12">
     <g id="line2d_43">
      <g>
       <use xlink:href="#md368f99382" x="325.57" y="76.451391" style="stroke: #000000; stroke-width: 0.8"/>
      </g>
     </g>
     <g id="text_34">
      <!-- 0.4 -->
      <g transform="translate(332.57 80.25061) scale(0.1 -0.1)">
       <use xlink:href="#DejaVuSans-30"/>
       <use xlink:href="#DejaVuSans-2e" transform="translate(63.623047 0)"/>
       <use xlink:href="#DejaVuSans-34" transform="translate(95.410156 0)"/>
      </g>
     </g>
    </g>
    <g id="ytick_13">
     <g id="line2d_44">
      <g>
       <use xlink:href="#md368f99382" x="325.57" y="54.108761" style="stroke: #000000; stroke-width: 0.8"/>
      </g>
     </g>
     <g id="text_35">
      <!-- 0.5 -->
      <g transform="translate(332.57 57.907979) scale(0.1 -0.1)">
       <use xlink:href="#DejaVuSans-30"/>
       <use xlink:href="#DejaVuSans-2e" transform="translate(63.623047 0)"/>
       <use xlink:href="#DejaVuSans-35" transform="translate(95.410156 0)"/>
      </g>
     </g>
    </g>
    <g id="ytick_14">
     <g id="line2d_45">
      <g>
       <use xlink:href="#md368f99382" x="325.57" y="31.76613" style="stroke: #000000; stroke-width: 0.8"/>
      </g>
     </g>
     <g id="text_36">
      <!-- 0.6 -->
      <g transform="translate(332.57 35.565349) scale(0.1 -0.1)">
       <use xlink:href="#DejaVuSans-30"/>
       <use xlink:href="#DejaVuSans-2e" transform="translate(63.623047 0)"/>
       <use xlink:href="#DejaVuSans-36" transform="translate(95.410156 0)"/>
      </g>
     </g>
    </g>
    <g id="text_37">
     <!-- OD -->
     <g transform="translate(360.071562 107.424687) rotate(-90) scale(0.1 -0.1)">
      <defs>
       <path id="DejaVuSans-4f" d="M 2522 4238 
Q 1834 4238 1429 3725 
Q 1025 3213 1025 2328 
Q 1025 1447 1429 934 
Q 1834 422 2522 422 
Q 3209 422 3611 934 
Q 4013 1447 4013 2328 
Q 4013 3213 3611 3725 
Q 3209 4238 2522 4238 
z
M 2522 4750 
Q 3503 4750 4090 4092 
Q 4678 3434 4678 2328 
Q 4678 1225 4090 567 
Q 3503 -91 2522 -91 
Q 1538 -91 948 565 
Q 359 1222 359 2328 
Q 359 3434 948 4092 
Q 1538 4750 2522 4750 
z
" transform="scale(0.015625)"/>
       <path id="DejaVuSans-44" d="M 1259 4147 
L 1259 519 
L 2022 519 
Q 2988 519 3436 956 
Q 3884 1394 3884 2338 
Q 3884 3275 3436 3711 
Q 2988 4147 2022 4147 
L 1259 4147 
z
M 628 4666 
L 1925 4666 
Q 3281 4666 3915 4102 
Q 4550 3538 4550 2338 
Q 4550 1131 3912 565 
Q 3275 0 1925 0 
L 628 0 
L 628 4666 
z
" transform="scale(0.015625)"/>
      </defs>
      <use xlink:href="#DejaVuSans-4f"/>
      <use xlink:href="#DejaVuSans-44" transform="translate(78.710938 0)"/>
     </g>
    </g>
   </g>
   <g id="line2d_46">
    <path d="M 56.036 164.967355 
L 64.949161 164.696817 
L 73.862323 163.974874 
L 82.775484 162.964113 
L 91.688646 161.13775 
L 100.601807 158.891402 
L 109.514968 154.144798 
L 118.42813 148.422202 
L 127.341291 137.684607 
L 136.254452 121.035515 
L 145.167614 115.198138 
L 154.080775 104.203853 
L 159.428672 94.139224 
L 164.776569 80.404663 
L 170.124466 73.825627 
L 175.472362 70.223201 
L 180.820259 62.332631 
L 186.168156 57.019493 
L 191.516053 49.949208 
L 196.86395 44.083949 
L 202.211847 37.341125 
L 207.559743 33.835832 
L 212.90764 33.647555 
L 218.255537 33.455588 
L 223.603434 38.47731 
L 232.516595 43.312523 
L 239.647124 41.560758 
L 312.735048 77.934984 
" clip-path="url(#pe0b20e1888)" style="fill: none; stroke: #808080; stroke-width: 1.5; stroke-linecap: square"/>
    <g clip-path="url(#pe0b20e1888)">
     <use xlink:href="#m4a090872e9" x="56.036" y="164.967355" style="fill: #808080; stroke: #808080"/>
     <use xlink:href="#m4a090872e9" x="64.949161" y="164.696817" style="fill: #808080; stroke: #808080"/>
     <use xlink:href="#m4a090872e9" x="73.862323" y="163.974874" style="fill: #808080; stroke: #808080"/>
     <use xlink:href="#m4a090872e9" x="82.775484" y="162.964113" style="fill: #808080; stroke: #808080"/>
     <use xlink:href="#m4a090872e9" x="91.688646" y="161.13775" style="fill: #808080; stroke: #808080"/>
     <use xlink:href="#m4a090872e9" x="100.601807" y="158.891402" style="fill: #808080; stroke: #808080"/>
     <use xlink:href="#m4a090872e9" x="109.514968" y="154.144798" style="fill: #808080; stroke: #808080"/>
     <use xlink:href="#m4a090872e9" x="118.42813" y="148.422202" style="fill: #808080; stroke: #808080"/>
     <use xlink:href="#m4a090872e9" x="127.341291" y="137.684607" style="fill: #808080; stroke: #808080"/>
     <use xlink:href="#m4a090872e9" x="136.254452" y="121.035515" style="fill: #808080; stroke: #808080"/>
     <use xlink:href="#m4a090872e9" x="145.167614" y="115.198138" style="fill: #808080; stroke: #808080"/>
     <use xlink:href="#m4a090872e9" x="154.080775" y="104.203853" style="fill: #808080; stroke: #808080"/>
     <use xlink:href="#m4a090872e9" x="159.428672" y="94.139224" style="fill: #808080; stroke: #808080"/>
     <use xlink:href="#m4a090872e9" x="164.776569" y="80.404663" style="fill: #808080; stroke: #808080"/>
     <use xlink:href="#m4a090872e9" x="170.124466" y="73.825627" style="fill: #808080; stroke: #808080"/>
     <use xlink:href="#m4a090872e9" x="175.472362" y="70.223201" style="fill: #808080; stroke: #808080"/>
     <use xlink:href="#m4a090872e9" x="180.820259" y="62.332631" style="fill: #808080; stroke: #808080"/>
     <use xlink:href="#m4a090872e9" x="186.168156" y="57.019493" style="fill: #808080; stroke: #808080"/>
     <use xlink:href="#m4a090872e9" x="191.516053" y="49.949208" style="fill: #808080; stroke: #808080"/>
     <use xlink:href="#m4a090872e9" x="196.86395" y="44.083949" style="fill: #808080; stroke: #808080"/>
     <use xlink:href="#m4a090872e9" x="202.211847" y="37.341125" style="fill: #808080; stroke: #808080"/>
     <use xlink:href="#m4a090872e9" x="207.559743" y="33.835832" style="fill: #808080; stroke: #808080"/>
     <use xlink:href="#m4a090872e9" x="212.90764" y="33.647555" style="fill: #808080; stroke: #808080"/>
     <use xlink:href="#m4a090872e9" x="218.255537" y="33.455588" style="fill: #808080; stroke: #808080"/>
     <use xlink:href="#m4a090872e9" x="223.603434" y="38.47731" style="fill: #808080; stroke: #808080"/>
     <use xlink:href="#m4a090872e9" x="232.516595" y="43.312523" style="fill: #808080; stroke: #808080"/>
     <use xlink:href="#m4a090872e9" x="239.647124" y="41.560758" style="fill: #808080; stroke: #808080"/>
     <use xlink:href="#m4a090872e9" x="312.735048" y="77.934984" style="fill: #808080; stroke: #808080"/>
    </g>
   </g>
   <g id="patch_8">
    <path d="M 56.036 172.3975 
L 56.036 26.88 
" style="fill: none; stroke: #000000; stroke-width: 0.8; stroke-linejoin: miter; stroke-linecap: square"/>
   </g>
   <g id="patch_9">
    <path d="M 325.57 172.3975 
L 325.57 26.88 
" style="fill: none; stroke: #000000; stroke-width: 0.8; stroke-linejoin: miter; stroke-linecap: square"/>
   </g>
   <g id="patch_10">
    <path d="M 56.036 172.3975 
L 325.57 172.3975 
" style="fill: none; stroke: #000000; stroke-width: 0.8; stroke-linejoin: miter; stroke-linecap: square"/>
   </g>
   <g id="patch_11">
    <path d="M 56.036 26.88 
L 325.57 26.88 
" style="fill: none; stroke: #000000; stroke-width: 0.8; stroke-linejoin: miter; stroke-linecap: square"/>
   </g>
   <g id="text_38">
    <!-- Substrate cluster concentration curves (mix11, F2) -->
    <g transform="translate(37.73175 20.88) scale(0.12 -0.12)">
     <defs>
      <path id="DejaVuSans-53" d="M 3425 4513 
L 3425 3897 
Q 3066 4069 2747 4153 
Q 2428 4238 2131 4238 
Q 1616 4238 1336 4038 
Q 1056 3838 1056 3469 
Q 1056 3159 1242 3001 
Q 1428 2844 1947 2747 
L 2328 2669 
Q 3034 2534 3370 2195 
Q 3706 1856 3706 1288 
Q 3706 609 3251 259 
Q 2797 -91 1919 -91 
Q 1588 -91 1214 -16 
Q 841 59 441 206 
L 441 856 
Q 825 641 1194 531 
Q 1563 422 1919 422 
Q 2459 422 2753 634 
Q 3047 847 3047 1241 
Q 3047 1584 2836 1778 
Q 2625 1972 2144 2069 
L 1759 2144 
Q 1053 2284 737 2584 
Q 422 2884 422 3419 
Q 422 4038 858 4394 
Q 1294 4750 2059 4750 
Q 2388 4750 2728 4690 
Q 3069 4631 3425 4513 
z
" transform="scale(0.015625)"/>
      <path id="DejaVuSans-62" d="M 3116 1747 
Q 3116 2381 2855 2742 
Q 2594 3103 2138 3103 
Q 1681 3103 1420 2742 
Q 1159 2381 1159 1747 
Q 1159 1113 1420 752 
Q 1681 391 2138 391 
Q 2594 391 2855 752 
Q 3116 1113 3116 1747 
z
M 1159 2969 
Q 1341 3281 1617 3432 
Q 1894 3584 2278 3584 
Q 2916 3584 3314 3078 
Q 3713 2572 3713 1747 
Q 3713 922 3314 415 
Q 2916 -91 2278 -91 
Q 1894 -91 1617 61 
Q 1341 213 1159 525 
L 1159 0 
L 581 0 
L 581 4863 
L 1159 4863 
L 1159 2969 
z
" transform="scale(0.015625)"/>
      <path id="DejaVuSans-76" d="M 191 3500 
L 800 3500 
L 1894 563 
L 2988 3500 
L 3597 3500 
L 2284 0 
L 1503 0 
L 191 3500 
z
" transform="scale(0.015625)"/>
      <path id="DejaVuSans-28" d="M 1984 4856 
Q 1566 4138 1362 3434 
Q 1159 2731 1159 2009 
Q 1159 1288 1364 580 
Q 1569 -128 1984 -844 
L 1484 -844 
Q 1016 -109 783 600 
Q 550 1309 550 2009 
Q 550 2706 781 3412 
Q 1013 4119 1484 4856 
L 1984 4856 
z
" transform="scale(0.015625)"/>
      <path id="DejaVuSans-78" d="M 3513 3500 
L 2247 1797 
L 3578 0 
L 2900 0 
L 1881 1375 
L 863 0 
L 184 0 
L 1544 1831 
L 300 3500 
L 978 3500 
L 1906 2253 
L 2834 3500 
L 3513 3500 
z
" transform="scale(0.015625)"/>
      <path id="DejaVuSans-2c" d="M 750 794 
L 1409 794 
L 1409 256 
L 897 -744 
L 494 -744 
L 750 256 
L 750 794 
z
" transform="scale(0.015625)"/>
      <path id="DejaVuSans-29" d="M 513 4856 
L 1013 4856 
Q 1481 4119 1714 3412 
Q 1947 2706 1947 2009 
Q 1947 1309 1714 600 
Q 1481 -109 1013 -844 
L 513 -844 
Q 928 -128 1133 580 
Q 1338 1288 1338 2009 
Q 1338 2731 1133 3434 
Q 928 4138 513 4856 
z
" transform="scale(0.015625)"/>
     </defs>
     <use xlink:href="#DejaVuSans-53"/>
     <use xlink:href="#DejaVuSans-75" transform="translate(63.476562 0)"/>
     <use xlink:href="#DejaVuSans-62" transform="translate(126.855469 0)"/>
     <use xlink:href="#DejaVuSans-73" transform="translate(190.332031 0)"/>
     <use xlink:href="#DejaVuSans-74" transform="translate(242.431641 0)"/>
     <use xlink:href="#DejaVuSans-72" transform="translate(281.640625 0)"/>
     <use xlink:href="#DejaVuSans-61" transform="translate(322.753906 0)"/>
     <use xlink:href="#DejaVuSans-74" transform="translate(384.033203 0)"/>
     <use xlink:href="#DejaVuSans-65" transform="translate(423.242188 0)"/>
     <use xlink:href="#DejaVuSans-20" transform="translate(484.765625 0)"/>
     <use xlink:href="#DejaVuSans-63" transform="translate(516.552734 0)"/>
     <use xlink:href="#DejaVuSans-6c" transform="translate(571.533203 0)"/>
     <use xlink:href="#DejaVuSans-75" transform="translate(599.316406 0)"/>
     <use xlink:href="#DejaVuSans-73" transform="translate(662.695312 0)"/>
     <use xlink:href="#DejaVuSans-74" transform="translate(714.794922 0)"/>
     <use xlink:href="#DejaVuSans-65" transform="translate(754.003906 0)"/>
     <use xlink:href="#DejaVuSans-72" transform="translate(815.527344 0)"/>
     <use xlink:href="#DejaVuSans-20" transform="translate(856.640625 0)"/>
     <use xlink:href="#DejaVuSans-63" transform="translate(888.427734 0)"/>
     <use xlink:href="#DejaVuSans-6f" transform="translate(943.408203 0)"/>
     <use xlink:href="#DejaVuSans-6e" transform="translate(1004.589844 0)"/>
     <use xlink:href="#DejaVuSans-63" transform="translate(1067.96875 0)"/>
     <use xlink:href="#DejaVuSans-65" transform="translate(1122.949219 0)"/>
     <use xlink:href="#DejaVuSans-6e" transform="translate(1184.472656 0)"/>
     <use xlink:href="#DejaVuSans-74" transform="translate(1247.851562 0)"/>
     <use xlink:href="#DejaVuSans-72" transform="translate(1287.060547 0)"/>
     <use xlink:href="#DejaVuSans-61" transform="translate(1328.173828 0)"/>
     <use xlink:href="#DejaVuSans-74" transform="translate(1389.453125 0)"/>
     <use xlink:href="#DejaVuSans-69" transform="translate(1428.662109 0)"/>
     <use xlink:href="#DejaVuSans-6f" transform="translate(1456.445312 0)"/>
     <use xlink:href="#DejaVuSans-6e" transform="translate(1517.626953 0)"/>
     <use xlink:href="#DejaVuSans-20" transform="translate(1581.005859 0)"/>
     <use xlink:href="#DejaVuSans-63" transform="translate(1612.792969 0)"/>
     <use xlink:href="#DejaVuSans-75" transform="translate(1667.773438 0)"/>
     <use xlink:href="#DejaVuSans-72" transform="translate(1731.152344 0)"/>
     <use xlink:href="#DejaVuSans-76" transform="translate(1772.265625 0)"/>
     <use xlink:href="#DejaVuSans-65" transform="translate(1831.445312 0)"/>
     <use xlink:href="#DejaVuSans-73" transform="translate(1892.96875 0)"/>
     <use xlink:href="#DejaVuSans-20" transform="translate(1945.068359 0)"/>
     <use xlink:href="#DejaVuSans-28" transform="translate(1976.855469 0)"/>
     <use xlink:href="#DejaVuSans-6d" transform="translate(2015.869141 0)"/>
     <use xlink:href="#DejaVuSans-69" transform="translate(2113.28125 0)"/>
     <use xlink:href="#DejaVuSans-78" transform="translate(2141.064453 0)"/>
     <use xlink:href="#DejaVuSans-31" transform="translate(2200.244141 0)"/>
     <use xlink:href="#DejaVuSans-31" transform="translate(2263.867188 0)"/>
     <use xlink:href="#DejaVuSans-2c" transform="translate(2327.490234 0)"/>
     <use xlink:href="#DejaVuSans-20" transform="translate(2359.277344 0)"/>
     <use xlink:href="#DejaVuSans-46" transform="translate(2391.064453 0)"/>
     <use xlink:href="#DejaVuSans-32" transform="translate(2448.583984 0)"/>
     <use xlink:href="#DejaVuSans-29" transform="translate(2512.207031 0)"/>
    </g>
   </g>
  </g>
 </g>
 <defs>
  <clipPath id="pe0b20e1888">
   <rect x="56.036" y="26.88" width="269.534" height="145.5175"/>
  </clipPath>
 </defs>
</svg>
